<?xml version="1.0" standalone="no"?>
<!DOCTYPE svg PUBLIC "-//W3C//DTD SVG 1.1//EN" "http://www.w3.org/Graphics/SVG/1.1/DTD/svg11.dtd" >
<svg xmlns="http://www.w3.org/2000/svg" xmlns:xlink="http://www.w3.org/1999/xlink" version="1.1">
<metadata>
Created by FontForge 20170731 at Sat Jul  3 15:51:18 2021
 By Aleksey,,,
Copyright (c) 2018 Bold Monday. All rights reserved. Brando Arabic is a trademark of Bold Monday. Unauthorised copying or modification of any of its data is illegal.
</metadata>
<defs>
<font id="BrandoArabicLight" horiz-adv-x="1077" >
  <font-face 
    font-family="Brando Arabic Light"
    font-weight="300"
    font-stretch="normal"
    units-per-em="2048"
    panose-1="2 6 4 3 6 0 0 2 0 3"
    ascent="1526"
    descent="-522"
    x-height="973"
    cap-height="1393"
    bbox="-412 -971 15426 2048"
    underline-thickness="69"
    underline-position="-363"
    unicode-range="U+000D-FEFC"
  />
<missing-glyph horiz-adv-x="575" 
d="M205 1470h166v-1884h-166v1884z" />
    <glyph glyph-name="fi" unicode="fi" horiz-adv-x="1163" 
d="M678 70l104 -2q39 0 39 43v745q0 43 -39 43h-436v-788q0 -43 39 -43h135v-70h-438v70h108q39 0 39 43v788h-168v74h129q39 0 39 43v160q0 174 82 268q84 96 234 96q31 0 71 -4q29 -3 54 -10v-96h-13q-18 8 -57 14q-38 6 -84 6q-92 0 -129 -49t-37 -166v-260h553
q39 0 39 -43v-819q0 -43 39 -43h109v-70h-412v70zM793 1290v-4q0 84 81 84q42 0 62 -20q22 -22 22 -62q0 -39 -22 -61q-21 -21 -62 -21q-81 0 -81 84z" />
    <glyph glyph-name="fl" unicode="fl" horiz-adv-x="1122" 
d="M86 70h107q38 0 38 43v788h-168v74h130q38 0 38 43v151q0 194 95 283q96 90 272 90q84 0 154 -6q77 -7 118 -14q43 -9 43 -49v-1358q0 -43 39 -43h109v-70h-412v70h109q39 0 39 43v1257q0 27 -6 45q-7 20 -27 29q-21 9 -57 12q-50 4 -101 4q-140 0 -198 -49t-58 -182
v-256h250v-74h-250v-788q0 -43 39 -43h119v-70h-422v70z" />
    <glyph glyph-name="uniFC03" unicode="&#xfe8b;&#xfef0;" horiz-adv-x="1460" arabic-form="isolated" 
d="M770 -301l-6 -4q-345 0 -510 137q-166 138 -166 430q0 82 12 162q8 51 29 151h74v-12q-18 -85 -23 -145q-6 -73 -6 -142q0 -228 148 -337t450 -109q114 0 215 16q92 15 166 43q70 27 109 72q36 42 36 94q0 35 -18 62q-21 31 -57 47q-44 20 -105 31q-54 10 -164 20
l-137 10v117l8 8l146 -12q143 -9 207 49q65 59 65 188q0 50 -10 142q-8 71 -31 184l6 8h90q18 -111 25 -176q8 -71 8 -145q0 -230 -135 -303v-4q184 -58 184 -215q0 -85 -43 -152q-43 -68 -123 -117q-79 -49 -192 -73q-119 -25 -252 -25zM1110 1133v4q-16 23 -25 49
q-8 24 -8 49q0 38 15 68q14 28 41 55q24 24 59 39q32 14 74 14q110 0 110 -111v-43h-59v19q0 59 -64 59q-43 0 -79 -28q-35 -27 -35 -68q0 -26 16 -55q14 -25 43 -51h213v-76h-377v76h76z" />
    <glyph glyph-name="uniFC04" unicode="&#xfe8b;&#xfef2;" horiz-adv-x="1460" arabic-form="isolated" 
d="M770 -301l-6 -4q-345 0 -510 137q-166 138 -166 430q0 82 12 162q8 51 29 151h74v-12q-18 -85 -23 -145q-6 -73 -6 -142q0 -228 148 -337t450 -109q114 0 215 16q92 15 166 43q70 27 109 72q36 42 36 94q0 35 -18 62q-21 31 -57 47q-44 20 -105 31q-54 10 -164 20
l-137 10v117l8 8l146 -12q143 -9 207 49q65 59 65 188q0 50 -10 142q-8 71 -31 184l6 8h90q18 -111 25 -176q8 -71 8 -145q0 -230 -135 -303v-4q184 -58 184 -215q0 -85 -43 -152q-43 -68 -123 -117q-79 -49 -192 -73q-119 -25 -252 -25zM1110 1133v4q-16 23 -25 49
q-8 24 -8 49q0 38 15 68q14 28 41 55q24 24 59 39q32 14 74 14q110 0 110 -111v-43h-59v19q0 59 -64 59q-43 0 -79 -28q-35 -27 -35 -68q0 -26 16 -55q14 -25 43 -51h213v-76h-377v76h76zM680 -494l88 -88l-88 -86h-14l-88 86l88 88h14zM883 -494l88 -88l-88 -86h-15l-88 86
l88 88h15z" />
    <glyph glyph-name="uniFC09" unicode="&#xfe91;&#xfef0;" horiz-adv-x="1460" arabic-form="isolated" 
d="M770 -301l-6 -4q-345 0 -510 137q-166 138 -166 430q0 82 12 162q8 51 29 151h74v-12q-18 -85 -23 -145q-6 -73 -6 -142q0 -228 148 -337t450 -109q114 0 215 16q92 15 166 43q70 27 109 72q36 42 36 94q0 35 -18 62q-21 31 -57 47q-44 20 -105 31q-54 10 -164 20
l-137 10v117l8 8l146 -12q143 -9 207 49q65 59 65 188q0 50 -10 142q-8 71 -31 184l6 8h90q18 -111 25 -176q8 -71 8 -145q0 -230 -135 -303v-4q184 -58 184 -215q0 -85 -43 -152q-43 -68 -123 -117q-79 -49 -192 -73q-119 -25 -252 -25zM1251 -436l88 -88l-88 -86h-14
l-88 86l88 88h14z" />
    <glyph glyph-name="uniFC0A" unicode="&#xfe91;&#xfef2;" horiz-adv-x="1460" arabic-form="isolated" 
d="M770 -301l-6 -4q-345 0 -510 137q-166 138 -166 430q0 82 12 162q8 51 29 151h74v-12q-18 -85 -23 -145q-6 -73 -6 -142q0 -228 148 -337t450 -109q114 0 215 16q92 15 166 43q70 27 109 72q36 42 36 94q0 35 -18 62q-21 31 -57 47q-44 20 -105 31q-54 10 -164 20
l-137 10v117l8 8l146 -12q143 -9 207 49q65 59 65 188q0 50 -10 142q-8 71 -31 184l6 8h90q18 -111 25 -176q8 -71 8 -145q0 -230 -135 -303v-4q184 -58 184 -215q0 -85 -43 -152q-43 -68 -123 -117q-79 -49 -192 -73q-119 -25 -252 -25zM1251 -436l88 -88l-88 -86h-14
l-88 86l88 88h14zM680 -498l88 -88l-88 -86h-14l-88 86l88 88h14zM883 -498l88 -88l-88 -86h-15l-88 86l88 88h15z" />
    <glyph glyph-name="uniFC0F" unicode="&#xfe97;&#xfef0;" horiz-adv-x="1460" arabic-form="isolated" 
d="M770 -301l-6 -4q-345 0 -510 137q-166 138 -166 430q0 82 12 162q8 51 29 151h74v-12q-18 -85 -23 -145q-6 -73 -6 -142q0 -228 148 -337t450 -109q114 0 215 16q92 15 166 43q70 27 109 72q36 42 36 94q0 35 -18 62q-21 31 -57 47q-44 20 -105 31q-54 10 -164 20
l-137 10v117l8 8l146 -12q143 -9 207 49q65 59 65 188q0 50 -10 142q-8 71 -31 184l6 8h90q18 -111 25 -176q8 -71 8 -145q0 -230 -135 -303v-4q184 -58 184 -215q0 -85 -43 -152q-43 -68 -123 -117q-79 -49 -192 -73q-119 -25 -252 -25zM1128 1305l89 -88l-89 -87h-14
l-88 87l88 88h14zM1331 1305l88 -88l-88 -87h-14l-88 87l88 88h14z" />
    <glyph glyph-name="uniFC10" unicode="&#xfe97;&#xfef2;" horiz-adv-x="1460" arabic-form="isolated" 
d="M770 -301l-6 -4q-345 0 -510 137q-166 138 -166 430q0 82 12 162q8 51 29 151h74v-12q-18 -85 -23 -145q-6 -73 -6 -142q0 -228 148 -337t450 -109q114 0 215 16q92 15 166 43q70 27 109 72q36 42 36 94q0 35 -18 62q-21 31 -57 47q-44 20 -105 31q-54 10 -164 20
l-137 10v117l8 8l146 -12q143 -9 207 49q65 59 65 188q0 50 -10 142q-8 71 -31 184l6 8h90q18 -111 25 -176q8 -71 8 -145q0 -230 -135 -303v-4q184 -58 184 -215q0 -85 -43 -152q-43 -68 -123 -117q-79 -49 -192 -73q-119 -25 -252 -25zM1128 1305l89 -88l-89 -87h-14
l-88 87l88 88h14zM1331 1305l88 -88l-88 -87h-14l-88 87l88 88h14zM680 -498l88 -88l-88 -86h-14l-88 86l88 88h14zM883 -498l88 -88l-88 -86h-15l-88 86l88 88h15z" />
    <glyph glyph-name="uniFC13" unicode="&#xfe9b;&#xfef0;" horiz-adv-x="1460" arabic-form="isolated" 
d="M770 -301l-6 -4q-345 0 -510 137q-166 138 -166 430q0 82 12 162q8 51 29 151h74v-12q-18 -85 -23 -145q-6 -73 -6 -142q0 -228 148 -337t450 -109q114 0 215 16q92 15 166 43q70 27 109 72q36 42 36 94q0 35 -18 62q-21 31 -57 47q-44 20 -105 31q-54 10 -164 20
l-137 10v117l8 8l146 -12q143 -9 207 49q65 59 65 188q0 50 -10 142q-8 71 -31 184l6 8h90q18 -111 25 -176q8 -71 8 -145q0 -230 -135 -303v-4q184 -58 184 -215q0 -85 -43 -152q-43 -68 -123 -117q-79 -49 -192 -73q-119 -25 -252 -25zM1231 1499l84 -84l-84 -84h-14
l-87 84l87 84h14zM1128 1305l89 -88l-89 -87h-14l-88 87l88 88h14zM1331 1305l88 -88l-88 -87h-14l-88 87l88 88h14z" />
    <glyph glyph-name="uniFC14" unicode="&#xfe9b;&#xfef2;" horiz-adv-x="1460" arabic-form="isolated" 
d="M770 -301l-6 -4q-345 0 -510 137q-166 138 -166 430q0 82 12 162q8 51 29 151h74v-12q-18 -85 -23 -145q-6 -73 -6 -142q0 -228 148 -337t450 -109q114 0 215 16q92 15 166 43q70 27 109 72q36 42 36 94q0 35 -18 62q-21 31 -57 47q-44 20 -105 31q-54 10 -164 20
l-137 10v117l8 8l146 -12q143 -9 207 49q65 59 65 188q0 50 -10 142q-8 71 -31 184l6 8h90q18 -111 25 -176q8 -71 8 -145q0 -230 -135 -303v-4q184 -58 184 -215q0 -85 -43 -152q-43 -68 -123 -117q-79 -49 -192 -73q-119 -25 -252 -25zM1231 1499l84 -84l-84 -84h-14
l-87 84l87 84h14zM1128 1305l89 -88l-89 -87h-14l-88 87l88 88h14zM1331 1305l88 -88l-88 -87h-14l-88 87l88 88h14zM680 -498l88 -88l-88 -86h-14l-88 86l88 88h14zM883 -498l88 -88l-88 -86h-15l-88 86l88 88h15z" />
    <glyph glyph-name="uniFC31" unicode="&#xfed3;&#xfef0;" horiz-adv-x="1476" arabic-form="isolated" 
d="M1188 127l-12 -4q97 -26 145 -84q47 -56 47 -133q0 -81 -43 -148q-41 -64 -123 -112q-84 -49 -192 -72q-119 -25 -252 -25q-344 0 -510 138t-166 430q0 83 12 162q8 51 29 151h74v-12q-18 -85 -23 -146q-6 -74 -6 -141q0 -230 147 -338t451 -108q114 0 215 16
q92 15 166 43q69 26 108 72q37 43 37 94q0 34 -18 61q-21 31 -57 47q-44 20 -105 31q-64 12 -164 21l-137 10v117l8 8l156 -12q160 -15 227 43q69 60 78 202l-4 2q-116 -67 -270 -67q-151 0 -236 76q-86 77 -86 221q0 81 27 161q28 83 73 142q46 61 107 98t131 37
q77 0 141 -43q65 -43 111 -123q45 -76 69 -192q25 -119 25 -252q0 -157 -43 -244q-44 -89 -137 -123v-4zM1012 489l-2 3q70 0 135 12q56 10 129 41q-6 93 -31 176t-61 139q-37 58 -86 92q-50 35 -105 35q-50 0 -92 -26q-45 -28 -74 -70q-32 -47 -49 -98q-18 -55 -18 -111
q0 -94 67 -143q68 -50 187 -50zM997 1509l88 -88l-88 -86h-14l-88 86l88 88h14z" />
    <glyph glyph-name="uniFC32" unicode="&#xfed3;&#xfef2;" horiz-adv-x="1476" arabic-form="isolated" 
d="M1188 127l-12 -4q97 -26 145 -84q47 -56 47 -133q0 -81 -43 -148q-41 -64 -123 -112q-84 -49 -192 -72q-119 -25 -252 -25q-344 0 -510 138t-166 430q0 83 12 162q8 51 29 151h74v-12q-18 -85 -23 -146q-6 -74 -6 -141q0 -230 147 -338t451 -108q114 0 215 16
q92 15 166 43q69 26 108 72q37 43 37 94q0 34 -18 61q-21 31 -57 47q-44 20 -105 31q-64 12 -164 21l-137 10v117l8 8l156 -12q160 -15 227 43q69 60 78 202l-4 2q-116 -67 -270 -67q-151 0 -236 76q-86 77 -86 221q0 81 27 161q28 83 73 142q46 61 107 98t131 37
q77 0 141 -43q65 -43 111 -123q45 -76 69 -192q25 -119 25 -252q0 -157 -43 -244q-44 -89 -137 -123v-4zM1012 489l-2 3q70 0 135 12q56 10 129 41q-6 93 -31 176t-61 139q-37 58 -86 92q-50 35 -105 35q-50 0 -92 -26q-45 -28 -74 -70q-32 -47 -49 -98q-18 -55 -18 -111
q0 -94 67 -143q68 -50 187 -50zM997 1509l88 -88l-88 -86h-14l-88 86l88 88h14zM672 -643l88 -88l-88 -86h-15l-88 86l88 88h15zM874 -643l89 -88l-89 -86h-14l-88 86l88 88h14z" />
    <glyph glyph-name="uniFC35" unicode="&#xfed7;&#xfef0;" horiz-adv-x="1476" arabic-form="isolated" 
d="M1188 127l-12 -4q97 -26 145 -84q47 -56 47 -133q0 -81 -43 -148q-41 -64 -123 -112q-84 -49 -192 -72q-119 -25 -252 -25q-344 0 -510 138t-166 430q0 83 12 162q8 51 29 151h74v-12q-18 -85 -23 -146q-6 -74 -6 -141q0 -230 147 -338t451 -108q114 0 215 16
q92 15 166 43q69 26 108 72q37 43 37 94q0 34 -18 61q-21 31 -57 47q-44 20 -105 31q-64 12 -164 21l-137 10v117l8 8l156 -12q160 -15 227 43q69 60 78 202l-4 2q-116 -67 -270 -67q-151 0 -236 76q-86 77 -86 221q0 81 27 161q28 83 73 142q46 61 107 98t131 37
q77 0 141 -43q65 -43 111 -123q45 -76 69 -192q25 -119 25 -252q0 -157 -43 -244q-44 -89 -137 -123v-4zM1012 489l-2 3q70 0 135 12q56 10 129 41q-6 93 -31 176t-61 139q-37 58 -86 92q-50 35 -105 35q-50 0 -92 -26q-45 -28 -74 -70q-32 -47 -49 -98q-18 -55 -18 -111
q0 -94 67 -143q68 -50 187 -50zM897 1509l88 -88l-88 -86h-14l-88 86l88 88h14zM1100 1509l88 -88l-88 -86h-15l-88 86l88 88h15z" />
    <glyph glyph-name="uniFC36" unicode="&#xfed7;&#xfef2;" horiz-adv-x="1476" arabic-form="isolated" 
d="M1188 127l-12 -4q97 -26 145 -84q47 -56 47 -133q0 -81 -43 -148q-41 -64 -123 -112q-84 -49 -192 -72q-119 -25 -252 -25q-344 0 -510 138t-166 430q0 83 12 162q8 51 29 151h74v-12q-18 -85 -23 -146q-6 -74 -6 -141q0 -230 147 -338t451 -108q114 0 215 16
q92 15 166 43q69 26 108 72q37 43 37 94q0 34 -18 61q-21 31 -57 47q-44 20 -105 31q-64 12 -164 21l-137 10v117l8 8l156 -12q160 -15 227 43q69 60 78 202l-4 2q-116 -67 -270 -67q-151 0 -236 76q-86 77 -86 221q0 81 27 161q28 83 73 142q46 61 107 98t131 37
q77 0 141 -43q65 -43 111 -123q45 -76 69 -192q25 -119 25 -252q0 -157 -43 -244q-44 -89 -137 -123v-4zM1012 489l-2 3q70 0 135 12q56 10 129 41q-6 93 -31 176t-61 139q-37 58 -86 92q-50 35 -105 35q-50 0 -92 -26q-45 -28 -74 -70q-32 -47 -49 -98q-18 -55 -18 -111
q0 -94 67 -143q68 -50 187 -50zM672 -643l88 -88l-88 -86h-15l-88 86l88 88h15zM874 -643l89 -88l-89 -86h-14l-88 86l88 88h14zM897 1509l88 -88l-88 -86h-14l-88 86l88 88h14zM1100 1509l88 -88l-88 -86h-15l-88 86l88 88h15z" />
    <glyph glyph-name="uniFC3D" unicode="&#xfedb;&#xfef0;" horiz-adv-x="1533" arabic-form="isolated" 
d="M770 -479l-6 -13q-344 0 -510 138t-166 430q0 82 12 162q8 51 29 151h74v-12q-18 -85 -23 -146q-6 -73 -6 -141q0 -229 148 -338q147 -108 450 -108q114 0 215 16q96 15 166 45t109 72q36 39 36 92q0 34 -18 61q-21 31 -57 47q-44 20 -105 31q-64 12 -164 21l-137 10v117
l8 8l146 -12q151 -9 221 32q74 44 74 127q0 29 -13 62q-15 36 -32 65q-16 27 -60 74q-50 54 -88 92l-287 285v121l850 516h13v-111l-762 -463l200 -211q71 -72 121 -127q53 -59 80 -104q30 -50 45 -96q15 -47 15 -95q0 -157 -156 -221v-6q95 -27 141 -82q47 -56 47 -131
q0 -82 -43 -149q-42 -66 -123 -113q-84 -49 -192 -72q-114 -24 -252 -24z" />
    <glyph glyph-name="uniFC3E" unicode="&#xfedb;&#xfef2;" horiz-adv-x="1533" arabic-form="isolated" 
d="M770 -479l-6 -13q-344 0 -510 138t-166 430q0 82 12 162q8 51 29 151h74v-12q-18 -85 -23 -146q-6 -73 -6 -141q0 -229 148 -338q147 -108 450 -108q114 0 215 16q96 15 166 45t109 72q36 39 36 92q0 34 -18 61q-21 31 -57 47q-44 20 -105 31q-64 12 -164 21l-137 10v117
l8 8l146 -12q151 -9 221 32q74 44 74 127q0 29 -13 62q-15 36 -32 65q-16 27 -60 74q-50 54 -88 92l-287 285v121l850 516h13v-111l-762 -463l200 -211q71 -72 121 -127q53 -59 80 -104q30 -50 45 -96q15 -47 15 -95q0 -157 -156 -221v-6q95 -27 141 -82q47 -56 47 -131
q0 -82 -43 -149q-42 -66 -123 -113q-84 -49 -192 -72q-114 -24 -252 -24zM670 -684l88 -88l-88 -86h-15l-88 86l88 88h15zM872 -684l89 -88l-89 -86h-14l-88 86l88 88h14z" />
    <glyph glyph-name="uniFC42" unicode="&#xfedf;&#xfee2;" horiz-adv-x="782" arabic-form="isolated" 
d="M461 401l-10 -4q-15 41 -21 86q-6 47 -6 117v924h96v-924q0 -90 8 -137q8 -49 37 -98q83 -27 172 -80l92 -52l-63 -98l-90 51q-82 45 -156 68q-80 25 -155 25q-114 0 -160 -46q-47 -47 -47 -149v-731h-90v731q0 167 71 244q72 78 228 78q51 0 92 -9z" />
    <glyph glyph-name="uniFC43" unicode="&#xfedf;&#xfef0;" horiz-adv-x="1552" arabic-form="isolated" 
d="M1180 96l-9 -6q107 -27 154 -80t47 -129q0 -82 -43 -149q-43 -68 -123 -117q-81 -51 -192 -74q-114 -24 -252 -24q-345 0 -510 137q-166 138 -166 430q0 82 12 162q8 51 29 151h74v-12q-18 -85 -23 -145q-6 -73 -6 -142q0 -230 147 -338t451 -108q114 0 215 16
q92 15 166 43q70 27 109 72q36 42 36 94q0 35 -18 62q-21 31 -57 47q-41 18 -105 30t-164 21l-137 10v117l8 8l146 -12q130 -9 196 51q68 62 68 207v1108h96v-1108q0 -119 -37 -197q-38 -80 -112 -119v-6z" />
    <glyph glyph-name="uniFC44" unicode="&#xfedf;&#xfef2;" horiz-adv-x="1552" arabic-form="isolated" 
d="M1180 96l-9 -6q107 -27 154 -80t47 -129q0 -82 -43 -149q-43 -68 -123 -117q-81 -51 -192 -74q-114 -24 -252 -24q-345 0 -510 137q-166 138 -166 430q0 82 12 162q8 51 29 151h74v-12q-18 -85 -23 -145q-6 -73 -6 -142q0 -230 147 -338t451 -108q114 0 215 16
q92 15 166 43q70 27 109 72q36 42 36 94q0 35 -18 62q-21 31 -57 47q-41 18 -105 30t-164 21l-137 10v117l8 8l146 -12q130 -9 196 51q68 62 68 207v1108h96v-1108q0 -119 -37 -197q-38 -80 -112 -119v-6zM668 -678l88 -88l-88 -86h-15l-88 86l88 88h15zM870 -678l88 -88
l-88 -86h-14l-88 86l88 88h14z" />
    <glyph glyph-name="uniFC4F" unicode="&#xfee7;&#xfef0;" horiz-adv-x="1460" arabic-form="isolated" 
d="M770 -301l-6 -4q-345 0 -510 137q-166 138 -166 430q0 82 12 162q8 51 29 151h74v-12q-18 -85 -23 -145q-6 -73 -6 -142q0 -228 148 -337t450 -109q114 0 215 16q92 15 166 43q70 27 109 72q36 42 36 94q0 35 -18 62q-21 31 -57 47q-44 20 -105 31q-54 10 -164 20
l-137 10v117l8 8l146 -12q143 -9 207 49q65 59 65 188q0 50 -10 142q-8 71 -31 184l6 8h90q18 -111 25 -176q8 -71 8 -145q0 -230 -135 -303v-4q184 -58 184 -215q0 -85 -43 -152q-43 -68 -123 -117q-79 -49 -192 -73q-119 -25 -252 -25zM1229 1305l88 -88l-88 -87h-15
l-88 87l88 88h15z" />
    <glyph glyph-name="uniFC50" unicode="&#xfee7;&#xfef2;" horiz-adv-x="1460" arabic-form="isolated" 
d="M770 -301l-6 -4q-345 0 -510 137q-166 138 -166 430q0 82 12 162q8 51 29 151h74v-12q-18 -85 -23 -145q-6 -73 -6 -142q0 -228 148 -337t450 -109q114 0 215 16q92 15 166 43q70 27 109 72q36 42 36 94q0 35 -18 62q-21 31 -57 47q-44 20 -105 31q-54 10 -164 20
l-137 10v117l8 8l146 -12q143 -9 207 49q65 59 65 188q0 50 -10 142q-8 71 -31 184l6 8h90q18 -111 25 -176q8 -71 8 -145q0 -230 -135 -303v-4q184 -58 184 -215q0 -85 -43 -152q-43 -68 -123 -117q-79 -49 -192 -73q-119 -25 -252 -25zM1229 1305l88 -88l-88 -87h-15
l-88 87l88 88h15zM680 -498l88 -88l-88 -86h-14l-88 86l88 88h14zM883 -498l88 -88l-88 -86h-15l-88 86l88 88h15z" />
    <glyph glyph-name="uniFC59" unicode="&#xfef3;&#xfef0;" horiz-adv-x="1460" arabic-form="isolated" 
d="M770 -301l-6 -4q-345 0 -510 137q-166 138 -166 430q0 82 12 162q8 51 29 151h74v-12q-18 -85 -23 -145q-6 -73 -6 -142q0 -228 148 -337t450 -109q114 0 215 16q92 15 166 43q70 27 109 72q36 42 36 94q0 35 -18 62q-21 31 -57 47q-44 20 -105 31q-54 10 -164 20
l-137 10v117l8 8l146 -12q143 -9 207 49q65 59 65 188q0 50 -10 142q-8 71 -31 184l6 8h90q18 -111 25 -176q8 -71 8 -145q0 -230 -135 -303v-4q184 -58 184 -215q0 -85 -43 -152q-43 -68 -123 -117q-79 -49 -192 -73q-119 -25 -252 -25zM1151 -436l88 -88l-88 -86h-14
l-88 86l88 88h14zM1354 -436l88 -88l-88 -86h-15l-88 86l88 88h15z" />
    <glyph glyph-name="uniFC5A" unicode="&#xfef3;&#xfef2;" horiz-adv-x="1460" arabic-form="isolated" 
d="M770 -301l-6 -4q-345 0 -510 137q-166 138 -166 430q0 82 12 162q8 51 29 151h74v-12q-18 -85 -23 -145q-6 -73 -6 -142q0 -228 148 -337t450 -109q114 0 215 16q92 15 166 43q70 27 109 72q36 42 36 94q0 35 -18 62q-21 31 -57 47q-44 20 -105 31q-54 10 -164 20
l-137 10v117l8 8l146 -12q143 -9 207 49q65 59 65 188q0 50 -10 142q-8 71 -31 184l6 8h90q18 -111 25 -176q8 -71 8 -145q0 -230 -135 -303v-4q184 -58 184 -215q0 -85 -43 -152q-43 -68 -123 -117q-79 -49 -192 -73q-119 -25 -252 -25zM477 -498l88 -88l-88 -86h-14
l-88 86l88 88h14zM680 -498l88 -88l-88 -86h-14l-88 86l88 88h14zM948 -436l88 -88l-88 -86h-14l-88 86l88 88h14zM1151 -436l88 -88l-88 -86h-14l-88 86l88 88h14z" />
    <glyph glyph-name="uniFC64" unicode="&#xfe8c;&#xfeae;" horiz-adv-x="1136" arabic-form="final" 
d="M68 -522l-11 -2q-73 0 -135 26q-66 28 -123 70v70l13 8q73 -27 116 -37q52 -12 105 -12q78 0 143 39q68 40 117 108q51 70 78 164q28 98 28 209q0 96 -24 219q-23 120 -68 246l6 10h90l33 -121l379 60v122h82v-311q0 -120 55 -172q54 -51 172 -51h13v-92l-31 -31h-2
q-143 0 -215 78t-72 239v93l-358 -56q22 -132 22 -227q0 -149 -32 -260q-35 -122 -89 -205q-56 -87 -131 -135q-76 -49 -161 -49zM735 881v4q-14 20 -24 49q-9 27 -9 49q0 38 15 68q14 28 41 55q24 24 59 39q32 14 74 14q110 0 110 -110v-43h-59v18q0 59 -63 59
q-44 0 -80 -28q-35 -27 -35 -68q0 -26 16 -55q14 -25 43 -51h213v-76h-377v76h76z" />
    <glyph glyph-name="uniFC65" unicode="&#xfe8c;&#xfeb0;" horiz-adv-x="1136" arabic-form="final" 
d="M68 -522l-11 -2q-73 0 -135 26q-66 28 -123 70v70l13 8q73 -27 116 -37q52 -12 105 -12q78 0 143 39q68 40 117 108q51 70 78 164q28 98 28 209q0 96 -24 219q-23 120 -68 246l6 10h90l33 -121l379 60v122h82v-311q0 -120 55 -172q54 -51 172 -51h13v-92l-31 -31h-2
q-143 0 -215 78t-72 239v93l-358 -56q22 -132 22 -227q0 -149 -32 -260q-35 -122 -89 -205q-56 -87 -131 -135q-76 -49 -161 -49zM735 881v4q-14 20 -24 49q-9 27 -9 49q0 38 15 68q14 28 41 55q24 24 59 39q32 14 74 14q110 0 110 -110v-43h-59v18q0 59 -63 59
q-44 0 -80 -28q-35 -27 -35 -68q0 -26 16 -55q14 -25 43 -51h213v-76h-377v76h76zM315 995l88 -88l-88 -86h-14l-88 86l88 88h14z" />
    <glyph glyph-name="uniFC67" unicode="&#xfe8c;&#xfee6;" horiz-adv-x="1828" arabic-form="final" 
d="M627 -424l-2 6q-258 0 -396 135q-137 134 -137 369q0 86 12 166q12 77 37 164h74v-13q-43 -157 -43 -286q0 -194 119 -301t334 -107q225 0 336 105q110 104 110 311q0 90 -18 213q-17 113 -49 246l4 10h92l24 -119l383 57v123h82v-311q0 -119 56 -172q54 -51 172 -51h12
v-92l-31 -31h-2q-143 3 -217 80t-74 239v93l-364 -58q18 -120 18 -209q0 -280 -135 -424q-134 -143 -397 -143zM1436 889v4q-16 23 -25 49q-8 24 -8 49q0 40 14 68t41 55q23 23 60 39q32 14 73 14q111 0 111 -110v-43h-60v18q0 60 -63 60q-43 0 -80 -29q-35 -27 -35 -68
q0 -24 17 -55q14 -25 43 -51h213v-76h-377v76h76zM649 768l88 -88l-88 -86h-14l-88 86l88 88h14z" />
    <glyph glyph-name="uniFC68" unicode="&#xfe8c;&#xfef0;" horiz-adv-x="1763" arabic-form="final" 
d="M1053 883v4q-16 23 -25 49q-8 24 -8 49q0 40 14 68t41 55q23 23 60 39q32 14 73 14q111 0 111 -110v-43h-59v18q0 59 -64 59q-44 0 -80 -28q-35 -27 -35 -68q0 -24 17 -55q14 -25 43 -51h213v-76h-377v76h76zM721 -580v-6q-308 0 -467 129q-160 130 -160 404q0 75 10 157
q8 67 25 146h74v-12q-15 -70 -21 -142q-6 -71 -6 -137q0 -212 143 -313t424 -101q117 0 228 19q98 17 180 49q77 30 121 74q43 43 43 96q0 58 -43 92q-45 35 -148 62l-151 43q-162 45 -225 100q-68 59 -68 162q0 74 43 147t113 131q64 53 157 94q84 37 176 37q94 0 154 -45
q62 -47 113 -149l67 -140q19 -40 53 -94q19 -30 54 -61q27 -24 61 -33q31 -8 74 -8h22v-92l-30 -31h-13q-50 0 -94 12q-40 11 -80 43q-27 22 -69 78q-32 43 -68 117l-59 121q-43 88 -92 125q-48 36 -125 36q-72 0 -136 -20q-65 -20 -118 -55q-52 -34 -86 -80
q-33 -44 -33 -92q0 -64 49 -101q43 -32 164 -69l151 -45q66 -19 123 -43q46 -20 80 -50q30 -27 45 -65t15 -90q0 -93 -52 -166q-51 -72 -141 -125t-211 -80q-132 -29 -266 -29z" />
    <glyph glyph-name="uniFC69" unicode="&#xfe8c;&#xfef2;" horiz-adv-x="1763" arabic-form="final" 
d="M1053 883v4q-16 23 -25 49q-8 24 -8 49q0 40 14 68t41 55q23 23 60 39q32 14 73 14q111 0 111 -110v-43h-59v18q0 59 -64 59q-44 0 -80 -28q-35 -27 -35 -68q0 -24 17 -55q14 -25 43 -51h213v-76h-377v76h76zM627 -772l88 -88l-88 -86h-15l-88 86l88 88h15zM829 -772
l89 -88l-89 -86h-14l-88 86l88 88h14zM721 -580v-6q-308 0 -467 129q-160 130 -160 404q0 75 10 157q8 67 25 146h74v-12q-15 -70 -21 -142q-6 -71 -6 -137q0 -212 143 -313t424 -101q117 0 228 19q98 17 180 49q77 30 121 74q43 43 43 96q0 58 -43 92q-45 35 -148 62
l-151 43q-162 45 -225 100q-68 59 -68 162q0 74 43 147t113 131q64 53 157 94q84 37 176 37q94 0 154 -45q62 -47 113 -149l67 -140q19 -40 53 -94q19 -30 54 -61q27 -24 61 -33q31 -8 74 -8h22v-92l-30 -31h-13q-50 0 -94 12q-40 11 -80 43q-27 22 -69 78q-32 43 -68 117
l-59 121q-43 88 -92 125q-48 36 -125 36q-72 0 -136 -20q-65 -20 -118 -55q-52 -34 -86 -80q-33 -44 -33 -92q0 -64 49 -101q43 -32 164 -69l151 -45q66 -19 123 -43q46 -20 80 -50q30 -27 45 -65t15 -90q0 -93 -52 -166q-51 -72 -141 -125t-211 -80q-132 -29 -266 -29z" />
    <glyph glyph-name="uniFC6A" unicode="&#xfe92;&#xfeae;" horiz-adv-x="1136" arabic-form="final" 
d="M68 -522l-11 -2q-73 0 -135 26q-66 28 -123 70v70l13 8q73 -27 116 -37q52 -12 105 -12q78 0 143 39q68 40 117 108q51 70 78 164q28 98 28 209q0 96 -24 219q-23 120 -68 246l6 10h90l33 -121l379 60v122h82v-311q0 -120 55 -172q54 -51 172 -51h13v-92l-31 -31h-2
q-143 0 -215 78t-72 239v93l-358 -56q22 -132 22 -227q0 -149 -32 -260q-35 -122 -89 -205q-56 -87 -131 -135q-76 -49 -161 -49zM860 -195l88 -88l-88 -86h-14l-88 86l88 88h14z" />
    <glyph glyph-name="uniFC6B" unicode="&#xfe92;&#xfeb0;" horiz-adv-x="1136" arabic-form="final" 
d="M68 -522l-11 -2q-73 0 -135 26q-66 28 -123 70v70l13 8q73 -27 116 -37q52 -12 105 -12q78 0 143 39q68 40 117 108q51 70 78 164q28 98 28 209q0 96 -24 219q-23 120 -68 246l6 10h90l33 -121l379 60v122h82v-311q0 -120 55 -172q54 -51 172 -51h13v-92l-31 -31h-2
q-143 0 -215 78t-72 239v93l-358 -56q22 -132 22 -227q0 -149 -32 -260q-35 -122 -89 -205q-56 -87 -131 -135q-76 -49 -161 -49zM860 -195l88 -88l-88 -86h-14l-88 86l88 88h14zM315 991l88 -88l-88 -86h-14l-88 86l88 88h14z" />
    <glyph glyph-name="uniFC6D" unicode="&#xfe92;&#xfee6;" horiz-adv-x="1828" arabic-form="final" 
d="M627 -424l-2 6q-258 0 -396 135q-137 134 -137 369q0 86 12 166q12 77 37 164h74v-13q-43 -157 -43 -286q0 -194 119 -301t334 -107q225 0 336 105q110 104 110 311q0 90 -18 213q-17 113 -49 246l4 10h92l24 -119l383 57v123h82v-311q0 -119 56 -172q54 -51 172 -51h12
v-92l-31 -31h-2q-143 3 -217 80t-74 239v93l-364 -58q18 -120 18 -209q0 -280 -135 -424q-134 -143 -397 -143zM649 764l88 -88l-88 -86h-14l-88 86l88 88h14zM1563 -186l88 -88l-88 -86h-15l-88 86l88 88h15z" />
    <glyph glyph-name="uniFC6E" unicode="&#xfe92;&#xfef0;" horiz-adv-x="1763" arabic-form="final" 
d="M1331 -629l88 -88l-88 -86h-14l-88 86l88 88h14zM721 -584v-6q-308 0 -467 129q-160 130 -160 404q0 75 10 157q8 67 25 146h74v-13q-15 -71 -21 -141t-6 -137q0 -212 143 -313t424 -101q117 0 228 19q98 17 180 49q77 30 121 74q43 43 43 96q0 58 -43 92t-148 61
l-151 43q-160 45 -225 101q-68 59 -68 162q0 74 43 147t113 131q64 53 157 94q84 37 176 37q94 0 154 -45q62 -47 113 -149l67 -140q19 -40 53 -94q19 -30 54 -61q27 -24 61 -33q31 -8 74 -8h22v-92l-30 -31h-13q-50 0 -94 12q-40 11 -80 43q-27 22 -69 78q-32 43 -68 117
l-59 121q-43 87 -92 124t-125 37q-72 0 -136 -20q-65 -20 -118 -55q-52 -34 -86 -80q-33 -44 -33 -92q0 -64 49 -101q43 -32 164 -69l151 -46q66 -19 123 -43q48 -21 80 -49q30 -27 45 -65t15 -90q0 -93 -52 -166q-51 -72 -141 -125t-211 -80q-132 -29 -266 -29z" />
    <glyph glyph-name="uniFC6F" unicode="&#xfe92;&#xfef2;" horiz-adv-x="1763" arabic-form="final" 
d="M1331 -629l88 -88l-88 -86h-14l-88 86l88 88h14zM627 -776l88 -88l-88 -86h-15l-88 86l88 88h15zM829 -776l89 -88l-89 -86h-14l-88 86l88 88h14zM721 -584v-6q-308 0 -467 129q-160 130 -160 404q0 75 10 157q8 67 25 146h74v-13q-15 -71 -21 -141t-6 -137
q0 -212 143 -313t424 -101q117 0 228 19q98 17 180 49q77 30 121 74q43 43 43 96q0 58 -43 92t-148 61l-151 43q-160 45 -225 101q-68 59 -68 162q0 74 43 147t113 131q64 53 157 94q84 37 176 37q94 0 154 -45q62 -47 113 -149l67 -140q19 -40 53 -94q19 -30 54 -61
q27 -24 61 -33q31 -8 74 -8h22v-92l-30 -31h-13q-50 0 -94 12q-40 11 -80 43q-27 22 -69 78q-32 43 -68 117l-59 121q-43 87 -92 124t-125 37q-72 0 -136 -20q-65 -20 -118 -55q-52 -34 -86 -80q-33 -44 -33 -92q0 -64 49 -101q43 -32 164 -69l151 -46q66 -19 123 -43
q48 -21 80 -49q30 -27 45 -65t15 -90q0 -93 -52 -166q-51 -72 -141 -125t-211 -80q-132 -29 -266 -29z" />
    <glyph glyph-name="uniFC70" unicode="&#xfe98;&#xfeae;" horiz-adv-x="1136" arabic-form="final" 
d="M68 -522l-11 -2q-73 0 -135 26q-66 28 -123 70v70l13 8q73 -27 116 -37q52 -12 105 -12q78 0 143 39q68 40 117 108q51 70 78 164q28 98 28 209q0 96 -24 219q-23 120 -68 246l6 10h90l33 -121l379 60v122h82v-311q0 -120 55 -172q54 -51 172 -51h13v-92l-31 -31h-2
q-143 0 -215 78t-72 239v93l-358 -56q22 -132 22 -227q0 -149 -32 -260q-35 -122 -89 -205q-56 -87 -131 -135q-76 -49 -161 -49zM754 1053l88 -88l-88 -86h-15l-88 86l88 88h15zM956 1053l88 -88l-88 -86h-14l-88 86l88 88h14z" />
    <glyph glyph-name="uniFC71" unicode="&#xfe98;&#xfeb0;" horiz-adv-x="1136" arabic-form="final" 
d="M68 -522l-11 -2q-73 0 -135 26q-66 28 -123 70v70l13 8q73 -27 116 -37q52 -12 105 -12q78 0 143 39q68 40 117 108q51 70 78 164q28 98 28 209q0 96 -24 219q-23 120 -68 246l6 10h90l33 -121l379 60v122h82v-311q0 -120 55 -172q54 -51 172 -51h13v-92l-31 -31h-2
q-143 0 -215 78t-72 239v93l-358 -56q22 -132 22 -227q0 -149 -32 -260q-35 -122 -89 -205q-56 -87 -131 -135q-76 -49 -161 -49zM754 1053l88 -88l-88 -86h-15l-88 86l88 88h15zM956 1053l88 -88l-88 -86h-14l-88 86l88 88h14zM315 991l88 -88l-88 -86h-14l-88 86l88 88h14
z" />
    <glyph glyph-name="uniFC73" unicode="&#xfe98;&#xfee6;" horiz-adv-x="1828" arabic-form="final" 
d="M627 -424l-2 6q-258 0 -396 135q-137 134 -137 369q0 86 12 166q12 77 37 164h74v-13q-43 -157 -43 -286q0 -194 119 -301t334 -107q225 0 336 105q110 104 110 311q0 90 -18 213q-17 113 -49 246l4 10h92l24 -119l383 57v123h82v-311q0 -119 56 -172q54 -51 172 -51h12
v-92l-31 -31h-2q-143 3 -217 80t-74 239v93l-364 -58q18 -120 18 -209q0 -280 -135 -424q-134 -143 -397 -143zM649 764l88 -88l-88 -86h-14l-88 86l88 88h14zM1454 1061l88 -88l-88 -86h-14l-88 86l88 88h14zM1657 1061l88 -88l-88 -86h-15l-88 86l88 88h15z" />
    <glyph glyph-name="uniFC74" unicode="&#xfe98;&#xfef0;" horiz-adv-x="1763" arabic-form="final" 
d="M1071 1055l88 -88l-88 -86h-14l-88 86l88 88h14zM1274 1055l88 -88l-88 -86h-14l-89 86l89 88h14zM721 -584v-6q-308 0 -467 129q-160 130 -160 404q0 75 10 157q8 67 25 146h74v-13q-15 -71 -21 -141t-6 -137q0 -212 143 -313t424 -101q117 0 228 19q98 17 180 49
q77 30 121 74q43 43 43 96q0 58 -43 92t-148 61l-151 43q-160 45 -225 101q-68 59 -68 162q0 74 43 147t113 131q64 53 157 94q84 37 176 37q94 0 154 -45q62 -47 113 -149l67 -140q19 -40 53 -94q19 -30 54 -61q27 -24 61 -33q31 -8 74 -8h22v-92l-30 -31h-13q-50 0 -94 12
q-40 11 -80 43q-27 22 -69 78q-32 43 -68 117l-59 121q-43 87 -92 124t-125 37q-72 0 -136 -20q-65 -20 -118 -55q-52 -34 -86 -80q-33 -44 -33 -92q0 -64 49 -101q43 -32 164 -69l151 -46q66 -19 123 -43q48 -21 80 -49q30 -27 45 -65t15 -90q0 -93 -52 -166
q-51 -72 -141 -125t-211 -80q-132 -29 -266 -29z" />
    <glyph glyph-name="uniFC75" unicode="&#xfe98;&#xfef2;" horiz-adv-x="1763" arabic-form="final" 
d="M1071 1055l88 -88l-88 -86h-14l-88 86l88 88h14zM1274 1055l88 -88l-88 -86h-14l-89 86l89 88h14zM627 -776l88 -88l-88 -86h-15l-88 86l88 88h15zM829 -776l89 -88l-89 -86h-14l-88 86l88 88h14zM721 -584v-6q-308 0 -467 129q-160 130 -160 404q0 75 10 157
q8 67 25 146h74v-13q-15 -71 -21 -141t-6 -137q0 -212 143 -313t424 -101q117 0 228 19q98 17 180 49q77 30 121 74q43 43 43 96q0 58 -43 92t-148 61l-151 43q-160 45 -225 101q-68 59 -68 162q0 74 43 147t113 131q64 53 157 94q84 37 176 37q94 0 154 -45
q62 -47 113 -149l67 -140q19 -40 53 -94q19 -30 54 -61q27 -24 61 -33q31 -8 74 -8h22v-92l-30 -31h-13q-50 0 -94 12q-40 11 -80 43q-27 22 -69 78q-32 43 -68 117l-59 121q-43 87 -92 124t-125 37q-72 0 -136 -20q-65 -20 -118 -55q-52 -34 -86 -80q-33 -44 -33 -92
q0 -64 49 -101q43 -32 164 -69l151 -46q66 -19 123 -43q48 -21 80 -49q30 -27 45 -65t15 -90q0 -93 -52 -166q-51 -72 -141 -125t-211 -80q-132 -29 -266 -29z" />
    <glyph glyph-name="uniFC76" unicode="&#xfe9c;&#xfeae;" horiz-adv-x="1136" arabic-form="final" 
d="M68 -522l-11 -2q-73 0 -135 26q-66 28 -123 70v70l13 8q73 -27 116 -37q52 -12 105 -12q78 0 143 39q68 40 117 108q51 70 78 164q28 98 28 209q0 96 -24 219q-23 120 -68 246l6 10h90l33 -121l379 60v122h82v-311q0 -120 55 -172q54 -51 172 -51h13v-92l-31 -31h-2
q-143 0 -215 78t-72 239v93l-358 -56q22 -132 22 -227q0 -149 -32 -260q-35 -122 -89 -205q-56 -87 -131 -135q-76 -49 -161 -49zM856 1247l84 -84l-84 -84h-14l-86 84l86 84h14zM754 1053l88 -88l-88 -86h-15l-88 86l88 88h15zM956 1053l88 -88l-88 -86h-14l-88 86l88 88
h14z" />
    <glyph glyph-name="uniFC77" unicode="&#xfe9c;&#xfeb0;" horiz-adv-x="1136" arabic-form="final" 
d="M68 -522l-11 -2q-73 0 -135 26q-66 28 -123 70v70l13 8q73 -27 116 -37q52 -12 105 -12q78 0 143 39q68 40 117 108q51 70 78 164q28 98 28 209q0 96 -24 219q-23 120 -68 246l6 10h90l33 -121l379 60v122h82v-311q0 -120 55 -172q54 -51 172 -51h13v-92l-31 -31h-2
q-143 0 -215 78t-72 239v93l-358 -56q22 -132 22 -227q0 -149 -32 -260q-35 -122 -89 -205q-56 -87 -131 -135q-76 -49 -161 -49zM856 1247l84 -84l-84 -84h-14l-86 84l86 84h14zM754 1053l88 -88l-88 -86h-15l-88 86l88 88h15zM956 1053l88 -88l-88 -86h-14l-88 86l88 88
h14zM315 991l88 -88l-88 -86h-14l-88 86l88 88h14z" />
    <glyph glyph-name="uniFC79" unicode="&#xfe9c;&#xfee6;" horiz-adv-x="1828" arabic-form="final" 
d="M627 -424l-2 6q-258 0 -396 135q-137 134 -137 369q0 86 12 166q12 77 37 164h74v-13q-43 -157 -43 -286q0 -194 119 -301t334 -107q225 0 336 105q110 104 110 311q0 90 -18 213q-17 113 -49 246l4 10h92l24 -119l383 57v123h82v-311q0 -119 56 -172q54 -51 172 -51h12
v-92l-31 -31h-2q-143 3 -217 80t-74 239v93l-364 -58q18 -120 18 -209q0 -280 -135 -424q-134 -143 -397 -143zM649 764l88 -88l-88 -86h-14l-88 86l88 88h14zM1556 1255l84 -84l-84 -84h-14l-86 84l86 84h14zM1454 1061l88 -88l-88 -86h-14l-88 86l88 88h14zM1657 1061
l88 -88l-88 -86h-15l-88 86l88 88h15z" />
    <glyph glyph-name="uniFC7A" unicode="&#xfe9c;&#xfef0;" horiz-adv-x="1763" arabic-form="final" 
d="M1174 1249l83 -84l-83 -84h-15l-86 84l86 84h15zM1071 1055l88 -88l-88 -86h-14l-88 86l88 88h14zM1274 1055l88 -88l-88 -86h-14l-89 86l89 88h14zM721 -584v-6q-308 0 -467 129q-160 130 -160 404q0 75 10 157q8 67 25 146h74v-13q-15 -71 -21 -141t-6 -137
q0 -212 143 -313t424 -101q117 0 228 19q98 17 180 49q77 30 121 74q43 43 43 96q0 58 -43 92t-148 61l-151 43q-160 45 -225 101q-68 59 -68 162q0 74 43 147t113 131q64 53 157 94q84 37 176 37q94 0 154 -45q62 -47 113 -149l67 -140q19 -40 53 -94q19 -30 54 -61
q27 -24 61 -33q31 -8 74 -8h22v-92l-30 -31h-13q-50 0 -94 12q-40 11 -80 43q-27 22 -69 78q-32 43 -68 117l-59 121q-43 87 -92 124t-125 37q-72 0 -136 -20q-65 -20 -118 -55q-52 -34 -86 -80q-33 -44 -33 -92q0 -64 49 -101q43 -32 164 -69l151 -46q66 -19 123 -43
q48 -21 80 -49q30 -27 45 -65t15 -90q0 -93 -52 -166q-51 -72 -141 -125t-211 -80q-132 -29 -266 -29z" />
    <glyph glyph-name="uniFC7B" unicode="&#xfe9c;&#xfef2;" horiz-adv-x="1763" arabic-form="final" 
d="M1174 1249l83 -84l-83 -84h-15l-86 84l86 84h15zM1071 1055l88 -88l-88 -86h-14l-88 86l88 88h14zM1274 1055l88 -88l-88 -86h-14l-89 86l89 88h14zM627 -776l88 -88l-88 -86h-15l-88 86l88 88h15zM829 -776l89 -88l-89 -86h-14l-88 86l88 88h14zM721 -584v-6
q-308 0 -467 129q-160 130 -160 404q0 75 10 157q8 67 25 146h74v-13q-15 -71 -21 -141t-6 -137q0 -212 143 -313t424 -101q117 0 228 19q98 17 180 49q77 30 121 74q43 43 43 96q0 58 -43 92t-148 61l-151 43q-160 45 -225 101q-68 59 -68 162q0 74 43 147t113 131
q64 53 157 94q84 37 176 37q94 0 154 -45q62 -47 113 -149l67 -140q19 -40 53 -94q19 -30 54 -61q27 -24 61 -33q31 -8 74 -8h22v-92l-30 -31h-13q-50 0 -94 12q-40 11 -80 43q-27 22 -69 78q-32 43 -68 117l-59 121q-43 87 -92 124t-125 37q-72 0 -136 -20
q-65 -20 -118 -55q-52 -34 -86 -80q-33 -44 -33 -92q0 -64 49 -101q43 -32 164 -69l151 -46q66 -19 123 -43q48 -21 80 -49q30 -27 45 -65t15 -90q0 -93 -52 -166q-51 -72 -141 -125t-211 -80q-132 -29 -266 -29z" />
    <glyph glyph-name="uniFC83" unicode="&#xfedc;&#xfef0;" horiz-adv-x="1972" arabic-form="final" 
d="M1200 958l397 -616q50 -74 80 -109q36 -41 74 -69q37 -27 78 -39t92 -12h39v-90l-31 -33q-55 0 -110 10q-47 9 -93 37q-40 25 -86 74q-37 40 -94 116q-15 -86 -69 -143q-56 -59 -142 -80q35 -47 35 -117q0 -85 -43 -155q-42 -69 -123 -119q-81 -51 -192 -74
q-114 -24 -252 -24q-345 0 -510 137q-166 138 -166 430q0 82 12 162q8 51 29 151h74v-12q-18 -85 -23 -145q-6 -74 -6 -142q0 -230 147 -338t451 -108q114 0 215 16q96 15 166 45q68 29 108 72q37 40 37 90q0 35 -16 61t-53 41q-46 18 -103 29q-138 26 -159 29l-148 20v115
l8 8l142 -20q21 -3 55.5 -9t48.5 -8q24 -3 78 -8q32 -3 61 -6q18 -2 52 -2q218 0 239 190l-389 586v121l850 516h12v-111z" />
    <glyph glyph-name="uniFC84" unicode="&#xfedc;&#xfef2;" horiz-adv-x="1972" arabic-form="final" 
d="M1200 958l397 -616q50 -74 80 -109q36 -41 74 -69q37 -27 78 -39t92 -12h39v-90l-31 -33q-55 0 -110 10q-47 9 -93 37q-40 25 -86 74q-37 40 -94 116q-15 -86 -69 -143q-56 -59 -142 -80q35 -47 35 -117q0 -85 -43 -155q-42 -69 -123 -119q-81 -51 -192 -74
q-114 -24 -252 -24q-345 0 -510 137q-166 138 -166 430q0 82 12 162q8 51 29 151h74v-12q-18 -85 -23 -145q-6 -74 -6 -142q0 -230 147 -338t451 -108q114 0 215 16q96 15 166 45q68 29 108 72q37 40 37 90q0 35 -16 61t-53 41q-46 18 -103 29q-138 26 -159 29l-148 20v115
l8 8l142 -20q21 -3 55.5 -9t48.5 -8q24 -3 78 -8q32 -3 61 -6q18 -2 52 -2q218 0 239 190l-389 586v121l850 516h12v-111zM668 -682l88 -88l-88 -86h-15l-88 86l88 88h15zM870 -682l88 -88l-88 -86h-14l-88 86l88 88h14z" />
    <glyph glyph-name="uniFC86" unicode="&#xfee0;&#xfef0;" horiz-adv-x="1800" arabic-form="final" 
d="M1800 31l-39 -41h-2q-194 0 -264 131q-26 -44 -78 -76q-54 -33 -104 -41q55 -43 55 -119q0 -85 -43 -155q-42 -69 -123 -119q-81 -51 -192 -74q-114 -24 -252 -24q-345 0 -510 137q-166 138 -166 430q0 82 12 162q8 51 29 151h74v-12q-18 -85 -23 -145q-6 -74 -6 -142
q0 -230 147 -338t451 -108q114 0 215 16q96 15 166 45q68 29 108 72q37 40 37 90q0 35 -16 61t-53 41q-46 18 -103 29q-138 26 -159 29l-148 20v115l8 8l142 -20q21 -3 55.5 -9t48.5 -8q24 -3 78 -8q32 -3 61 -6q18 -2 51 -2q69 0 125 20q57 21 99 56q-17 73 -17 145v1182
h97v-1182q0 -114 55 -166q56 -53 172 -53h12v-92z" />
    <glyph glyph-name="uniFC87" unicode="&#xfee0;&#xfef2;" horiz-adv-x="1800" arabic-form="final" 
d="M1800 31l-39 -41h-2q-194 0 -264 131q-26 -44 -78 -76q-54 -33 -104 -41q55 -43 55 -119q0 -85 -43 -155q-42 -69 -123 -119q-81 -51 -192 -74q-114 -24 -252 -24q-345 0 -510 137q-166 138 -166 430q0 82 12 162q8 51 29 151h74v-12q-18 -85 -23 -145q-6 -74 -6 -142
q0 -230 147 -338t451 -108q114 0 215 16q96 15 166 45q68 29 108 72q37 40 37 90q0 35 -16 61t-53 41q-46 18 -103 29q-138 26 -159 29l-148 20v115l8 8l142 -20q21 -3 55.5 -9t48.5 -8q24 -3 78 -8q32 -3 61 -6q18 -2 51 -2q69 0 125 20q57 21 99 56q-17 73 -17 145v1182
h97v-1182q0 -114 55 -166q56 -53 172 -53h12v-92zM668 -682l88 -88l-88 -86h-15l-88 86l88 88h15zM870 -682l88 -88l-88 -86h-14l-88 86l88 88h14z" />
    <glyph glyph-name="uniFC8A" unicode="&#xfee8;&#xfeae;" horiz-adv-x="1136" arabic-form="final" 
d="M68 -522l-11 -2q-73 0 -135 26q-66 28 -123 70v70l13 8q73 -27 116 -37q52 -12 105 -12q78 0 143 39q68 40 117 108q51 70 78 164q28 98 28 209q0 96 -24 219q-23 120 -68 246l6 10h90l33 -121l379 60v122h82v-311q0 -120 55 -172q54 -51 172 -51h13v-92l-31 -31h-2
q-143 0 -215 78t-72 239v93l-358 -56q22 -132 22 -227q0 -149 -32 -260q-35 -122 -89 -205q-56 -87 -131 -135q-76 -49 -161 -49zM854 1053l88 -88l-88 -86h-14l-88 86l88 88h14z" />
    <glyph glyph-name="uniFC8B" unicode="&#xfee8;&#xfeb0;" horiz-adv-x="1136" arabic-form="final" 
d="M68 -522l-11 -2q-73 0 -135 26q-66 28 -123 70v70l13 8q73 -27 116 -37q52 -12 105 -12q78 0 143 39q68 40 117 108q51 70 78 164q28 98 28 209q0 96 -24 219q-23 120 -68 246l6 10h90l33 -121l379 60v122h82v-311q0 -120 55 -172q54 -51 172 -51h13v-92l-31 -31h-2
q-143 0 -215 78t-72 239v93l-358 -56q22 -132 22 -227q0 -149 -32 -260q-35 -122 -89 -205q-56 -87 -131 -135q-76 -49 -161 -49zM213 991l88 -88l-88 -86h-14l-88 86l88 88h14zM752 1053l88 -88l-88 -86h-15l-88 86l88 88h15z" />
    <glyph glyph-name="uniFC8D" unicode="&#xfee8;&#xfee6;" horiz-adv-x="1828" arabic-form="final" 
d="M627 -424l-2 6q-258 0 -396 135q-137 134 -137 369q0 86 12 166q12 77 37 164h74v-13q-43 -157 -43 -286q0 -194 119 -301t334 -107q225 0 336 105q110 104 110 311q0 90 -18 213q-17 113 -49 246l4 10h92l24 -119l383 57v123h82v-311q0 -119 56 -172q54 -51 172 -51h12
v-92l-31 -31h-2q-143 3 -217 80t-74 239v93l-364 -58q18 -120 18 -209q0 -280 -135 -424q-134 -143 -397 -143zM547 764l88 -88l-88 -86h-15l-88 86l88 88h15zM1452 1061l88 -88l-88 -86h-14l-88 86l88 88h14z" />
    <glyph glyph-name="uniFC8E" unicode="&#xfee8;&#xfef0;" horiz-adv-x="1763" arabic-form="final" 
d="M1171 1055l89 -88l-89 -86h-14l-88 86l88 88h14zM721 -584v-6q-308 0 -467 129q-160 130 -160 404q0 75 10 157q8 67 25 146h74v-13q-15 -71 -21 -141t-6 -137q0 -212 143 -313t424 -101q117 0 228 19q98 17 180 49q77 30 121 74q43 43 43 96q0 58 -43 92t-148 61
l-151 43q-160 45 -225 101q-68 59 -68 162q0 74 43 147t113 131q64 53 157 94q84 37 176 37q94 0 154 -45q62 -47 113 -149l67 -140q19 -40 53 -94q19 -30 54 -61q27 -24 61 -33q31 -8 74 -8h22v-92l-30 -31h-13q-50 0 -94 12q-40 11 -80 43q-27 22 -69 78q-32 43 -68 117
l-59 121q-43 87 -92 124t-125 37q-72 0 -136 -20q-65 -20 -118 -55q-52 -34 -86 -80q-33 -44 -33 -92q0 -64 49 -101q43 -32 164 -69l151 -46q66 -19 123 -43q48 -21 80 -49q30 -27 45 -65t15 -90q0 -93 -52 -166q-51 -72 -141 -125t-211 -80q-132 -29 -266 -29z" />
    <glyph glyph-name="uniFC8F" unicode="&#xfee8;&#xfef2;" horiz-adv-x="1763" arabic-form="final" 
d="M1171 1055l89 -88l-89 -86h-14l-88 86l88 88h14zM627 -776l88 -88l-88 -86h-15l-88 86l88 88h15zM829 -776l89 -88l-89 -86h-14l-88 86l88 88h14zM721 -584v-6q-308 0 -467 129q-160 130 -160 404q0 75 10 157q8 67 25 146h74v-13q-15 -71 -21 -141t-6 -137
q0 -212 143 -313t424 -101q117 0 228 19q98 17 180 49q77 30 121 74q43 43 43 96q0 58 -43 92t-148 61l-151 43q-160 45 -225 101q-68 59 -68 162q0 74 43 147t113 131q64 53 157 94q84 37 176 37q94 0 154 -45q62 -47 113 -149l67 -140q19 -40 53 -94q19 -30 54 -61
q27 -24 61 -33q31 -8 74 -8h22v-92l-30 -31h-13q-50 0 -94 12q-40 11 -80 43q-27 22 -69 78q-32 43 -68 117l-59 121q-43 87 -92 124t-125 37q-72 0 -136 -20q-65 -20 -118 -55q-52 -34 -86 -80q-33 -44 -33 -92q0 -64 49 -101q43 -32 164 -69l151 -46q66 -19 123 -43
q48 -21 80 -49q30 -27 45 -65t15 -90q0 -93 -52 -166q-51 -72 -141 -125t-211 -80q-132 -29 -266 -29z" />
    <glyph glyph-name="uniFC91" unicode="&#xfef4;&#xfeae;" horiz-adv-x="1136" arabic-form="final" 
d="M68 -522l-11 -2q-73 0 -135 26q-66 28 -123 70v70l13 8q73 -27 116 -37q52 -12 105 -12q78 0 143 39q68 40 117 108q51 70 78 164q28 98 28 209q0 96 -24 219q-23 120 -68 246l6 10h90l33 -121l379 60v122h82v-311q0 -120 55 -172q54 -51 172 -51h13v-92l-31 -31h-2
q-143 0 -215 78t-72 239v93l-358 -56q22 -132 22 -227q0 -149 -32 -260q-35 -122 -89 -205q-56 -87 -131 -135q-76 -49 -161 -49zM760 -195l88 -88l-88 -86h-15l-88 86l88 88h15zM963 -195l88 -88l-88 -86h-15l-88 86l88 88h15z" />
    <glyph glyph-name="uniFC92" unicode="&#xfef4;&#xfeb0;" horiz-adv-x="1136" arabic-form="final" 
d="M68 -522l-11 -2q-73 0 -135 26q-66 28 -123 70v70l13 8q73 -27 116 -37q52 -12 105 -12q78 0 143 39q68 40 117 108q51 70 78 164q28 98 28 209q0 96 -24 219q-23 120 -68 246l6 10h90l33 -121l379 60v122h82v-311q0 -120 55 -172q54 -51 172 -51h13v-92l-31 -31h-2
q-143 0 -215 78t-72 239v93l-358 -56q22 -132 22 -227q0 -149 -32 -260q-35 -122 -89 -205q-56 -87 -131 -135q-76 -49 -161 -49zM760 -195l88 -88l-88 -86h-15l-88 86l88 88h15zM963 -195l88 -88l-88 -86h-15l-88 86l88 88h15zM315 991l88 -88l-88 -86h-14l-88 86l88 88h14
z" />
    <glyph glyph-name="uniFC94" unicode="&#xfef4;&#xfee6;" horiz-adv-x="1828" arabic-form="final" 
d="M627 -424l-2 6q-258 0 -396 135q-137 134 -137 369q0 86 12 166q12 77 37 164h74v-13q-43 -157 -43 -286q0 -194 119 -301t334 -107q225 0 336 105q110 104 110 311q0 90 -18 213q-17 113 -49 246l4 10h92l24 -119l383 57v123h82v-311q0 -119 56 -172q54 -51 172 -51h12
v-92l-31 -31h-2q-143 3 -217 80t-74 239v93l-364 -58q18 -120 18 -209q0 -280 -135 -424q-134 -143 -397 -143zM649 764l88 -88l-88 -86h-14l-88 86l88 88h14zM1462 -186l88 -88l-88 -86h-14l-88 86l88 88h14zM1665 -186l88 -88l-88 -86h-14l-88 86l88 88h14z" />
    <glyph glyph-name="uniFC95" unicode="&#xfef4;&#xfef0;" horiz-adv-x="1763" arabic-form="final" 
d="M1231 -629l88 -88l-88 -86h-14l-89 86l89 88h14zM1434 -629l88 -88l-88 -86h-15l-88 86l88 88h15zM721 -584v-6q-308 0 -467 129q-160 130 -160 404q0 75 10 157q8 67 25 146h74v-13q-15 -71 -21 -141t-6 -137q0 -212 143 -313t424 -101q117 0 228 19q98 17 180 49
q77 30 121 74q43 43 43 96q0 58 -43 92t-148 61l-151 43q-160 45 -225 101q-68 59 -68 162q0 74 43 147t113 131q64 53 157 94q84 37 176 37q94 0 154 -45q62 -47 113 -149l67 -140q19 -40 53 -94q19 -30 54 -61q27 -24 61 -33q31 -8 74 -8h22v-92l-30 -31h-13q-50 0 -94 12
q-40 11 -80 43q-27 22 -69 78q-32 43 -68 117l-59 121q-43 87 -92 124t-125 37q-72 0 -136 -20q-65 -20 -118 -55q-52 -34 -86 -80q-33 -44 -33 -92q0 -64 49 -101q43 -32 164 -69l151 -46q66 -19 123 -43q48 -21 80 -49q30 -27 45 -65t15 -90q0 -93 -52 -166
q-51 -72 -141 -125t-211 -80q-132 -29 -266 -29z" />
    <glyph glyph-name="uniFC96" unicode="&#xfef4;&#xfef2;" horiz-adv-x="1763" arabic-form="final" 
d="M424 -776l88 -88l-88 -86h-14l-88 86l88 88h14zM627 -776l88 -88l-88 -86h-15l-88 86l88 88h15zM1028 -629l88 -88l-88 -86h-14l-88 86l88 88h14zM1231 -629l88 -88l-88 -86h-14l-89 86l89 88h14zM721 -584v-6q-308 0 -467 129q-160 130 -160 404q0 75 10 157
q8 67 25 146h74v-13q-15 -71 -21 -141t-6 -137q0 -212 143 -313t424 -101q117 0 228 19q98 17 180 49q77 30 121 74q43 43 43 96q0 58 -43 92t-148 61l-151 43q-160 45 -225 101q-68 59 -68 162q0 74 43 147t113 131q64 53 157 94q84 37 176 37q94 0 154 -45
q62 -47 113 -149l67 -140q19 -40 53 -94q19 -30 54 -61q27 -24 61 -33q31 -8 74 -8h22v-92l-30 -31h-13q-50 0 -94 12q-40 11 -80 43q-27 22 -69 78q-32 43 -68 117l-59 121q-43 87 -92 124t-125 37q-72 0 -136 -20q-65 -20 -118 -55q-52 -34 -86 -80q-33 -44 -33 -92
q0 -64 49 -101q43 -32 164 -69l151 -46q66 -19 123 -43q48 -21 80 -49q30 -27 45 -65t15 -90q0 -93 -52 -166q-51 -72 -141 -125t-211 -80q-132 -29 -266 -29z" />
    <glyph glyph-name="uniFCCC" unicode="&#xfedf;&#xfee4;" horiz-adv-x="575" arabic-form="initial" 
d="M479 -92l-2 6q-61 30 -98 45q-57 24 -82 31q-45 13 -84 16q-58 4 -98 4h-148v92l31 31h117q50 0 73 -2q33 -3 68 -12l2 4q-17 45 -22 86q-7 54 -7 117v1204h97v-1204q0 -95 8 -142q8 -49 37 -98q29 -9 78 -31q19 -9 86 -43l92 -49l-54 -102z" />
    <glyph glyph-name="uniFCFB" unicode="&#xfeb3;&#xfef0;" horiz-adv-x="2498" arabic-form="isolated" 
d="M721 -584v-8q-308 0 -467 129q-160 130 -160 404q0 75 10 157q8 67 25 146h74v-13q-15 -71 -21 -141t-6 -137q0 -212 143 -313t424 -101q117 0 228 19q98 17 180 49q77 30 121 74q43 43 43 96q0 58 -43 92t-148 61l-151 43q-160 45 -225 101q-68 59 -68 162q0 74 43 147
t113 131q64 53 157 94q84 37 176 37q94 0 154 -45q63 -48 111 -149l67 -140q24 -49 58 -104q28 -44 57 -68q33 -27 65 -35q38 -10 80 -10q96 0 137 47q39 45 39 170v152h82v-141q0 -99 -14 -154q57 -72 162 -72q151 0 151 180q0 72 -8 132q-7 55 -31 170l7 10h86
q18 -121 22 -168q6 -68 6 -141q0 -145 -61 -224q-62 -80 -174 -80q-129 0 -201 97q-30 -52 -84 -74q-58 -23 -135 -23q-59 0 -105 15t-86 49q-36 30 -73 84q-31 45 -68 123l-59 121q-43 85 -92 122t-125 37q-72 0 -136 -20q-65 -20 -118 -55q-52 -34 -86 -80
q-33 -44 -33 -92q0 -64 49 -101q43 -32 164 -69l151 -46q66 -19 123 -43q48 -21 80 -49q30 -27 45 -65t15 -90q0 -93 -52 -166q-51 -72 -141 -125t-211 -80q-132 -29 -266 -29z" />
    <glyph glyph-name="uniFCFC" unicode="&#xfeb3;&#xfef2;" horiz-adv-x="2498" arabic-form="isolated" 
d="M721 -584v-8q-308 0 -467 129q-160 130 -160 404q0 75 10 157q8 67 25 146h74v-13q-15 -71 -21 -141t-6 -137q0 -212 143 -313t424 -101q117 0 228 19q98 17 180 49q77 30 121 74q43 43 43 96q0 58 -43 92t-148 61l-151 43q-160 45 -225 101q-68 59 -68 162q0 74 43 147
t113 131q64 53 157 94q84 37 176 37q94 0 154 -45q63 -48 111 -149l67 -140q24 -49 58 -104q28 -44 57 -68q33 -27 65 -35q38 -10 80 -10q96 0 137 47q39 45 39 170v152h82v-141q0 -99 -14 -154q57 -72 162 -72q151 0 151 180q0 72 -8 132q-7 55 -31 170l7 10h86
q18 -121 22 -168q6 -68 6 -141q0 -145 -61 -224q-62 -80 -174 -80q-129 0 -201 97q-30 -52 -84 -74q-58 -23 -135 -23q-59 0 -105 15t-86 49q-36 30 -73 84q-31 45 -68 123l-59 121q-43 85 -92 122t-125 37q-72 0 -136 -20q-65 -20 -118 -55q-52 -34 -86 -80
q-33 -44 -33 -92q0 -64 49 -101q43 -32 164 -69l151 -46q66 -19 123 -43q48 -21 80 -49q30 -27 45 -65t15 -90q0 -93 -52 -166q-51 -72 -141 -125t-211 -80q-132 -29 -266 -29zM627 -784l88 -88l-88 -86h-15l-88 86l88 88h15zM829 -784l89 -88l-89 -86h-14l-88 86l88 88h14z
" />
    <glyph glyph-name="uniFCFD" unicode="&#xfeb7;&#xfef0;" horiz-adv-x="2498" arabic-form="isolated" 
d="M721 -584v-8q-308 0 -467 129q-160 130 -160 404q0 75 10 157q8 67 25 146h74v-13q-15 -71 -21 -141t-6 -137q0 -212 143 -313t424 -101q117 0 228 19q98 17 180 49q77 30 121 74q43 43 43 96q0 58 -43 92t-148 61l-151 43q-160 45 -225 101q-68 59 -68 162q0 74 43 147
t113 131q64 53 157 94q84 37 176 37q94 0 154 -45q63 -48 111 -149l67 -140q24 -49 58 -104q28 -44 57 -68q33 -27 65 -35q38 -10 80 -10q96 0 137 47q39 45 39 170v152h82v-141q0 -99 -14 -154q57 -72 162 -72q151 0 151 180q0 72 -8 132q-7 55 -31 170l7 10h86
q18 -121 22 -168q6 -68 6 -141q0 -145 -61 -224q-62 -80 -174 -80q-129 0 -201 97q-30 -52 -84 -74q-58 -23 -135 -23q-59 0 -105 15t-86 49q-36 30 -73 84q-31 45 -68 123l-59 121q-43 85 -92 122t-125 37q-72 0 -136 -20q-65 -20 -118 -55q-52 -34 -86 -80
q-33 -44 -33 -92q0 -64 49 -101q43 -32 164 -69l151 -46q66 -19 123 -43q48 -21 80 -49q30 -27 45 -65t15 -90q0 -93 -52 -166q-51 -72 -141 -125t-211 -80q-132 -29 -266 -29zM1985 1057l83 -84l-83 -84h-15l-86 84l86 84h15zM1882 862l88 -88l-88 -86h-14l-88 86l88 88h14
zM2085 862l88 -88l-88 -86h-14l-89 86l89 88h14z" />
    <glyph glyph-name="uniFCFE" unicode="&#xfeb7;&#xfef2;" horiz-adv-x="2498" arabic-form="isolated" 
d="M721 -584v-8q-308 0 -467 129q-160 130 -160 404q0 75 10 157q8 67 25 146h74v-13q-15 -71 -21 -141t-6 -137q0 -212 143 -313t424 -101q117 0 228 19q98 17 180 49q77 30 121 74q43 43 43 96q0 58 -43 92t-148 61l-151 43q-160 45 -225 101q-68 59 -68 162q0 74 43 147
t113 131q64 53 157 94q84 37 176 37q94 0 154 -45q63 -48 111 -149l67 -140q24 -49 58 -104q28 -44 57 -68q33 -27 65 -35q38 -10 80 -10q96 0 137 47q39 45 39 170v152h82v-141q0 -99 -14 -154q57 -72 162 -72q151 0 151 180q0 72 -8 132q-7 55 -31 170l7 10h86
q18 -121 22 -168q6 -68 6 -141q0 -145 -61 -224q-62 -80 -174 -80q-129 0 -201 97q-30 -52 -84 -74q-58 -23 -135 -23q-59 0 -105 15t-86 49q-36 30 -73 84q-31 45 -68 123l-59 121q-43 85 -92 122t-125 37q-72 0 -136 -20q-65 -20 -118 -55q-52 -34 -86 -80
q-33 -44 -33 -92q0 -64 49 -101q43 -32 164 -69l151 -46q66 -19 123 -43q48 -21 80 -49q30 -27 45 -65t15 -90q0 -93 -52 -166q-51 -72 -141 -125t-211 -80q-132 -29 -266 -29zM627 -784l88 -88l-88 -86h-15l-88 86l88 88h15zM829 -784l89 -88l-89 -86h-14l-88 86l88 88h14z
M1985 1057l83 -84l-83 -84h-15l-86 84l86 84h15zM1882 862l88 -88l-88 -86h-14l-88 86l88 88h14zM2085 862l88 -88l-88 -86h-14l-89 86l89 88h14z" />
    <glyph glyph-name="uniFD05" unicode="&#xfebb;&#xfef0;" horiz-adv-x="2756" arabic-form="isolated" 
d="M2288 756l-2 -4q84 0 157 -31q70 -30 123 -86t80 -129q29 -79 29 -156t-31 -147q-29 -65 -86 -113q-58 -49 -135 -72q-79 -24 -178 -24h-525q-50 0 -94 12q-40 11 -80 43q-27 22 -69 78q-32 43 -68 117l-59 121q-42 85 -93 124q-49 37 -124 37q-72 0 -136 -20
q-65 -20 -118 -55q-52 -34 -86 -80q-33 -44 -33 -92q0 -64 49 -101q43 -32 164 -69l151 -46q66 -19 123 -43q48 -21 80 -49q30 -27 45 -65q14 -35 14 -90q0 -95 -51 -166q-51 -72 -141 -125t-211 -80q-132 -29 -266 -29q-308 0 -467 129q-160 130 -160 404q0 75 10 157
q8 67 25 146h74v-12q-15 -70 -21 -142q-6 -71 -6 -137q0 -212 143 -313t424 -101q117 0 228 19q98 17 180 49q77 30 121 74q43 43 43 96q0 58 -43 92q-45 35 -148 62l-151 43q-163 45 -226 100q-67 58 -67 162q0 74 43 147q44 75 112 131q63 52 158 94q84 37 176 37
q93 0 154 -43q62 -44 113 -149l67 -139q48 -95 92 -136l154 197q71 95 145 172q68 71 133 115q66 44 129 65q64 21 136 21zM2267 119v2q172 0 246 51q78 54 78 154q0 65 -25 123q-24 56 -67 96t-101 61q-64 23 -129 23q-61 0 -123 -19q-61 -19 -116 -57t-119 -102
q-49 -49 -131 -152l-123 -158l2 -8q32 -14 80 -14h528z" />
    <glyph glyph-name="uniFD06" unicode="&#xfebb;&#xfef2;" horiz-adv-x="2756" arabic-form="isolated" 
d="M2288 756l-2 -4q84 0 157 -31q70 -30 123 -86t80 -129q29 -79 29 -156t-31 -147q-29 -65 -86 -113q-58 -49 -135 -72q-79 -24 -178 -24h-525q-50 0 -94 12q-40 11 -80 43q-27 22 -69 78q-32 43 -68 117l-59 121q-42 85 -93 124q-49 37 -124 37q-72 0 -136 -20
q-65 -20 -118 -55q-52 -34 -86 -80q-33 -44 -33 -92q0 -64 49 -101q43 -32 164 -69l151 -46q66 -19 123 -43q48 -21 80 -49q30 -27 45 -65q14 -35 14 -90q0 -95 -51 -166q-51 -72 -141 -125t-211 -80q-132 -29 -266 -29q-308 0 -467 129q-160 130 -160 404q0 75 10 157
q8 67 25 146h74v-12q-15 -70 -21 -142q-6 -71 -6 -137q0 -212 143 -313t424 -101q117 0 228 19q98 17 180 49q77 30 121 74q43 43 43 96q0 58 -43 92q-45 35 -148 62l-151 43q-163 45 -226 100q-67 58 -67 162q0 74 43 147q44 75 112 131q63 52 158 94q84 37 176 37
q93 0 154 -43q62 -44 113 -149l67 -139q48 -95 92 -136l154 197q71 95 145 172q68 71 133 115q66 44 129 65q64 21 136 21zM2267 119v2q172 0 246 51q78 54 78 154q0 65 -25 123q-24 56 -67 96t-101 61q-64 23 -129 23q-61 0 -123 -19q-61 -19 -116 -57t-119 -102
q-49 -49 -131 -152l-123 -158l2 -8q32 -14 80 -14h528zM625 -778l88 -88l-88 -86h-15l-88 86l88 88h15zM827 -778l88 -88l-88 -86h-14l-88 86l88 88h14z" />
    <glyph glyph-name="uniFD07" unicode="&#xfebf;&#xfef0;" horiz-adv-x="2756" arabic-form="isolated" 
d="M2288 756l-2 -4q84 0 157 -31q70 -30 123 -86t80 -129q29 -79 29 -156t-31 -147q-29 -65 -86 -113q-58 -49 -135 -72q-79 -24 -178 -24h-525q-50 0 -94 12q-40 11 -80 43q-27 22 -69 78q-32 43 -68 117l-59 121q-42 85 -93 124q-49 37 -124 37q-72 0 -136 -20
q-65 -20 -118 -55q-52 -34 -86 -80q-33 -44 -33 -92q0 -64 49 -101q43 -32 164 -69l151 -46q66 -19 123 -43q48 -21 80 -49q30 -27 45 -65q14 -35 14 -90q0 -95 -51 -166q-51 -72 -141 -125t-211 -80q-132 -29 -266 -29q-308 0 -467 129q-160 130 -160 404q0 75 10 157
q8 67 25 146h74v-12q-15 -70 -21 -142q-6 -71 -6 -137q0 -212 143 -313t424 -101q117 0 228 19q98 17 180 49q77 30 121 74q43 43 43 96q0 58 -43 92q-45 35 -148 62l-151 43q-163 45 -226 100q-67 58 -67 162q0 74 43 147q44 75 112 131q63 52 158 94q84 37 176 37
q93 0 154 -43q62 -44 113 -149l67 -139q48 -95 92 -136l154 197q71 95 145 172q68 71 133 115q66 44 129 65q64 21 136 21zM2267 119v2q172 0 246 51q78 54 78 154q0 65 -25 123q-24 56 -67 96t-101 61q-64 23 -129 23q-61 0 -123 -19q-61 -19 -116 -57t-119 -102
q-49 -49 -131 -152l-123 -158l2 -8q32 -14 80 -14h528zM2210 1153l88 -88l-88 -86h-15l-88 86l88 88h15z" />
    <glyph glyph-name="uniFD08" unicode="&#xfebf;&#xfef2;" horiz-adv-x="2756" arabic-form="isolated" 
d="M2288 756l-2 -4q84 0 157 -31q70 -30 123 -86t80 -129q29 -79 29 -156t-31 -147q-29 -65 -86 -113q-58 -49 -135 -72q-79 -24 -178 -24h-525q-50 0 -94 12q-40 11 -80 43q-27 22 -69 78q-32 43 -68 117l-59 121q-42 85 -93 124q-49 37 -124 37q-72 0 -136 -20
q-65 -20 -118 -55q-52 -34 -86 -80q-33 -44 -33 -92q0 -64 49 -101q43 -32 164 -69l151 -46q66 -19 123 -43q48 -21 80 -49q30 -27 45 -65q14 -35 14 -90q0 -95 -51 -166q-51 -72 -141 -125t-211 -80q-132 -29 -266 -29q-308 0 -467 129q-160 130 -160 404q0 75 10 157
q8 67 25 146h74v-12q-15 -70 -21 -142q-6 -71 -6 -137q0 -212 143 -313t424 -101q117 0 228 19q98 17 180 49q77 30 121 74q43 43 43 96q0 58 -43 92q-45 35 -148 62l-151 43q-163 45 -226 100q-67 58 -67 162q0 74 43 147q44 75 112 131q63 52 158 94q84 37 176 37
q93 0 154 -43q62 -44 113 -149l67 -139q48 -95 92 -136l154 197q71 95 145 172q68 71 133 115q66 44 129 65q64 21 136 21zM2267 119v2q172 0 246 51q78 54 78 154q0 65 -25 123q-24 56 -67 96t-101 61q-64 23 -129 23q-61 0 -123 -19q-61 -19 -116 -57t-119 -102
q-49 -49 -131 -152l-123 -158l2 -8q32 -14 80 -14h528zM2210 1153l88 -88l-88 -86h-15l-88 86l88 88h15zM625 -778l88 -88l-88 -86h-15l-88 86l88 88h15zM827 -778l88 -88l-88 -86h-14l-88 86l88 88h14z" />
    <glyph glyph-name="uniFD0D" unicode="&#xfeb7;&#xfeae;" horiz-adv-x="1843" arabic-form="isolated" 
d="M68 -522l-13 -6q-73 0 -135 26q-66 28 -123 70v70l13 8q73 -27 116 -37q52 -12 105 -12q80 0 143 38q69 41 117 107q52 70 78 160q28 95 28 200q0 62 -12 142q-10 68 -35 151l4 11l482 61v-102q62 -265 262 -265q102 0 143 47q39 45 39 170v152h82v-141q0 -99 -14 -154
q27 -35 71 -53q46 -19 92 -19q152 0 152 181q0 71 -8 131q-7 55 -31 170l6 10h86q20 -139 23 -168q6 -68 6 -141q0 -144 -62 -224q-61 -79 -174 -79q-130 0 -200 94q-58 -94 -209 -94q-263 0 -357 356l-278 -37q9 -47 12 -94q4 -66 4 -88q0 -145 -32 -254q-36 -121 -89 -203
q-56 -87 -131 -135q-76 -49 -161 -49zM1307 1059l84 -84l-84 -84h-15l-86 84l86 84h15zM1204 864l88 -88l-88 -86h-14l-88 86l88 88h14zM1407 864l88 -88l-88 -86h-14l-88 86l88 88h14z" />
    <glyph glyph-name="uniFD0E" unicode="&#xfeb3;&#xfeae;" horiz-adv-x="1843" arabic-form="isolated" 
d="M68 -522l-13 -6q-73 0 -135 26q-66 28 -123 70v70l13 8q73 -27 116 -37q52 -12 105 -12q80 0 143 38q69 41 117 107q52 70 78 160q28 95 28 200q0 62 -12 142q-10 68 -35 151l4 11l482 61v-102q62 -265 262 -265q102 0 143 47q39 45 39 170v152h82v-141q0 -99 -14 -154
q27 -35 71 -53q46 -19 92 -19q152 0 152 181q0 71 -8 131q-7 55 -31 170l6 10h86q20 -139 23 -168q6 -68 6 -141q0 -144 -62 -224q-61 -79 -174 -79q-130 0 -200 94q-58 -94 -209 -94q-263 0 -357 356l-278 -37q9 -47 12 -94q4 -66 4 -88q0 -145 -32 -254q-36 -121 -89 -203
q-56 -87 -131 -135q-76 -49 -161 -49z" />
    <glyph glyph-name="uniFD0F" unicode="&#xfebb;&#xfeae;" horiz-adv-x="2115" arabic-form="isolated" 
d="M68 -522l-9 4q-73 0 -135 26q-66 28 -123 70v70l13 8q73 -27 116 -37q52 -12 105 -12q78 0 143 39q70 42 117 106q52 70 78 160q28 95 28 201q0 61 -12 141q-11 70 -35 152l4 10l482 61v-102q12 -85 34 -135q21 -45 62 -70l168 217q71 95 145 172q68 71 133 115
q66 44 129 65q65 21 136 21q84 0 157 -31q70 -30 123 -86t80 -129q29 -79 29 -156t-31 -147q-29 -65 -86 -113q-56 -47 -135 -71q-83 -25 -178 -25h-519q-145 0 -225 80q-78 78 -119 258l-278 -39q9 -47 12 -94q4 -66 4 -88q0 -145 -32 -254q-36 -121 -89 -203
q-56 -87 -131 -135q-76 -49 -161 -49zM1620 127l-2 2q172 0 246 51q78 54 78 154q0 65 -25 123q-24 55 -68 96t-100 61q-64 23 -129 23q-61 0 -123 -19t-117 -57q-52 -36 -118 -102q-54 -54 -132 -152l-126 -164l2 -6q52 -10 92 -10h522z" />
    <glyph glyph-name="uniFD10" unicode="&#xfebf;&#xfeae;" horiz-adv-x="2115" arabic-form="isolated" 
d="M68 -522l-9 4q-73 0 -135 26q-66 28 -123 70v70l13 8q73 -27 116 -37q52 -12 105 -12q78 0 143 39q70 42 117 106q52 70 78 160q28 95 28 201q0 61 -12 141q-11 70 -35 152l4 10l482 61v-102q12 -85 34 -135q21 -45 62 -70l168 217q71 95 145 172q68 71 133 115
q66 44 129 65q65 21 136 21q84 0 157 -31q70 -30 123 -86t80 -129q29 -79 29 -156t-31 -147q-29 -65 -86 -113q-56 -47 -135 -71q-83 -25 -178 -25h-519q-145 0 -225 80q-78 78 -119 258l-278 -39q9 -47 12 -94q4 -66 4 -88q0 -145 -32 -254q-36 -121 -89 -203
q-56 -87 -131 -135q-76 -49 -161 -49zM1620 127l-2 2q172 0 246 51q78 54 78 154q0 65 -25 123q-24 55 -68 96t-100 61q-64 23 -129 23q-61 0 -123 -19t-117 -57q-52 -36 -118 -102q-54 -54 -132 -152l-126 -164l2 -6q52 -10 92 -10h522zM1561 1161l88 -88l-88 -86h-15
l-88 86l88 88h15z" />
    <glyph glyph-name="uniFD17" unicode="&#xfeb4;&#xfef0;" horiz-adv-x="2654" arabic-form="final" 
d="M721 -584l-10 -20q-305 0 -467 131t-162 405q0 75 10 160q8 68 25 148h73v-15q-13 -63 -20 -141q-6 -70 -6 -135q0 -213 143 -314q144 -102 424 -102q122 0 227 18q106 18 181 52q78 35 121 78t43 96q0 58 -43 92t-148 61l-151 41q-161 45 -226 101q-67 58 -67 161
q0 75 43 148q44 75 112 131q63 52 158 94q84 37 176 37q94 0 154 -45q60 -46 112 -149l68 -140q28 -57 57 -104q27 -43 58 -68q33 -27 65 -35q38 -10 80 -10q96 0 137 47q39 45 39 170v152h82v-142q0 -98 -14 -153q57 -72 162 -72q87 0 122 47t35 170v213h82v-202
q0 -51 -2 -76q-3 -40 -6 -68q51 -33 115 -47q72 -16 145 -16v-90l-31 -33q-74 0 -145 22q-67 21 -117 62q-28 -54 -74 -78q-48 -25 -120 -25q-129 0 -201 97q-30 -52 -84 -74q-57 -23 -135 -23q-59 0 -105 15q-47 15 -84 49q-35 32 -71 84q-27 39 -70 123l-59 121
q-43 85 -92 122t-125 37q-72 0 -136 -20q-65 -20 -118 -55q-52 -34 -86 -80q-33 -44 -33 -93q0 -61 49 -98q50 -38 166 -72l151 -43q66 -19 123 -43q48 -21 80 -49q30 -27 45 -65t15 -90q0 -93 -52 -166q-51 -72 -141 -125t-211 -80q-132 -29 -266 -29z" />
    <glyph glyph-name="uniFD18" unicode="&#xfeb4;&#xfef2;" horiz-adv-x="2654" arabic-form="final" 
d="M721 -584l-10 -20q-305 0 -467 131t-162 405q0 75 10 160q8 68 25 148h73v-15q-13 -63 -20 -141q-6 -70 -6 -135q0 -213 143 -314q144 -102 424 -102q122 0 227 18q106 18 181 52q78 35 121 78t43 96q0 58 -43 92t-148 61l-151 41q-161 45 -226 101q-67 58 -67 161
q0 75 43 148q44 75 112 131q63 52 158 94q84 37 176 37q94 0 154 -45q60 -46 112 -149l68 -140q28 -57 57 -104q27 -43 58 -68q33 -27 65 -35q38 -10 80 -10q96 0 137 47q39 45 39 170v152h82v-142q0 -98 -14 -153q57 -72 162 -72q87 0 122 47t35 170v213h82v-202
q0 -51 -2 -76q-3 -40 -6 -68q51 -33 115 -47q72 -16 145 -16v-90l-31 -33q-74 0 -145 22q-67 21 -117 62q-28 -54 -74 -78q-48 -25 -120 -25q-129 0 -201 97q-30 -52 -84 -74q-57 -23 -135 -23q-59 0 -105 15q-47 15 -84 49q-35 32 -71 84q-27 39 -70 123l-59 121
q-43 85 -92 122t-125 37q-72 0 -136 -20q-65 -20 -118 -55q-52 -34 -86 -80q-33 -44 -33 -93q0 -61 49 -98q50 -38 166 -72l151 -43q66 -19 123 -43q48 -21 80 -49q30 -27 45 -65t15 -90q0 -93 -52 -166q-51 -72 -141 -125t-211 -80q-132 -29 -266 -29zM616 -797l89 -88
l-89 -86h-14l-88 86l88 88h14zM819 -797l88 -88l-88 -86h-14l-88 86l88 88h14z" />
    <glyph glyph-name="uniFD19" unicode="&#xfeb8;&#xfef0;" horiz-adv-x="2654" arabic-form="final" 
d="M721 -584l-10 -20q-305 0 -467 131t-162 405q0 75 10 160q8 68 25 148h73v-15q-13 -63 -20 -141q-6 -70 -6 -135q0 -213 143 -314q144 -102 424 -102q122 0 227 18q106 18 181 52q78 35 121 78t43 96q0 58 -43 92t-148 61l-151 41q-161 45 -226 101q-67 58 -67 161
q0 75 43 148q44 75 112 131q63 52 158 94q84 37 176 37q94 0 154 -45q60 -46 112 -149l68 -140q28 -57 57 -104q27 -43 58 -68q33 -27 65 -35q38 -10 80 -10q96 0 137 47q39 45 39 170v152h82v-142q0 -98 -14 -153q57 -72 162 -72q87 0 122 47t35 170v213h82v-202
q0 -51 -2 -76q-3 -40 -6 -68q51 -33 115 -47q72 -16 145 -16v-90l-31 -33q-74 0 -145 22q-67 21 -117 62q-28 -54 -74 -78q-48 -25 -120 -25q-129 0 -201 97q-30 -52 -84 -74q-57 -23 -135 -23q-59 0 -105 15q-47 15 -84 49q-35 32 -71 84q-27 39 -70 123l-59 121
q-43 85 -92 122t-125 37q-72 0 -136 -20q-65 -20 -118 -55q-52 -34 -86 -80q-33 -44 -33 -93q0 -61 49 -98q50 -38 166 -72l151 -43q66 -19 123 -43q48 -21 80 -49q30 -27 45 -65t15 -90q0 -93 -52 -166q-51 -72 -141 -125t-211 -80q-132 -29 -266 -29zM1974 1044l84 -83
l-84 -84h-14l-86 84l86 83h14zM1872 850l88 -88l-88 -86h-14l-89 86l89 88h14zM2075 850l88 -88l-88 -86h-15l-88 86l88 88h15z" />
    <glyph glyph-name="uniFD1A" unicode="&#xfeb8;&#xfef2;" horiz-adv-x="2654" arabic-form="final" 
d="M721 -584l-10 -20q-305 0 -467 131t-162 405q0 75 10 160q8 68 25 148h73v-15q-13 -63 -20 -141q-6 -70 -6 -135q0 -213 143 -314q144 -102 424 -102q122 0 227 18q106 18 181 52q78 35 121 78t43 96q0 58 -43 92t-148 61l-151 41q-161 45 -226 101q-67 58 -67 161
q0 75 43 148q44 75 112 131q63 52 158 94q84 37 176 37q94 0 154 -45q60 -46 112 -149l68 -140q28 -57 57 -104q27 -43 58 -68q33 -27 65 -35q38 -10 80 -10q96 0 137 47q39 45 39 170v152h82v-142q0 -98 -14 -153q57 -72 162 -72q87 0 122 47t35 170v213h82v-202
q0 -51 -2 -76q-3 -40 -6 -68q51 -33 115 -47q72 -16 145 -16v-90l-31 -33q-74 0 -145 22q-67 21 -117 62q-28 -54 -74 -78q-48 -25 -120 -25q-129 0 -201 97q-30 -52 -84 -74q-57 -23 -135 -23q-59 0 -105 15q-47 15 -84 49q-35 32 -71 84q-27 39 -70 123l-59 121
q-43 85 -92 122t-125 37q-72 0 -136 -20q-65 -20 -118 -55q-52 -34 -86 -80q-33 -44 -33 -93q0 -61 49 -98q50 -38 166 -72l151 -43q66 -19 123 -43q48 -21 80 -49q30 -27 45 -65t15 -90q0 -93 -52 -166q-51 -72 -141 -125t-211 -80q-132 -29 -266 -29zM616 -797l89 -88
l-89 -86h-14l-88 86l88 88h14zM819 -797l88 -88l-88 -86h-14l-88 86l88 88h14zM1974 1044l84 -83l-84 -84h-14l-86 84l86 83h14zM1872 850l88 -88l-88 -86h-14l-89 86l89 88h14zM2075 850l88 -88l-88 -86h-15l-88 86l88 88h15z" />
    <glyph glyph-name="uniFD21" unicode="&#xfebc;&#xfef0;" horiz-adv-x="2897" arabic-form="final" 
d="M2638 195l-2 -7q63 -40 129 -55q60 -14 133 -14v-96l-25 -27q-75 0 -149 24q-73 24 -150 89q-58 -52 -141 -82q-85 -31 -190 -31h-525q-50 0 -94 12q-40 11 -80 43q-27 22 -69 78q-32 43 -68 117l-59 121q-43 87 -93 125q-48 36 -125 36q-71 0 -135 -20q-65 -20 -118 -55
q-52 -34 -86 -80q-33 -44 -33 -92q0 -64 49 -101q43 -32 164 -69l151 -45q66 -19 123 -43q46 -20 80 -50q30 -27 45 -65q14 -35 14 -90q0 -95 -51 -166q-51 -72 -141 -125t-211 -80q-132 -29 -266 -29q-308 0 -467 129q-160 130 -160 404q0 76 10 158q8 65 25 145h74v-12
q-15 -70 -21 -142q-6 -71 -6 -137q0 -212 143 -313t424 -101q117 0 228 19q98 17 180 49q77 30 121 74q43 43 43 96q0 58 -43 92q-45 35 -148 62l-151 43q-163 45 -226 100q-67 58 -67 162q0 74 43 147q44 75 112 131q63 52 158 94q84 37 176 37q93 0 154 -43
q62 -44 113 -149l67 -139q48 -95 92 -136l154 197q71 95 145 172q68 71 133 115q66 44 129 65q64 21 136 21q84 0 157 -31q70 -30 123 -86t80 -129q29 -79 29 -156q0 -91 -37 -161zM2267 117v2q172 0 246 51q78 54 78 154q0 64 -25 122t-67 97q-43 40 -101 61
q-64 23 -129 23q-61 0 -123 -19q-61 -19 -116 -57t-119 -102q-49 -49 -131 -152l-123 -158l2 -8q32 -14 80 -14h528z" />
    <glyph glyph-name="uniFD22" unicode="&#xfebc;&#xfef2;" horiz-adv-x="2897" arabic-form="final" 
d="M2638 195l-2 -7q63 -40 129 -55q60 -14 133 -14v-96l-25 -27q-75 0 -149 24q-73 24 -150 89q-58 -52 -141 -82q-85 -31 -190 -31h-525q-50 0 -94 12q-40 11 -80 43q-27 22 -69 78q-32 43 -68 117l-59 121q-43 87 -93 125q-48 36 -125 36q-71 0 -135 -20q-65 -20 -118 -55
q-52 -34 -86 -80q-33 -44 -33 -92q0 -64 49 -101q43 -32 164 -69l151 -45q66 -19 123 -43q46 -20 80 -50q30 -27 45 -65q14 -35 14 -90q0 -95 -51 -166q-51 -72 -141 -125t-211 -80q-132 -29 -266 -29q-308 0 -467 129q-160 130 -160 404q0 76 10 158q8 65 25 145h74v-12
q-15 -70 -21 -142q-6 -71 -6 -137q0 -212 143 -313t424 -101q117 0 228 19q98 17 180 49q77 30 121 74q43 43 43 96q0 58 -43 92q-45 35 -148 62l-151 43q-163 45 -226 100q-67 58 -67 162q0 74 43 147q44 75 112 131q63 52 158 94q84 37 176 37q93 0 154 -43
q62 -44 113 -149l67 -139q48 -95 92 -136l154 197q71 95 145 172q68 71 133 115q66 44 129 65q64 21 136 21q84 0 157 -31q70 -30 123 -86t80 -129q29 -79 29 -156q0 -91 -37 -161zM2267 117v2q172 0 246 51q78 54 78 154q0 64 -25 122t-67 97q-43 40 -101 61
q-64 23 -129 23q-61 0 -123 -19q-61 -19 -116 -57t-119 -102q-49 -49 -131 -152l-123 -158l2 -8q32 -14 80 -14h528zM625 -780l88 -88l-88 -86h-15l-88 86l88 88h15zM827 -780l88 -88l-88 -86h-14l-88 86l88 88h14z" />
    <glyph glyph-name="uniFD23" unicode="&#xfec0;&#xfef0;" horiz-adv-x="2897" arabic-form="final" 
d="M2638 195l-2 -7q63 -40 129 -55q60 -14 133 -14v-96l-25 -27q-75 0 -149 24q-73 24 -150 89q-58 -52 -141 -82q-85 -31 -190 -31h-525q-50 0 -94 12q-40 11 -80 43q-27 22 -69 78q-32 43 -68 117l-59 121q-43 87 -93 125q-48 36 -125 36q-71 0 -135 -20q-65 -20 -118 -55
q-52 -34 -86 -80q-33 -44 -33 -92q0 -64 49 -101q43 -32 164 -69l151 -45q66 -19 123 -43q46 -20 80 -50q30 -27 45 -65q14 -35 14 -90q0 -95 -51 -166q-51 -72 -141 -125t-211 -80q-132 -29 -266 -29q-308 0 -467 129q-160 130 -160 404q0 76 10 158q8 65 25 145h74v-12
q-15 -70 -21 -142q-6 -71 -6 -137q0 -212 143 -313t424 -101q117 0 228 19q98 17 180 49q77 30 121 74q43 43 43 96q0 58 -43 92q-45 35 -148 62l-151 43q-163 45 -226 100q-67 58 -67 162q0 74 43 147q44 75 112 131q63 52 158 94q84 37 176 37q93 0 154 -43
q62 -44 113 -149l67 -139q48 -95 92 -136l154 197q71 95 145 172q68 71 133 115q66 44 129 65q64 21 136 21q84 0 157 -31q70 -30 123 -86t80 -129q29 -79 29 -156q0 -91 -37 -161zM2267 117v2q172 0 246 51q78 54 78 154q0 64 -25 122t-67 97q-43 40 -101 61
q-64 23 -129 23q-61 0 -123 -19q-61 -19 -116 -57t-119 -102q-49 -49 -131 -152l-123 -158l2 -8q32 -14 80 -14h528zM2210 1151l88 -88l-88 -86h-15l-88 86l88 88h15z" />
    <glyph glyph-name="uniFD24" unicode="&#xfec0;&#xfef2;" horiz-adv-x="2897" arabic-form="final" 
d="M2638 195l-2 -7q63 -40 129 -55q60 -14 133 -14v-96l-25 -27q-75 0 -149 24q-73 24 -150 89q-58 -52 -141 -82q-85 -31 -190 -31h-525q-50 0 -94 12q-40 11 -80 43q-27 22 -69 78q-32 43 -68 117l-59 121q-43 87 -93 125q-48 36 -125 36q-71 0 -135 -20q-65 -20 -118 -55
q-52 -34 -86 -80q-33 -44 -33 -92q0 -64 49 -101q43 -32 164 -69l151 -45q66 -19 123 -43q46 -20 80 -50q30 -27 45 -65q14 -35 14 -90q0 -95 -51 -166q-51 -72 -141 -125t-211 -80q-132 -29 -266 -29q-308 0 -467 129q-160 130 -160 404q0 76 10 158q8 65 25 145h74v-12
q-15 -70 -21 -142q-6 -71 -6 -137q0 -212 143 -313t424 -101q117 0 228 19q98 17 180 49q77 30 121 74q43 43 43 96q0 58 -43 92q-45 35 -148 62l-151 43q-163 45 -226 100q-67 58 -67 162q0 74 43 147q44 75 112 131q63 52 158 94q84 37 176 37q93 0 154 -43
q62 -44 113 -149l67 -139q48 -95 92 -136l154 197q71 95 145 172q68 71 133 115q66 44 129 65q64 21 136 21q84 0 157 -31q70 -30 123 -86t80 -129q29 -79 29 -156q0 -91 -37 -161zM2267 117v2q172 0 246 51q78 54 78 154q0 64 -25 122t-67 97q-43 40 -101 61
q-64 23 -129 23q-61 0 -123 -19q-61 -19 -116 -57t-119 -102q-49 -49 -131 -152l-123 -158l2 -8q32 -14 80 -14h528zM2210 1151l88 -88l-88 -86h-15l-88 86l88 88h15zM625 -780l88 -88l-88 -86h-15l-88 86l88 88h15zM827 -780l88 -88l-88 -86h-14l-88 86l88 88h14z" />
    <glyph glyph-name="uniFD29" unicode="&#xfeb8;&#xfeae;" horiz-adv-x="1994" arabic-form="final" 
d="M68 -522l-15 -6q-73 0 -135 26q-66 28 -123 70v70l12 8q71 -27 117 -37q52 -12 105 -12q80 0 143 38q69 41 117 107q52 70 78 160q28 95 28 200q0 62 -12 142q-10 68 -35 151l4 11l482 61v-102q62 -265 266 -265q100 0 141 47q39 45 39 170v152h82v-141q0 -99 -14 -154
q54 -72 165 -72q84 0 117 45q33 44 33 172v213h82v-202q0 -82 -12 -144q51 -33 114 -47q72 -16 146 -16v-88l-31 -35q-71 0 -145 23q-68 21 -117 61q-52 -102 -187 -102q-65 0 -118 24q-49 23 -86 72q-59 -96 -209 -96q-263 0 -357 356l-278 -37q9 -47 12 -94q4 -66 4 -88
q0 -145 -32 -254q-36 -121 -89 -203q-56 -87 -131 -135q-76 -49 -161 -49zM1315 1059l84 -84l-84 -84h-15l-86 84l86 84h15zM1212 864l88 -88l-88 -86h-14l-88 86l88 88h14zM1415 864l88 -88l-88 -86h-14l-88 86l88 88h14z" />
    <glyph glyph-name="uniFD2A" unicode="&#xfeb4;&#xfeae;" horiz-adv-x="1994" arabic-form="final" 
d="M68 -522l-15 -6q-73 0 -135 26q-66 28 -123 70v70l12 8q71 -27 117 -37q52 -12 105 -12q80 0 143 38q69 41 117 107q52 70 78 160q28 95 28 200q0 62 -12 142q-10 68 -35 151l4 11l482 61v-102q62 -265 266 -265q100 0 141 47q39 45 39 170v152h82v-141q0 -99 -14 -154
q54 -72 165 -72q84 0 117 45q33 44 33 172v213h82v-202q0 -82 -12 -144q51 -33 114 -47q72 -16 146 -16v-88l-31 -35q-71 0 -145 23q-68 21 -117 61q-52 -102 -187 -102q-65 0 -118 24q-49 23 -86 72q-59 -96 -209 -96q-263 0 -357 356l-278 -37q9 -47 12 -94q4 -66 4 -88
q0 -145 -32 -254q-36 -121 -89 -203q-56 -87 -131 -135q-76 -49 -161 -49z" />
    <glyph glyph-name="uniFD2B" unicode="&#xfebc;&#xfeae;" horiz-adv-x="2256" arabic-form="final" 
d="M68 -522l-5 2q-73 0 -135 26q-66 28 -123 70v70l13 8q73 -27 116 -37q52 -12 105 -12q78 0 143 39q70 42 117 106q52 70 78 160q29 98 29 201q0 55 -13 141q-10 68 -35 151l4 11l482 61v-102q11 -82 35 -135q21 -46 61 -70l168 217q71 95 145 172q68 71 133 115t130 65
q64 21 135 21q84 0 157 -31q70 -30 123 -86t80 -129q29 -79 29 -156q0 -89 -39 -157q71 -47 133 -62q57 -14 127 -14v-96l-25 -27q-72 0 -149 25q-71 23 -150 90q-58 -52 -141 -82q-85 -31 -190 -31h-519q-145 0 -225 80q-78 78 -119 258l-278 -39q9 -47 12 -94q4 -66 4 -88
q0 -145 -32 -254q-36 -121 -89 -203q-56 -87 -131 -135q-76 -49 -161 -49zM1624 125l-2 2q172 0 246 51q78 54 78 154q0 65 -25 123q-24 55 -68 96t-100 61q-64 23 -129 23q-61 0 -123 -19t-117 -57q-52 -36 -118 -102q-49 -49 -131 -152l-127 -164l2 -6q52 -10 92 -10h522z
" />
    <glyph glyph-name="uniFD2C" unicode="&#xfec0;&#xfeae;" horiz-adv-x="2256" arabic-form="final" 
d="M68 -522l-5 2q-73 0 -135 26q-66 28 -123 70v70l13 8q73 -27 116 -37q52 -12 105 -12q78 0 143 39q70 42 117 106q52 70 78 160q29 98 29 201q0 55 -13 141q-10 68 -35 151l4 11l482 61v-102q11 -82 35 -135q21 -46 61 -70l168 217q71 95 145 172q68 71 133 115t130 65
q64 21 135 21q84 0 157 -31q70 -30 123 -86t80 -129q29 -79 29 -156q0 -89 -39 -157q71 -47 133 -62q57 -14 127 -14v-96l-25 -27q-72 0 -149 25q-71 23 -150 90q-58 -52 -141 -82q-85 -31 -190 -31h-519q-145 0 -225 80q-78 78 -119 258l-278 -39q9 -47 12 -94q4 -66 4 -88
q0 -145 -32 -254q-36 -121 -89 -203q-56 -87 -131 -135q-76 -49 -161 -49zM1624 125l-2 2q172 0 246 51q78 54 78 154q0 65 -25 123q-24 55 -68 96t-100 61q-64 23 -129 23q-61 0 -123 -19t-117 -57q-52 -36 -118 -102q-49 -49 -131 -152l-127 -164l2 -6q52 -10 92 -10h522z
M1565 1159l88 -88l-88 -86h-15l-88 86l88 88h15z" />
    <glyph glyph-name="uniFDF2" unicode="&#x627;&#xfedf;&#xfee0;&#xfeea;" horiz-adv-x="2480" arabic-form="isolated" 
d="M1266 2048v-371h-66v371h66zM1114 1303l-4 2q-56 0 -86 30q-31 31 -31 90q0 7 4 43q3 27 13 50h55v-13l-6 -30q-2 -10 -2 -29q0 -64 61 -64q44 0 64 33t20 105v82h60v-103q29 -20 67 -20q68 0 68 67q0 40 -23 117v12h62q13 -50 16 -67q6 -34 6 -66q0 -63 -26 -102
q-27 -41 -93 -41q-50 0 -86 28q-27 -124 -139 -124zM2302 1528v-1526h-96v1526h96zM920 -18l-17 -7q-134 3 -198 70q-65 68 -80 184l-2 2q-58 -70 -131 -100q-76 -31 -154 -31q-66 0 -119 21q-50 20 -88 55q-37 34 -55 80q-19 49 -19 98q0 108 80 191q81 84 236 172l248 143
v152h86v-670q0 -115 53 -180q52 -64 182 -64q70 0 139 29q63 27 117 74q-18 65 -18 147v844h96v-844q0 -121 59 -186q58 -64 189 -64q120 0 176 62q55 61 55 182v1040h96v-1040q0 -191 -82 -276q-83 -86 -241 -86q-118 0 -191 40q-72 40 -110 117q-50 -67 -129 -112
q-76 -43 -178 -43zM342 221h-2q82 0 152 25t120 69v441l-213 -115q-77 -42 -125 -74q-52 -35 -81 -63q-30 -30 -46 -62q-14 -28 -14 -65q0 -76 62 -117q59 -39 147 -39z" />
    <glyph glyph-name="uniFEF5" unicode="&#xfedf;&#xfe82;" horiz-adv-x="1036" arabic-form="isolated" 
d="M774 618h2q99 -95 139 -161q43 -70 43 -156q0 -141 -92 -221t-248 -80h-532v117l547 479l-547 491v127l10 7l613 -543q44 67 63 160t19 231v457h96v-457q0 -83 -6 -147q-5 -55 -19 -119q-12 -54 -33 -98q-22 -45 -55 -87zM616 123v2q123 0 191 47q67 46 67 123
q0 52 -43 104q-51 61 -137 142l-465 -414v-4h387zM84 1366l-2 -2q21 24 55 39q32 14 70 14q29 0 59 -6q10 -2 31 -6t31 -6q9 -2 27.5 -6.5t27.5 -6.5q27 -6 55 -6q59 0 97 23h12v-66q-20 -14 -49 -24q-24 -8 -62 -8q-35 0 -65 6q-7 1 -19.5 3.5l-22.5 4.5t-18 4
q-45 10 -53 12q-24 6 -51 6q-32 0 -62 -10q-29 -10 -47 -31h-14v66z" />
    <glyph glyph-name="uniFEF6" unicode="&#xfee0;&#xfe82;" horiz-adv-x="1150" arabic-form="final" 
d="M350 -14h-4q-78 0 -151 6q-84 7 -146 20v97h279q50 0 73 2q46 4 66 6l-264 1126v12h102l262 -1124q155 39 246 143q-4 28 -4 39v41v1172h96v-1161q0 -129 56 -185q55 -55 188 -55v-92l-31 -31q-236 3 -289 197q-83 -115 -196 -164t-283 -49zM2 1448l-2 -2q21 24 55 39
q32 14 70 14q29 0 59 -6q10 -2 31 -6t31 -6q9 -2 27.5 -6.5t27.5 -6.5q27 -6 55 -6q59 0 97 23h12v-66q-20 -14 -49 -24q-27 -9 -62 -9q-30 0 -65 7l-60 12q-45 10 -53 12q-24 6 -51 6q-32 0 -62 -10q-29 -10 -47 -31h-14v66z" />
    <glyph glyph-name="uniFEF7" unicode="&#xfedf;&#xfe84;" horiz-adv-x="1036" arabic-form="isolated" 
d="M774 618h2q99 -95 139 -161q43 -70 43 -156q0 -141 -92 -221t-248 -80h-532v117l547 479l-547 491v127l10 7l613 -543q44 67 63 160t19 231v457h96v-457q0 -83 -6 -147q-5 -55 -19 -119q-12 -54 -33 -98q-22 -45 -55 -87zM616 123v2q123 0 191 47q67 46 67 123
q0 52 -43 104q-51 61 -137 142l-465 -414v-4h387zM203 1401v4q-16 23 -25 49q-8 24 -8 49q0 40 14 68t41 55q23 23 60 39q32 14 73 14q111 0 111 -110v-43h-59v18q0 60 -64 60q-43 0 -80 -29q-35 -27 -35 -68q0 -24 17 -55q14 -25 43 -51h213v-76h-377v76h76z" />
    <glyph glyph-name="uniFEF8" unicode="&#xfee0;&#xfe84;" horiz-adv-x="1150" arabic-form="final" 
d="M350 -14h-4q-78 0 -151 6q-84 7 -146 20v97h279q50 0 73 2q46 4 66 6l-264 1126v12h102l262 -1124q155 39 246 143q-4 28 -4 39v41v1172h96v-1161q0 -129 56 -185q55 -55 188 -55v-92l-31 -31q-236 3 -289 197q-83 -115 -196 -164t-283 -49zM119 1483v4q-16 23 -25 49
q-8 24 -8 49q0 40 14 68t41 55q23 23 60 39q32 14 73 14q111 0 111 -110v-43h-59v18q0 60 -64 60q-43 0 -80 -29q-35 -27 -35 -68q0 -24 17 -55q14 -25 43 -51h213v-76h-377v76h76z" />
    <glyph glyph-name="uniFEF9" unicode="&#xfedf;&#xfe88;" horiz-adv-x="1036" arabic-form="isolated" 
d="M774 618h2q99 -95 139 -161q43 -70 43 -156q0 -141 -92 -221t-248 -80h-532v117l547 479l-547 491v127l10 7l613 -543q44 67 63 160t19 231v457h96v-457q0 -83 -6 -147q-5 -55 -19 -119q-12 -54 -33 -98q-22 -45 -55 -87zM616 123v2q123 0 191 47q67 46 67 123
q0 52 -43 104q-51 61 -137 142l-465 -414v-4h387zM227 -403v4q-14 20 -24 49q-8 24 -8 49q0 40 14 68t41 55q24 24 59 39q32 14 74 14q111 0 111 -111v-43h-60v19q0 59 -63 59q-44 0 -80 -28q-35 -27 -35 -68q0 -26 16 -55q14 -25 43 -51h213v-76h-376v76h75z" />
    <glyph glyph-name="uniFEFA" unicode="&#xfee0;&#xfe88;" horiz-adv-x="1150" arabic-form="final" 
d="M350 -14h-4q-78 0 -151 6q-84 7 -146 20v97h279q50 0 73 2q46 4 66 6l-264 1126v12h102l262 -1124q155 39 246 143q-4 28 -4 39v41v1172h96v-1161q0 -129 56 -185q55 -55 188 -55v-92l-31 -31q-236 3 -289 197q-83 -115 -196 -164t-283 -49zM385 -406v5q-16 23 -25 49
q-8 24 -8 49q0 37 15 67t41 56q24 24 59 39q32 14 74 14q110 0 110 -111v-43h-59v19q0 59 -64 59q-43 0 -79 -28q-35 -27 -35 -68q0 -26 16 -55q15 -27 43 -52h213v-75h-377v75h76z" />
    <glyph glyph-name="uniFEFB" unicode="&#xfedf;&#xfe8e;" horiz-adv-x="1036" arabic-form="isolated" 
d="M774 618h2q99 -95 139 -161q43 -70 43 -156q0 -141 -92 -221t-248 -80h-532v117l547 479l-547 491v127l10 7l613 -543q44 67 63 160t19 231v457h96v-457q0 -83 -6 -147q-5 -55 -19 -119q-12 -54 -33 -98q-22 -45 -55 -87zM616 123v2q123 0 191 47q67 46 67 123
q0 52 -43 104q-51 61 -137 142l-465 -414v-4h387z" />
    <glyph glyph-name="uniFEFC" unicode="&#xfee0;&#xfe8e;" horiz-adv-x="1150" arabic-form="final" 
d="M350 -14h-4q-78 0 -151 6q-84 7 -146 20v97h279q50 0 73 2q46 4 66 6l-264 1126v12h102l262 -1124q155 39 246 143q-4 28 -4 39v41v1172h96v-1161q0 -129 56 -185q55 -55 188 -55v-92l-31 -31q-236 3 -289 197q-83 -115 -196 -164t-283 -49z" />
    <glyph glyph-name="f_b" unicode="fb" horiz-adv-x="1681" 
d="M1065 74l-8 2q202 0 305 106q104 107 104 328q0 211 -98 309q-99 99 -281 99h-63v59q22 7 55 10q50 4 76 4q205 0 322 -123q116 -122 116 -344q0 -254 -135 -389t-383 -135h-282v1370q0 24 -7 45q-7 20 -24 29q-18 9 -55 12q-50 4 -101 4q-140 0 -198 -49t-58 -182v-256
h250v-74h-250v-788q0 -43 39 -43h135v-70h-438v70h109q38 0 38 43v788h-167v74h129q38 0 38 43v151q0 194 95 283q96 90 270 90q84 0 154 -6q77 -7 118 -14q43 -9 43 -50v-1396h152z" />
    <glyph glyph-name="f_f" unicode="ff" horiz-adv-x="1226" 
d="M678 70l104 -4q39 0 39 43v788h-475v-788q0 -43 39 -43h135v-70h-438v70h108q39 0 39 43v788h-168v74h129q39 0 39 43v160q0 174 82 268q84 96 234 96q31 0 71 -4q27 -3 56 -10v-97h-15q-22 9 -57 15q-38 6 -84 6q-92 0 -129 -49t-37 -166v-260h436q39 0 39 43v160
q0 174 82 268q84 96 230 96q31 0 71 -4q27 -3 56 -10v-96h-15q-18 8 -57 14q-38 6 -84 6q-92 0 -129 -49t-37 -166v-260h248v-74h-248v-788q0 -43 39 -43h135v-70h-438v70z" />
    <glyph glyph-name="f_h" unicode="fh" horiz-adv-x="1722" 
d="M86 70h107q38 0 38 43v788h-168v74h130q38 0 38 43v151q0 194 95 283q96 90 270 90q84 0 154 -6q77 -7 118 -14q43 -9 43 -49v-611h7q49 49 133 92q80 41 182 41q280 0 280 -280v-602q0 -43 41 -43h109v-70h-414v70h111q39 0 39 43v575q0 115 -51 166t-160 51
q-87 0 -160 -37t-119 -86v-669q0 -43 39 -43h109v-70h-412v70h109q39 0 39 43v1259q0 24 -7 45q-7 20 -24 29q-18 9 -55 12q-50 4 -101 4q-140 0 -198 -49t-58 -182v-256h250v-74h-250v-788q0 -43 39 -43h119v-70h-422v70z" />
    <glyph glyph-name="f_j" unicode="fj" horiz-adv-x="1142" 
d="M86 70l104 -2q39 0 39 43v788h-168v74h129q39 0 39 43v160q0 174 82 268q84 96 234 96q31 0 71 -4q27 -3 56 -10v-96h-15q-18 8 -57 14q-38 6 -84 6q-92 0 -129 -49t-37 -166v-260h547q39 0 39 -43v-1088q0 -141 -82 -223t-236 -82v72q103 0 152 55t49 174v1018
q0 43 -39 43h-430v-788q0 -43 39 -43h135v-70h-438v70zM786 1290v-4q0 84 82 84q42 0 62 -20q22 -22 22 -62q0 -39 -22 -61q-21 -21 -62 -21q-82 0 -82 84z" />
    <glyph glyph-name="f_k" unicode="fk" horiz-adv-x="1617" 
d="M934 510l319 321l23 23q12 12 12 25q0 22 -31 22h-96v70h402v-70h-39q-48 0 -88 -16q-33 -13 -76 -56l-303 -297l379 -393q33 -33 73 -51q38 -17 93 -20v-70h-70q-64 0 -113 22q-42 19 -86 66zM84 68h104q39 0 39 43v788h-168v74h129q39 0 39 43v151q0 194 95 283
q96 90 270 90q82 0 153 -6q79 -7 119 -14q43 -9 43 -50v-1357q0 -43 39 -43h109v-70h-412v70h109q39 0 39 43v1257q0 24 -7 45q-7 20 -24 29q-18 9 -55 12q-50 4 -101 4q-140 0 -198 -49t-58 -182v-256h250v-74h-250v-788q0 -43 39 -43h119v-70h-422v70z" />
    <glyph glyph-name="f_f_b" unicode="ffb" horiz-adv-x="2273" 
d="M1655 74h-13q205 0 308 106q104 107 104 328q0 211 -98 309t-281 98h-63v60q22 7 55 10q50 4 76 4q204 0 321 -123t117 -344q0 -254 -135 -389t-383 -135h-281v1370q0 27 -6 45q-7 21 -26 29q-21 9 -58 12q-50 4 -100 4q-141 0 -199 -49q-57 -48 -57 -182v-256h248v-74
h-248v-788q0 -43 39 -43h131v-70h-434v70h108q39 0 39 43v788h-475v-788q0 -43 39 -43h135v-70h-438v70h108q39 0 39 43v788h-168v74h129q39 0 39 43v160q0 174 82 268q84 96 234 96q31 0 71 -4q27 -3 56 -10v-97h-15q-22 9 -57 15q-38 6 -84 6q-92 0 -129 -49t-37 -166
v-260h436q39 0 39 43v151q0 194 95 283q96 90 270 90q82 0 153 -6q83 -7 121 -14q43 -9 43 -50v-1396h150z" />
    <glyph glyph-name="f_f_h" unicode="ffh" horiz-adv-x="2314" 
d="M678 70l102 -2q39 0 39 43v788h-475v-788q0 -43 39 -43h135v-70h-438v70h108q39 0 39 43v788h-168v74h129q39 0 39 43v160q0 174 82 268q84 96 234 96q31 0 71 -4q27 -3 56 -10v-96h-15q-18 8 -57 14q-38 6 -84 6q-92 0 -129 -49t-37 -166v-260h436q39 0 39 43v151
q0 194 95 283q96 90 270 90q82 0 153 -6q83 -7 121 -14q43 -9 43 -49v-611h6q48 48 134 92q77 39 182 39q280 0 280 -280v-600q0 -43 39 -43h111v-70h-414v70h109q41 0 41 43v575q0 116 -51 164q-52 49 -160 49q-88 0 -160 -35q-70 -34 -117 -84v-669q0 -43 39 -43h109v-70
h-412v70h109q39 0 39 43v1259q0 24 -7 45t-26 29q-21 9 -58 12q-50 4 -100 4q-141 0 -199 -49q-57 -48 -57 -182v-256h248v-74h-248v-788q0 -43 39 -43h119v-70h-422v70z" />
    <glyph glyph-name="f_f_i" unicode="ffi" horiz-adv-x="1755" 
d="M1270 70l104 -4q39 0 39 43v745q0 43 -39 43h-436v-788q0 -43 39 -43h135v-70h-438v70h108q39 0 39 43v788h-475v-788q0 -43 39 -43h135v-70h-438v70h108q39 0 39 43v788h-168v74h129q39 0 39 43v160q0 174 82 268q84 96 234 96q31 0 71 -4q27 -3 56 -10v-97h-15
q-22 9 -57 15q-38 6 -84 6q-92 0 -129 -49t-37 -166v-260h436q39 0 39 43v160q0 174 82 268q84 96 230 96q31 0 71 -4q27 -3 56 -10v-96h-15q-18 8 -57 14q-38 6 -84 6q-92 0 -129 -49t-37 -166v-260h553q39 0 39 -43v-819q0 -43 39 -43h108v-70h-411v70zM1382 1288v-4
q0 39 23 62q22 22 61 22q42 0 62 -20q22 -22 22 -62q0 -39 -22 -61q-21 -21 -62 -21q-38 0 -61 23t-23 61z" />
    <glyph glyph-name="f_f_j" unicode="ffj" horiz-adv-x="1734" 
d="M678 70l104 -4q39 0 39 43v788h-475v-788q0 -43 39 -43h135v-70h-438v70h108q39 0 39 43v788h-168v74h129q39 0 39 43v160q0 174 82 268q84 96 234 96q31 0 71 -4q27 -3 56 -10v-97h-15q-22 9 -57 15q-38 6 -84 6q-92 0 -129 -49t-37 -166v-260h436q39 0 39 43v160
q0 174 82 268q84 96 230 96q31 0 71 -4q27 -3 56 -10v-96h-15q-18 8 -57 14q-38 6 -84 6q-92 0 -129 -49t-37 -166v-260h547q39 0 39 -43v-1088q0 -141 -82 -223t-236 -82v72q103 0 152 55t49 174v1018q0 43 -39 43h-430v-788q0 -43 39 -43h135v-70h-438v70zM1376 1288v-4
q0 39 23 62q22 22 61 22q42 0 62 -20q22 -22 22 -62q0 -39 -22 -61q-21 -21 -62 -21q-38 0 -61 23t-23 61z" />
    <glyph glyph-name="f_f_k" unicode="ffk" horiz-adv-x="2209" 
d="M678 70l102 -2q39 0 39 43v788h-475v-788q0 -43 39 -43h135v-70h-438v70h108q39 0 39 43v788h-168v74h129q39 0 39 43v160q0 174 82 268q84 96 234 96q31 0 71 -4q27 -3 56 -10v-96h-15q-18 8 -57 14q-38 6 -84 6q-92 0 -129 -49t-37 -166v-260h436q39 0 39 43v151
q0 194 95 283q96 90 270 90q82 0 153 -6q83 -7 121 -14q43 -9 43 -49v-1358q0 -43 39 -43h109v-70h-412v70h109q39 0 39 43v1257q0 24 -7 45t-26 29q-21 9 -58 12q-50 4 -100 4q-141 0 -199 -49q-57 -48 -57 -182v-256h248v-74h-248v-788q0 -43 39 -43h119v-70h-422v70z
M1520 508l317 321l23 23q12 12 12 25q0 22 -31 22h-98v70h403v-70h-39q-48 0 -88 -16q-32 -13 -75 -56l-306 -297l381 -393q33 -33 74 -51q38 -17 92 -20v-70h-69q-67 0 -113 22q-41 20 -84 66z" />
    <glyph glyph-name="f_f_l" unicode="ffl" horiz-adv-x="1712" 
d="M678 70l102 -2q39 0 39 43v788h-475v-788q0 -43 39 -43h135v-70h-438v70h108q39 0 39 43v788h-168v74h129q39 0 39 43v160q0 174 82 268q84 96 234 96q31 0 71 -4q27 -3 56 -10v-96h-15q-18 8 -57 14q-38 6 -84 6q-92 0 -129 -49t-37 -166v-260h436q39 0 39 43v151
q0 194 95 283q96 90 270 90q82 0 153 -6q83 -7 121 -14q43 -9 43 -49v-1358q0 -43 39 -43h109v-70h-412v70h109q39 0 39 43v1257q0 24 -7 45t-26 29q-21 9 -58 12q-50 4 -100 4q-141 0 -199 -49q-57 -48 -57 -182v-256h248v-74h-248v-788q0 -43 39 -43h119v-70h-422v70z" />
    <glyph glyph-name="f_y" unicode="fy" horiz-adv-x="1560" 
d="M586 -381l16 -4q18 -3 39 -6q14 -2 43 -2q115 0 182 55q69 57 115 178l49 129l-321 881q-10 23 -25 35t-55 12h-279v-788q0 -43 39 -43h135v-70h-438v70h109q38 0 38 43v788h-167v74h129q38 0 38 43v160q0 174 82 268q84 96 234 96q32 0 72 -4q28 -3 53 -10v-97h-12
q-21 9 -58 15q-38 6 -84 6q-92 0 -129 -49t-37 -166v-260h602v-70h-94q-35 0 -35 -26q0 -5 4 -21q6 -24 7 -29l249 -702h5l249 702q1 5 7 29q4 16 4 23q0 26 -35 26h-94v70h340v-70h-50q-40 0 -55 -12q-14 -11 -24 -41l-375 -1026q-47 -133 -137 -217q-92 -86 -254 -86h-43
q-15 0 -39 4v92z" />
    <glyph glyph-name="f_yacute" unicode="f&#xfd;" horiz-adv-x="1560" 
d="M586 -381l18 -2q12 -3 37 -6q14 -2 43 -2q115 0 182 55q69 57 115 178l49 129l-321 883q-8 20 -25 33q-15 12 -55 12h-279v-788q0 -43 39 -43h135v-70h-438v70h109q38 0 38 43v788h-167v74h129q38 0 38 43v160q0 174 82 268q84 96 234 96q32 0 72 -4q25 -2 55 -10v-96
h-14q-18 8 -58 14q-38 6 -84 6q-92 0 -129 -49t-37 -166v-260h600v-70h-92q-37 0 -37 -26q0 -15 15 -50l250 -704h4l249 704q1 5 7 29q4 16 4 21q0 26 -35 26h-94v70h340v-70h-52q-40 0 -55 -12q-14 -11 -24 -41l-375 -1026q-47 -133 -137 -217q-92 -86 -254 -86h-43
q-15 0 -39 4v92zM1012 1169v-4q22 21 116 115l86 86q16 16 33 32l17 17q12 8 16 10q10 5 18 5q21 0 37 -19q17 -20 17 -37q0 -22 -21 -37q-9 -9 -55 -43q-31 -23 -98 -67q-92 -61 -136 -92z" />
    <glyph glyph-name="f_ydieresis" unicode="f&#xff;" horiz-adv-x="1560" 
d="M586 -381l18 -2q12 -3 37 -6q14 -2 43 -2q115 0 182 55q69 57 115 178l49 129l-321 883q-8 20 -25 33q-15 12 -55 12h-279v-788q0 -43 39 -43h135v-70h-438v70h109q38 0 38 43v788h-167v74h129q38 0 38 43v160q0 174 82 268q84 96 234 96q32 0 72 -4q25 -2 55 -10v-96
h-14q-18 8 -58 14q-38 6 -84 6q-92 0 -129 -49t-37 -166v-260h600v-70h-92q-37 0 -37 -26q0 -15 15 -50l250 -704h4l249 704q1 5 7 29q4 16 4 21q0 26 -35 26h-94v70h340v-70h-52q-40 0 -55 -12q-14 -11 -24 -41l-375 -1026q-47 -133 -137 -217q-92 -86 -254 -86h-43
q-15 0 -39 4v92zM870 1253h-4q0 35 19 54q18 18 53 18t53 -18q19 -19 19 -54q0 -34 -19 -53q-18 -18 -51 -18t-51 18q-19 19 -19 53zM1174 1253l-3 -2q0 72 72 72q35 0 53 -18q19 -19 19 -54q0 -34 -19 -53q-18 -18 -51 -18q-71 0 -71 73z" />
    <glyph glyph-name="uni06440671" unicode="&#xfedf;&#xfb51;" horiz-adv-x="1036" 
d="M774 618h2q99 -95 139 -161q43 -70 43 -156q0 -141 -92 -221t-248 -80h-532v117l547 479l-547 491v127l10 7l613 -543q44 67 63 160t19 231v457h96v-457q0 -83 -6 -147q-5 -55 -19 -119q-12 -54 -33 -98q-22 -45 -55 -87zM616 123v2q123 0 191 47q67 46 67 123
q0 52 -43 104q-51 61 -137 142l-465 -414v-4h387zM434 1612l-6 -6q65 0 104 -45t39 -111q0 -64 -43 -104q-44 -41 -110 -41q-58 0 -111 18t-104 18q-32 0 -62 -10q-29 -10 -47 -31h-14v66q21 24 55 39q32 14 70 14q18 0 24 -2q45 101 97 150q48 45 108 45zM416 1378v8
q43 0 67 17q23 16 23 43q0 34 -25 59t-65 25q-38 0 -74 -31q-34 -30 -61 -94q11 -3 33 -9.5t34 -9.5q31 -8 68 -8z" />
    <glyph glyph-name="uni06440671.fina" unicode="&#xfee0;&#xfb51;" horiz-adv-x="1150" 
d="M350 -14h-4q-78 0 -151 6q-84 7 -146 20v97h279q50 0 73 2q46 4 66 6l-264 1126v12h102l262 -1124q155 39 246 143q-4 28 -4 39v41v1172h96v-1161q0 -129 56 -185q55 -55 188 -55v-92l-31 -31q-236 3 -289 197q-83 -115 -196 -164t-283 -49zM352 1694l-6 -6q65 0 105 -46
q38 -44 38 -110q0 -65 -43 -105q-44 -41 -110 -41q-56 0 -111 19q-53 18 -104 18q-32 0 -62 -10q-29 -10 -47 -31h-14v66q21 24 55 39q32 14 70 14q18 0 24 -2q45 101 97 150q48 45 108 45zM334 1460v8q43 0 67 17q23 16 23 43q0 34 -25 59t-65 25q-38 0 -74 -31
q-34 -30 -61 -94q12 -3 34 -9.5t33 -9.5q31 -8 68 -8z" />
    <glyph glyph-name="uni06330632" unicode="&#xfeb3;&#xfeb0;" horiz-adv-x="1843" 
d="M68 -522l-13 -6q-73 0 -135 26q-66 28 -123 70v70l13 8q73 -27 116 -37q52 -12 105 -12q80 0 143 38q69 41 117 107q52 70 78 160q28 95 28 200q0 62 -12 142q-10 68 -35 151l4 11l482 61v-102q62 -265 262 -265q102 0 143 47q39 45 39 170v152h82v-141q0 -99 -14 -154
q27 -35 71 -53q46 -19 92 -19q152 0 152 181q0 71 -8 131q-7 55 -31 170l6 10h86q20 -139 23 -168q6 -68 6 -141q0 -144 -62 -224q-61 -79 -174 -79q-130 0 -200 94q-58 -94 -209 -94q-263 0 -357 356l-278 -37q9 -47 12 -94q4 -66 4 -88q0 -145 -32 -254q-36 -121 -89 -203
q-56 -87 -131 -135q-76 -49 -161 -49zM348 803l88 -88l-88 -86h-14l-88 86l88 88h14z" />
    <glyph glyph-name="uni06340632" unicode="&#xfeb7;&#xfeb0;" horiz-adv-x="1843" 
d="M68 -522l-13 -6q-73 0 -135 26q-66 28 -123 70v70l13 8q73 -27 116 -37q52 -12 105 -12q80 0 143 38q69 41 117 107q52 70 78 160q28 95 28 200q0 62 -12 142q-10 68 -35 151l4 11l482 61v-102q62 -265 262 -265q102 0 143 47q39 45 39 170v152h82v-141q0 -99 -14 -154
q27 -35 71 -53q46 -19 92 -19q152 0 152 181q0 71 -8 131q-7 55 -31 170l6 10h86q20 -139 23 -168q6 -68 6 -141q0 -144 -62 -224q-61 -79 -174 -79q-130 0 -200 94q-58 -94 -209 -94q-263 0 -357 356l-278 -37q9 -47 12 -94q4 -66 4 -88q0 -145 -32 -254q-36 -121 -89 -203
q-56 -87 -131 -135q-76 -49 -161 -49zM1307 1059l84 -84l-84 -84h-15l-86 84l86 84h15zM1204 864l88 -88l-88 -86h-14l-88 86l88 88h14zM1407 864l88 -88l-88 -86h-14l-88 86l88 88h14zM348 803l88 -88l-88 -86h-14l-88 86l88 88h14z" />
    <glyph glyph-name="uni06330632.fina" unicode="&#xfeb4;&#xfeb0;" horiz-adv-x="1994" 
d="M68 -522l-15 -6q-73 0 -135 26q-66 28 -123 70v70l12 8q71 -27 117 -37q52 -12 105 -12q80 0 143 38q69 41 117 107q52 70 78 160q28 95 28 200q0 62 -12 142q-10 68 -35 151l4 11l482 61v-102q62 -265 266 -265q100 0 141 47q39 45 39 170v152h82v-141q0 -99 -14 -154
q54 -72 165 -72q84 0 117 45q33 44 33 172v213h82v-202q0 -82 -12 -144q51 -33 114 -47q72 -16 146 -16v-88l-31 -35q-71 0 -145 23q-68 21 -117 61q-52 -102 -187 -102q-65 0 -118 24q-49 23 -86 72q-59 -96 -209 -96q-263 0 -357 356l-278 -37q9 -47 12 -94q4 -66 4 -88
q0 -145 -32 -254q-36 -121 -89 -203q-56 -87 -131 -135q-76 -49 -161 -49zM346 803l88 -88l-88 -86h-14l-88 86l88 88h14z" />
    <glyph glyph-name="uni06340632.fina" unicode="&#xfeb8;&#xfeb0;" horiz-adv-x="1994" 
d="M68 -522l-15 -6q-73 0 -135 26q-66 28 -123 70v70l12 8q71 -27 117 -37q52 -12 105 -12q80 0 143 38q69 41 117 107q52 70 78 160q28 95 28 200q0 62 -12 142q-10 68 -35 151l4 11l482 61v-102q62 -265 266 -265q100 0 141 47q39 45 39 170v152h82v-141q0 -99 -14 -154
q54 -72 165 -72q84 0 117 45q33 44 33 172v213h82v-202q0 -82 -12 -144q51 -33 114 -47q72 -16 146 -16v-88l-31 -35q-71 0 -145 23q-68 21 -117 61q-52 -102 -187 -102q-65 0 -118 24q-49 23 -86 72q-59 -96 -209 -96q-263 0 -357 356l-278 -37q9 -47 12 -94q4 -66 4 -88
q0 -145 -32 -254q-36 -121 -89 -203q-56 -87 -131 -135q-76 -49 -161 -49zM1315 1059l84 -84l-84 -84h-15l-86 84l86 84h15zM1212 864l88 -88l-88 -86h-14l-88 86l88 88h14zM1415 864l88 -88l-88 -86h-14l-88 86l88 88h14zM346 803l88 -88l-88 -86h-14l-88 86l88 88h14z" />
    <glyph glyph-name="uni06330626" unicode="&#xfeb3;&#xfe8a;" horiz-adv-x="2498" 
d="M721 -584v-8q-308 0 -467 129q-160 130 -160 404q0 75 10 157q8 67 25 146h74v-13q-15 -71 -21 -141t-6 -137q0 -212 143 -313t424 -101q117 0 228 19q98 17 180 49q77 30 121 74q43 43 43 96q0 58 -43 92t-148 61l-151 43q-160 45 -225 101q-68 59 -68 162q0 74 43 147
t113 131q64 53 157 94q84 37 176 37q94 0 154 -45q63 -48 111 -149l67 -140q24 -49 58 -104q28 -44 57 -68q33 -27 65 -35q38 -10 80 -10q96 0 137 47q39 45 39 170v152h82v-141q0 -99 -14 -154q57 -72 162 -72q151 0 151 180q0 72 -8 132q-7 55 -31 170l7 10h86
q18 -121 22 -168q6 -68 6 -141q0 -145 -61 -224q-62 -80 -174 -80q-129 0 -201 97q-30 -52 -84 -74q-58 -23 -135 -23q-59 0 -105 15t-86 49q-36 30 -73 84q-31 45 -68 123l-59 121q-43 85 -92 122t-125 37q-72 0 -136 -20q-65 -20 -118 -55q-52 -34 -86 -80
q-33 -44 -33 -92q0 -64 49 -101q43 -32 164 -69l151 -46q66 -19 123 -43q48 -21 80 -49q30 -27 45 -65t15 -90q0 -93 -52 -166q-51 -72 -141 -125t-211 -80q-132 -29 -266 -29zM55 473v4q-14 20 -24 49q-8 24 -8 49q0 40 14 68t41 55q24 24 59 39t74 15q111 0 111 -111v-43
h-60v18q0 60 -63 60q-43 0 -80 -29q-35 -27 -35 -67q0 -27 16 -56q14 -25 43 -51h213v-76h-376v76h75z" />
    <glyph glyph-name="uni06340626" unicode="&#xfeb7;&#xfe8a;" horiz-adv-x="2498" 
d="M721 -584v-8q-308 0 -467 129q-160 130 -160 404q0 75 10 157q8 67 25 146h74v-13q-15 -71 -21 -141t-6 -137q0 -212 143 -313t424 -101q117 0 228 19q98 17 180 49q77 30 121 74q43 43 43 96q0 58 -43 92t-148 61l-151 43q-160 45 -225 101q-68 59 -68 162q0 74 43 147
t113 131q64 53 157 94q84 37 176 37q94 0 154 -45q63 -48 111 -149l67 -140q24 -49 58 -104q28 -44 57 -68q33 -27 65 -35q38 -10 80 -10q96 0 137 47q39 45 39 170v152h82v-141q0 -99 -14 -154q57 -72 162 -72q151 0 151 180q0 72 -8 132q-7 55 -31 170l7 10h86
q18 -121 22 -168q6 -68 6 -141q0 -145 -61 -224q-62 -80 -174 -80q-129 0 -201 97q-30 -52 -84 -74q-58 -23 -135 -23q-59 0 -105 15t-86 49q-36 30 -73 84q-31 45 -68 123l-59 121q-43 85 -92 122t-125 37q-72 0 -136 -20q-65 -20 -118 -55q-52 -34 -86 -80
q-33 -44 -33 -92q0 -64 49 -101q43 -32 164 -69l151 -46q66 -19 123 -43q48 -21 80 -49q30 -27 45 -65t15 -90q0 -93 -52 -166q-51 -72 -141 -125t-211 -80q-132 -29 -266 -29zM1985 1057l83 -84l-83 -84h-15l-86 84l86 84h15zM1882 862l88 -88l-88 -86h-14l-88 86l88 88h14
zM2085 862l88 -88l-88 -86h-14l-89 86l89 88h14zM55 473v4q-14 20 -24 49q-8 24 -8 49q0 40 14 68t41 55q24 24 59 39t74 15q111 0 111 -111v-43h-60v18q0 60 -63 60q-43 0 -80 -29q-35 -27 -35 -67q0 -27 16 -56q14 -25 43 -51h213v-76h-376v76h75z" />
    <glyph glyph-name="uni06330626.fina" unicode="&#xfeb4;&#xfe8a;" horiz-adv-x="2654" 
d="M721 -584l-10 -20q-305 0 -467 131t-162 405q0 75 10 160q8 68 25 148h73v-15q-13 -63 -20 -141q-6 -70 -6 -135q0 -213 143 -314q144 -102 424 -102q122 0 227 18q106 18 181 52q78 35 121 78t43 96q0 58 -43 92t-148 61l-151 41q-161 45 -226 101q-67 58 -67 161
q0 75 43 148q44 75 112 131q63 52 158 94q84 37 176 37q94 0 154 -45q60 -46 112 -149l68 -140q28 -57 57 -104q27 -43 58 -68q33 -27 65 -35q38 -10 80 -10q96 0 137 47q39 45 39 170v152h82v-142q0 -98 -14 -153q57 -72 162 -72q87 0 122 47t35 170v213h82v-202
q0 -51 -2 -76q-3 -40 -6 -68q51 -33 115 -47q72 -16 145 -16v-90l-31 -33q-74 0 -145 22q-67 21 -117 62q-28 -54 -74 -78q-48 -25 -120 -25q-129 0 -201 97q-30 -52 -84 -74q-57 -23 -135 -23q-59 0 -105 15q-47 15 -84 49q-35 32 -71 84q-27 39 -70 123l-59 121
q-43 85 -92 122t-125 37q-72 0 -136 -20q-65 -20 -118 -55q-52 -34 -86 -80q-33 -44 -33 -93q0 -61 49 -98q50 -38 166 -72l151 -43q66 -19 123 -43q48 -21 80 -49q30 -27 45 -65t15 -90q0 -93 -52 -166q-51 -72 -141 -125t-211 -80q-132 -29 -266 -29zM45 461v4
q-16 23 -25 49q-8 24 -8 49q0 38 15 68q14 28 41 55q24 24 59 39q32 14 74 14q110 0 110 -110v-43h-59v18q0 60 -64 60q-42 0 -79 -29q-35 -27 -35 -68q0 -26 16 -55q14 -25 43 -51h213v-76h-377v76h76z" />
    <glyph glyph-name="uni06340626.fina" unicode="&#xfeb8;&#xfe8a;" horiz-adv-x="2654" 
d="M721 -584l-10 -20q-305 0 -467 131t-162 405q0 75 10 160q8 68 25 148h73v-15q-13 -63 -20 -141q-6 -70 -6 -135q0 -213 143 -314q144 -102 424 -102q122 0 227 18q106 18 181 52q78 35 121 78t43 96q0 58 -43 92t-148 61l-151 41q-161 45 -226 101q-67 58 -67 161
q0 75 43 148q44 75 112 131q63 52 158 94q84 37 176 37q94 0 154 -45q60 -46 112 -149l68 -140q28 -57 57 -104q27 -43 58 -68q33 -27 65 -35q38 -10 80 -10q96 0 137 47q39 45 39 170v152h82v-142q0 -98 -14 -153q57 -72 162 -72q87 0 122 47t35 170v213h82v-202
q0 -51 -2 -76q-3 -40 -6 -68q51 -33 115 -47q72 -16 145 -16v-90l-31 -33q-74 0 -145 22q-67 21 -117 62q-28 -54 -74 -78q-48 -25 -120 -25q-129 0 -201 97q-30 -52 -84 -74q-57 -23 -135 -23q-59 0 -105 15q-47 15 -84 49q-35 32 -71 84q-27 39 -70 123l-59 121
q-43 85 -92 122t-125 37q-72 0 -136 -20q-65 -20 -118 -55q-52 -34 -86 -80q-33 -44 -33 -93q0 -61 49 -98q50 -38 166 -72l151 -43q66 -19 123 -43q48 -21 80 -49q30 -27 45 -65t15 -90q0 -93 -52 -166q-51 -72 -141 -125t-211 -80q-132 -29 -266 -29zM1974 1044l84 -83
l-84 -84h-14l-86 84l86 83h14zM1872 850l88 -88l-88 -86h-14l-89 86l89 88h14zM2075 850l88 -88l-88 -86h-15l-88 86l88 88h15zM45 461v4q-16 23 -25 49q-8 24 -8 49q0 38 15 68q14 28 41 55q24 24 59 39q32 14 74 14q110 0 110 -110v-43h-59v18q0 60 -64 60q-42 0 -79 -29
q-35 -27 -35 -68q0 -26 16 -55q14 -25 43 -51h213v-76h-377v76h76z" />
    <glyph glyph-name="uni06350632" unicode="&#xfebb;&#xfeb0;" horiz-adv-x="2115" 
d="M68 -522l-9 4q-73 0 -135 26q-66 28 -123 70v70l13 8q73 -27 116 -37q52 -12 105 -12q78 0 143 39q70 42 117 106q52 70 78 160q28 95 28 201q0 61 -12 141q-11 70 -35 152l4 10l482 61v-102q12 -85 34 -135q21 -45 62 -70l168 217q71 95 145 172q68 71 133 115
q66 44 129 65q65 21 136 21q84 0 157 -31q70 -30 123 -86t80 -129q29 -79 29 -156t-31 -147q-29 -65 -86 -113q-56 -47 -135 -71q-83 -25 -178 -25h-519q-145 0 -225 80q-78 78 -119 258l-278 -39q9 -47 12 -94q4 -66 4 -88q0 -145 -32 -254q-36 -121 -89 -203
q-56 -87 -131 -135q-76 -49 -161 -49zM1620 127l-2 2q172 0 246 51q78 54 78 154q0 65 -25 123q-24 55 -68 96t-100 61q-64 23 -129 23q-61 0 -123 -19t-117 -57q-52 -36 -118 -102q-54 -54 -132 -152l-126 -164l2 -6q52 -10 92 -10h522zM354 815l88 -88l-88 -86h-14l-88 86
l88 88h14z" />
    <glyph glyph-name="uni06360632" unicode="&#xfebf;&#xfeb0;" horiz-adv-x="2115" 
d="M68 -522l-9 4q-73 0 -135 26q-66 28 -123 70v70l13 8q73 -27 116 -37q52 -12 105 -12q78 0 143 39q70 42 117 106q52 70 78 160q28 95 28 201q0 61 -12 141q-11 70 -35 152l4 10l482 61v-102q12 -85 34 -135q21 -45 62 -70l168 217q71 95 145 172q68 71 133 115
q66 44 129 65q65 21 136 21q84 0 157 -31q70 -30 123 -86t80 -129q29 -79 29 -156t-31 -147q-29 -65 -86 -113q-56 -47 -135 -71q-83 -25 -178 -25h-519q-145 0 -225 80q-78 78 -119 258l-278 -39q9 -47 12 -94q4 -66 4 -88q0 -145 -32 -254q-36 -121 -89 -203
q-56 -87 -131 -135q-76 -49 -161 -49zM1620 127l-2 2q172 0 246 51q78 54 78 154q0 65 -25 123q-24 55 -68 96t-100 61q-64 23 -129 23q-61 0 -123 -19t-117 -57q-52 -36 -118 -102q-54 -54 -132 -152l-126 -164l2 -6q52 -10 92 -10h522zM252 815l88 -88l-88 -86h-14l-88 86
l88 88h14zM1458 1161l88 -88l-88 -86h-14l-88 86l88 88h14z" />
    <glyph glyph-name="uni06350632.fina" unicode="&#xfebc;&#xfeb0;" horiz-adv-x="2256" 
d="M68 -522l-5 2q-73 0 -135 26q-66 28 -123 70v70l13 8q73 -27 116 -37q52 -12 105 -12q78 0 143 39q70 42 117 106q52 70 78 160q29 98 29 201q0 55 -13 141q-10 68 -35 151l4 11l482 61v-102q11 -82 35 -135q21 -46 61 -70l168 217q71 95 145 172q68 71 133 115t130 65
q64 21 135 21q84 0 157 -31q70 -30 123 -86t80 -129q29 -79 29 -156q0 -89 -39 -157q71 -47 133 -62q57 -14 127 -14v-96l-25 -27q-72 0 -149 25q-71 23 -150 90q-58 -52 -141 -82q-85 -31 -190 -31h-519q-145 0 -225 80q-78 78 -119 258l-278 -39q9 -47 12 -94q4 -66 4 -88
q0 -145 -32 -254q-36 -121 -89 -203q-56 -87 -131 -135q-76 -49 -161 -49zM1624 125l-2 2q172 0 246 51q78 54 78 154q0 65 -25 123q-24 55 -68 96t-100 61q-64 23 -129 23q-61 0 -123 -19t-117 -57q-52 -36 -118 -102q-49 -49 -131 -152l-127 -164l2 -6q52 -10 92 -10h522z
M358 813l88 -88l-88 -86h-14l-88 86l88 88h14z" />
    <glyph glyph-name="uni06360632.fina" unicode="&#xfec0;&#xfeb0;" horiz-adv-x="2256" 
d="M68 -522l-5 2q-73 0 -135 26q-66 28 -123 70v70l13 8q73 -27 116 -37q52 -12 105 -12q78 0 143 39q70 42 117 106q52 70 78 160q29 98 29 201q0 55 -13 141q-10 68 -35 151l4 11l482 61v-102q11 -82 35 -135q21 -46 61 -70l168 217q71 95 145 172q68 71 133 115t130 65
q64 21 135 21q84 0 157 -31q70 -30 123 -86t80 -129q29 -79 29 -156q0 -89 -39 -157q71 -47 133 -62q57 -14 127 -14v-96l-25 -27q-72 0 -149 25q-71 23 -150 90q-58 -52 -141 -82q-85 -31 -190 -31h-519q-145 0 -225 80q-78 78 -119 258l-278 -39q9 -47 12 -94q4 -66 4 -88
q0 -145 -32 -254q-36 -121 -89 -203q-56 -87 -131 -135q-76 -49 -161 -49zM1624 125l-2 2q172 0 246 51q78 54 78 154q0 65 -25 123q-24 55 -68 96t-100 61q-64 23 -129 23q-61 0 -123 -19t-117 -57q-52 -36 -118 -102q-49 -49 -131 -152l-127 -164l2 -6q52 -10 92 -10h522z
M256 813l88 -88l-88 -86h-14l-88 86l88 88h14zM1462 1159l88 -88l-88 -86h-14l-88 86l88 88h14z" />
    <glyph glyph-name="uni06350626" unicode="&#xfebb;&#xfe8a;" horiz-adv-x="2756" 
d="M2288 756l-2 -4q84 0 157 -31q70 -30 123 -86t80 -129q29 -79 29 -156t-31 -147q-29 -65 -86 -113q-58 -49 -135 -72q-79 -24 -178 -24h-525q-50 0 -94 12q-40 11 -80 43q-27 22 -69 78q-32 43 -68 117l-59 121q-42 85 -93 124q-49 37 -124 37q-72 0 -136 -20
q-65 -20 -118 -55q-52 -34 -86 -80q-33 -44 -33 -92q0 -64 49 -101q43 -32 164 -69l151 -46q66 -19 123 -43q48 -21 80 -49q30 -27 45 -65q14 -35 14 -90q0 -95 -51 -166q-51 -72 -141 -125t-211 -80q-132 -29 -266 -29q-308 0 -467 129q-160 130 -160 404q0 75 10 157
q8 67 25 146h74v-12q-15 -70 -21 -142q-6 -71 -6 -137q0 -212 143 -313t424 -101q117 0 228 19q98 17 180 49q77 30 121 74q43 43 43 96q0 58 -43 92q-45 35 -148 62l-151 43q-163 45 -226 100q-67 58 -67 162q0 74 43 147q44 75 112 131q63 52 158 94q84 37 176 37
q93 0 154 -43q62 -44 113 -149l67 -139q48 -95 92 -136l154 197q71 95 145 172q68 71 133 115q66 44 129 65q64 21 136 21zM2267 119v2q172 0 246 51q78 54 78 154q0 65 -25 123q-24 56 -67 96t-101 61q-64 23 -129 23q-61 0 -123 -19q-61 -19 -116 -57t-119 -102
q-49 -49 -131 -152l-123 -158l2 -8q32 -14 80 -14h528zM53 479v4q-14 20 -24 49q-9 27 -9 50q0 37 15 67t41 56q22 22 59 38q34 15 74 15q110 0 110 -111v-43h-59v19q0 59 -63 59q-43 0 -80 -29q-35 -27 -35 -67q0 -27 16 -56q14 -25 43 -51h213v-76h-377v76h76z" />
    <glyph glyph-name="uni06360626" unicode="&#xfebf;&#xfe8a;" horiz-adv-x="2756" 
d="M2288 756l-2 -4q84 0 157 -31q70 -30 123 -86t80 -129q29 -79 29 -156t-31 -147q-29 -65 -86 -113q-58 -49 -135 -72q-79 -24 -178 -24h-525q-50 0 -94 12q-40 11 -80 43q-27 22 -69 78q-32 43 -68 117l-59 121q-42 85 -93 124q-49 37 -124 37q-72 0 -136 -20
q-65 -20 -118 -55q-52 -34 -86 -80q-33 -44 -33 -92q0 -64 49 -101q43 -32 164 -69l151 -46q66 -19 123 -43q48 -21 80 -49q30 -27 45 -65q14 -35 14 -90q0 -95 -51 -166q-51 -72 -141 -125t-211 -80q-132 -29 -266 -29q-308 0 -467 129q-160 130 -160 404q0 75 10 157
q8 67 25 146h74v-12q-15 -70 -21 -142q-6 -71 -6 -137q0 -212 143 -313t424 -101q117 0 228 19q98 17 180 49q77 30 121 74q43 43 43 96q0 58 -43 92q-45 35 -148 62l-151 43q-163 45 -226 100q-67 58 -67 162q0 74 43 147q44 75 112 131q63 52 158 94q84 37 176 37
q93 0 154 -43q62 -44 113 -149l67 -139q48 -95 92 -136l154 197q71 95 145 172q68 71 133 115q66 44 129 65q64 21 136 21zM2267 119v2q172 0 246 51q78 54 78 154q0 65 -25 123q-24 56 -67 96t-101 61q-64 23 -129 23q-61 0 -123 -19q-61 -19 -116 -57t-119 -102
q-49 -49 -131 -152l-123 -158l2 -8q32 -14 80 -14h528zM53 479v4q-14 20 -24 49q-9 27 -9 50q0 37 15 67t41 56q22 22 59 38q34 15 74 15q110 0 110 -111v-43h-59v19q0 59 -63 59q-43 0 -80 -29q-35 -27 -35 -67q0 -27 16 -56q14 -25 43 -51h213v-76h-377v76h76zM2210 1157
l88 -88l-88 -86h-15l-88 86l88 88h15z" />
    <glyph glyph-name="uni06350626.fina" unicode="&#xfebc;&#xfe8a;" horiz-adv-x="2897" 
d="M2638 195l-2 -7q63 -40 129 -55q60 -14 133 -14v-96l-25 -27q-75 0 -149 24q-73 24 -150 89q-58 -52 -141 -82q-85 -31 -190 -31h-525q-50 0 -94 12q-40 11 -80 43q-27 22 -69 78q-32 43 -68 117l-59 121q-43 87 -93 125q-48 36 -125 36q-71 0 -135 -20q-65 -20 -118 -55
q-52 -34 -86 -80q-33 -44 -33 -92q0 -64 49 -101q43 -32 164 -69l151 -45q66 -19 123 -43q46 -20 80 -50q30 -27 45 -65q14 -35 14 -90q0 -95 -51 -166q-51 -72 -141 -125t-211 -80q-132 -29 -266 -29q-308 0 -467 129q-160 130 -160 404q0 76 10 158q8 65 25 145h74v-12
q-15 -70 -21 -142q-6 -71 -6 -137q0 -212 143 -313t424 -101q117 0 228 19q98 17 180 49q77 30 121 74q43 43 43 96q0 58 -43 92q-45 35 -148 62l-151 43q-163 45 -226 100q-67 58 -67 162q0 74 43 147q44 75 112 131q63 52 158 94q84 37 176 37q93 0 154 -43
q62 -44 113 -149l67 -139q48 -95 92 -136l154 197q71 95 145 172q68 71 133 115q66 44 129 65q64 21 136 21q84 0 157 -31q70 -30 123 -86t80 -129q29 -79 29 -156q0 -91 -37 -161zM2267 117v2q172 0 246 51q78 54 78 154q0 64 -25 122t-67 97q-43 40 -101 61
q-64 23 -129 23q-61 0 -123 -19q-61 -19 -116 -57t-119 -102q-49 -49 -131 -152l-123 -158l2 -8q32 -14 80 -14h528zM53 477v4q-14 20 -24 49q-9 27 -9 50q0 37 15 67q14 28 41 55q24 24 59 39q34 15 74 15q110 0 110 -111v-43h-59v19q0 59 -63 59q-43 0 -80 -29
q-35 -27 -35 -67q0 -27 16 -56q14 -25 43 -51h213v-76h-377v76h76z" />
    <glyph glyph-name="uni06360626.fina" unicode="&#xfec0;&#xfe8a;" horiz-adv-x="2897" 
d="M2638 195l-2 -7q63 -40 129 -55q60 -14 133 -14v-96l-25 -27q-75 0 -149 24q-73 24 -150 89q-58 -52 -141 -82q-85 -31 -190 -31h-525q-50 0 -94 12q-40 11 -80 43q-27 22 -69 78q-32 43 -68 117l-59 121q-43 87 -93 125q-48 36 -125 36q-71 0 -135 -20q-65 -20 -118 -55
q-52 -34 -86 -80q-33 -44 -33 -92q0 -64 49 -101q43 -32 164 -69l151 -45q66 -19 123 -43q46 -20 80 -50q30 -27 45 -65q14 -35 14 -90q0 -95 -51 -166q-51 -72 -141 -125t-211 -80q-132 -29 -266 -29q-308 0 -467 129q-160 130 -160 404q0 76 10 158q8 65 25 145h74v-12
q-15 -70 -21 -142q-6 -71 -6 -137q0 -212 143 -313t424 -101q117 0 228 19q98 17 180 49q77 30 121 74q43 43 43 96q0 58 -43 92q-45 35 -148 62l-151 43q-163 45 -226 100q-67 58 -67 162q0 74 43 147q44 75 112 131q63 52 158 94q84 37 176 37q93 0 154 -43
q62 -44 113 -149l67 -139q48 -95 92 -136l154 197q71 95 145 172q68 71 133 115q66 44 129 65q64 21 136 21q84 0 157 -31q70 -30 123 -86t80 -129q29 -79 29 -156q0 -91 -37 -161zM2267 117v2q172 0 246 51q78 54 78 154q0 64 -25 122t-67 97q-43 40 -101 61
q-64 23 -129 23q-61 0 -123 -19q-61 -19 -116 -57t-119 -102q-49 -49 -131 -152l-123 -158l2 -8q32 -14 80 -14h528zM53 477v4q-14 20 -24 49q-9 27 -9 50q0 37 15 67q14 28 41 55q24 24 59 39q34 15 74 15q110 0 110 -111v-43h-59v19q0 59 -63 59q-43 0 -80 -29
q-35 -27 -35 -67q0 -27 16 -56q14 -25 43 -51h213v-76h-377v76h76zM2210 1155l88 -88l-88 -86h-15l-88 86l88 88h15z" />
    <glyph glyph-name="uni06430626" unicode="&#xfedb;&#xfe8a;" horiz-adv-x="1533" 
d="M770 -479l-6 -13q-344 0 -510 138t-166 430q0 82 12 162q8 51 29 151h74v-12q-18 -85 -23 -146q-6 -73 -6 -141q0 -229 148 -338q147 -108 450 -108q114 0 215 16q96 15 166 45t109 72q36 39 36 92q0 34 -18 61q-21 31 -57 47q-44 20 -105 31q-64 12 -164 21l-137 10v117
l8 8l146 -12q151 -9 221 32q74 44 74 127q0 29 -13 62q-15 36 -32 65q-16 27 -60 74q-50 54 -88 92l-287 285v121l850 516h13v-111l-762 -463l200 -211q71 -72 121 -127q53 -59 80 -104q30 -50 45 -96q15 -47 15 -95q0 -157 -156 -221v-6q95 -27 141 -82q47 -56 47 -131
q0 -82 -43 -149q-42 -66 -123 -113q-84 -49 -192 -72q-114 -24 -252 -24zM51 614v4q-14 19 -24 50q-9 27 -9 49q0 37 15 67t41 56q24 24 59 39q32 14 74 14q110 0 110 -111v-43h-59v19q0 59 -63 59q-43 0 -80 -29q-35 -27 -35 -67q0 -26 16 -55q15 -27 43 -52h213v-75h-377
v75h76z" />
    <glyph glyph-name="uni06A9064A" unicode="&#xfb90;&#xfef2;" horiz-adv-x="1533" 
d="M770 -479l-6 -13q-344 0 -510 138t-166 430q0 82 12 162q8 51 29 151h74v-12q-18 -85 -23 -146q-6 -73 -6 -141q0 -229 148 -338q147 -108 450 -108q114 0 215 16q96 15 166 45t109 72q36 39 36 92q0 34 -18 61q-21 31 -57 47q-44 20 -105 31q-64 12 -164 21l-137 10v117
l8 8l146 -12q151 -9 221 32q74 44 74 127q0 29 -13 62q-15 36 -32 65q-16 27 -60 74q-50 54 -88 92l-287 285v121l850 516h13v-111l-762 -463l200 -211q71 -72 121 -127q53 -59 80 -104q30 -50 45 -96q15 -47 15 -95q0 -157 -156 -221v-6q95 -27 141 -82q47 -56 47 -131
q0 -82 -43 -149q-42 -66 -123 -113q-84 -49 -192 -72q-114 -24 -252 -24zM670 -684l88 -88l-88 -86h-15l-88 86l88 88h15zM872 -684l89 -88l-89 -86h-14l-88 86l88 88h14z" />
    <glyph glyph-name="uni06AF0649" unicode="&#xfb94;&#xfef0;" horiz-adv-x="1533" 
d="M770 -479l-6 -13q-344 0 -510 138t-166 430q0 82 12 162q8 51 29 151h74v-12q-18 -85 -23 -146q-6 -73 -6 -141q0 -229 148 -338q147 -108 450 -108q114 0 215 16q96 15 166 45t109 72q36 39 36 92q0 34 -18 61q-21 31 -57 47q-44 20 -105 31q-64 12 -164 21l-137 10v117
l8 8l146 -12q151 -9 221 32q74 44 74 127q0 29 -13 62q-15 36 -32 65q-16 27 -60 74q-50 54 -88 92l-287 285v121l850 516h13v-111l-762 -463l200 -211q71 -72 121 -127q53 -59 80 -104q30 -50 45 -96q15 -47 15 -95q0 -157 -156 -221v-6q95 -27 141 -82q47 -56 47 -131
q0 -82 -43 -149q-42 -66 -123 -113q-84 -49 -192 -72q-114 -24 -252 -24zM778 1188l850 516h14v-74l-849 -516h-15v74z" />
    <glyph glyph-name="uni06AF064A" unicode="&#xfb94;&#xfef2;" horiz-adv-x="1533" 
d="M770 -479l-6 -13q-344 0 -510 138t-166 430q0 82 12 162q8 51 29 151h74v-12q-18 -85 -23 -146q-6 -73 -6 -141q0 -229 148 -338q147 -108 450 -108q114 0 215 16q96 15 166 45t109 72q36 39 36 92q0 34 -18 61q-21 31 -57 47q-44 20 -105 31q-64 12 -164 21l-137 10v117
l8 8l146 -12q151 -9 221 32q74 44 74 127q0 29 -13 62q-15 36 -32 65q-16 27 -60 74q-50 54 -88 92l-287 285v121l850 516h13v-111l-762 -463l200 -211q71 -72 121 -127q53 -59 80 -104q30 -50 45 -96q15 -47 15 -95q0 -157 -156 -221v-6q95 -27 141 -82q47 -56 47 -131
q0 -82 -43 -149q-42 -66 -123 -113q-84 -49 -192 -72q-114 -24 -252 -24zM670 -684l88 -88l-88 -86h-15l-88 86l88 88h15zM872 -684l89 -88l-89 -86h-14l-88 86l88 88h14zM778 1188l850 516h14v-74l-849 -516h-15v74z" />
    <glyph glyph-name="uni06AF0626" unicode="&#xfb94;&#xfe8a;" horiz-adv-x="1533" 
d="M770 -479l-6 -13q-344 0 -510 138t-166 430q0 82 12 162q8 51 29 151h74v-12q-18 -85 -23 -146q-6 -73 -6 -141q0 -229 148 -338q147 -108 450 -108q114 0 215 16q96 15 166 45t109 72q36 39 36 92q0 34 -18 61q-21 31 -57 47q-44 20 -105 31q-64 12 -164 21l-137 10v117
l8 8l146 -12q151 -9 221 32q74 44 74 127q0 29 -13 62q-15 36 -32 65q-16 27 -60 74q-50 54 -88 92l-287 285v121l850 516h13v-111l-762 -463l200 -211q71 -72 121 -127q53 -59 80 -104q30 -50 45 -96q15 -47 15 -95q0 -157 -156 -221v-6q95 -27 141 -82q47 -56 47 -131
q0 -82 -43 -149q-42 -66 -123 -113q-84 -49 -192 -72q-114 -24 -252 -24zM51 614v4q-14 19 -24 50q-9 27 -9 49q0 37 15 67t41 56q24 24 59 39q32 14 74 14q110 0 110 -111v-43h-59v19q0 59 -63 59q-43 0 -80 -29q-35 -27 -35 -67q0 -26 16 -55q15 -27 43 -52h213v-75h-377
v75h76zM778 1192l850 516h14v-74l-849 -516h-15v74z" />
    <glyph glyph-name="uni06430626.fina" unicode="&#xfedc;&#xfe8a;" horiz-adv-x="1972" 
d="M1200 958l397 -616q50 -74 80 -109q36 -41 74 -69q37 -27 78 -39t92 -12h39v-90l-31 -33q-55 0 -110 10q-47 9 -93 37q-40 25 -86 74q-37 40 -94 116q-15 -86 -69 -143q-56 -59 -142 -80q35 -47 35 -117q0 -85 -43 -155q-42 -69 -123 -119q-81 -51 -192 -74
q-114 -24 -252 -24q-345 0 -510 137q-166 138 -166 430q0 82 12 162q8 51 29 151h74v-12q-18 -85 -23 -145q-6 -74 -6 -142q0 -230 147 -338t451 -108q114 0 215 16q96 15 166 45q68 29 108 72q37 40 37 90q0 35 -16 61t-53 41q-46 18 -103 29q-138 26 -159 29l-148 20v115
l8 8l142 -20q21 -3 55.5 -9t48.5 -8q24 -3 78 -8q32 -3 61 -6q18 -2 52 -2q218 0 239 190l-389 586v121l850 516h12v-111zM53 616v5q-14 20 -24 49q-9 27 -9 49q0 37 15 67t41 56q24 24 59 39q32 14 74 14q110 0 110 -111v-43h-59v19q0 59 -63 59q-44 0 -80 -28
q-35 -27 -35 -68q0 -26 16 -55q15 -27 43 -52h213v-75h-377v75h76z" />
    <glyph glyph-name="uni06AF0649.fina" unicode="&#xfb95;&#xfef0;" horiz-adv-x="1972" 
d="M1200 958l397 -616q50 -74 80 -109q36 -41 74 -69q37 -27 78 -39t92 -12h39v-90l-31 -33q-55 0 -110 10q-47 9 -93 37q-40 25 -86 74q-37 40 -94 116q-15 -86 -69 -143q-56 -59 -142 -80q35 -47 35 -117q0 -85 -43 -155q-42 -69 -123 -119q-81 -51 -192 -74
q-114 -24 -252 -24q-345 0 -510 137q-166 138 -166 430q0 82 12 162q8 51 29 151h74v-12q-18 -85 -23 -145q-6 -74 -6 -142q0 -230 147 -338t451 -108q114 0 215 16q96 15 166 45q68 29 108 72q37 40 37 90q0 35 -16 61t-53 41q-46 18 -103 29q-138 26 -159 29l-148 20v115
l8 8l142 -20q21 -3 55.5 -9t48.5 -8q24 -3 78 -8q32 -3 61 -6q18 -2 52 -2q218 0 239 190l-389 586v121l850 516h12v-111zM1102 1190l850 516h14v-74l-850 -516h-14v74z" />
    <glyph glyph-name="uni06AF064A.fina" unicode="&#xfb95;&#xfef2;" horiz-adv-x="1972" 
d="M1200 958l397 -616q50 -74 80 -109q36 -41 74 -69q37 -27 78 -39t92 -12h39v-90l-31 -33q-55 0 -110 10q-47 9 -93 37q-40 25 -86 74q-37 40 -94 116q-15 -86 -69 -143q-56 -59 -142 -80q35 -47 35 -117q0 -85 -43 -155q-42 -69 -123 -119q-81 -51 -192 -74
q-114 -24 -252 -24q-345 0 -510 137q-166 138 -166 430q0 82 12 162q8 51 29 151h74v-12q-18 -85 -23 -145q-6 -74 -6 -142q0 -230 147 -338t451 -108q114 0 215 16q96 15 166 45q68 29 108 72q37 40 37 90q0 35 -16 61t-53 41q-46 18 -103 29q-138 26 -159 29l-148 20v115
l8 8l142 -20q21 -3 55.5 -9t48.5 -8q24 -3 78 -8q32 -3 61 -6q18 -2 52 -2q218 0 239 190l-389 586v121l850 516h12v-111zM668 -682l88 -88l-88 -86h-15l-88 86l88 88h15zM870 -682l88 -88l-88 -86h-14l-88 86l88 88h14zM1102 1190l850 516h14v-74l-850 -516h-14v74z" />
    <glyph glyph-name="uni06AF0626.fina" unicode="&#xfb95;&#xfe8a;" horiz-adv-x="1972" 
d="M1200 958l397 -616q50 -74 80 -109q36 -41 74 -69q37 -27 78 -39t92 -12h39v-90l-31 -33q-55 0 -110 10q-47 9 -93 37q-40 25 -86 74q-37 40 -94 116q-15 -86 -69 -143q-56 -59 -142 -80q35 -47 35 -117q0 -85 -43 -155q-42 -69 -123 -119q-81 -51 -192 -74
q-114 -24 -252 -24q-345 0 -510 137q-166 138 -166 430q0 82 12 162q8 51 29 151h74v-12q-18 -85 -23 -145q-6 -74 -6 -142q0 -230 147 -338t451 -108q114 0 215 16q96 15 166 45q68 29 108 72q37 40 37 90q0 35 -16 61t-53 41q-46 18 -103 29q-138 26 -159 29l-148 20v115
l8 8l142 -20q21 -3 55.5 -9t48.5 -8q24 -3 78 -8q32 -3 61 -6q18 -2 52 -2q218 0 239 190l-389 586v121l850 516h12v-111zM53 616v5q-14 20 -24 49q-9 27 -9 49q0 37 15 67t41 56q24 24 59 39q32 14 74 14q110 0 110 -111v-43h-59v19q0 59 -63 59q-44 0 -80 -28
q-35 -27 -35 -68q0 -26 16 -55q15 -27 43 -52h213v-75h-377v75h76zM1102 1194l850 516h14v-74l-850 -516h-14v74z" />
    <glyph glyph-name="uni06440626" unicode="&#xfedf;&#xfe8a;" horiz-adv-x="1552" 
d="M1180 96l-9 -6q107 -27 154 -80t47 -129q0 -82 -43 -149q-43 -68 -123 -117q-81 -51 -192 -74q-114 -24 -252 -24q-345 0 -510 137q-166 138 -166 430q0 82 12 162q8 51 29 151h74v-12q-18 -85 -23 -145q-6 -73 -6 -142q0 -230 147 -338t451 -108q114 0 215 16
q92 15 166 43q70 27 109 72q36 42 36 94q0 35 -18 62q-21 31 -57 47q-41 18 -105 30t-164 21l-137 10v117l8 8l146 -12q130 -9 196 51q68 62 68 207v1108h96v-1108q0 -119 -37 -197q-38 -80 -112 -119v-6zM49 621v4q-14 20 -24 49q-9 27 -9 49q0 38 15 68q14 28 41 55
q24 24 59 39q32 14 74 14q110 0 110 -111v-43h-59v19q0 59 -63 59q-44 0 -80 -28q-35 -27 -35 -68q0 -26 16 -55q14 -25 43 -51h213v-76h-377v76h76z" />
    <glyph glyph-name="uni06440626.fina" unicode="&#xfee0;&#xfe8a;" horiz-adv-x="1800" 
d="M1800 31l-39 -41h-2q-194 0 -264 131q-26 -44 -78 -76q-54 -33 -104 -41q55 -43 55 -119q0 -85 -43 -155q-42 -69 -123 -119q-81 -51 -192 -74q-114 -24 -252 -24q-345 0 -510 137q-166 138 -166 430q0 82 12 162q8 51 29 151h74v-12q-18 -85 -23 -145q-6 -74 -6 -142
q0 -230 147 -338t451 -108q114 0 215 16q96 15 166 45q68 29 108 72q37 40 37 90q0 35 -16 61t-53 41q-46 18 -103 29q-138 26 -159 29l-148 20v115l8 8l142 -20q21 -3 55.5 -9t48.5 -8q24 -3 78 -8q32 -3 61 -6q18 -2 51 -2q69 0 125 20q57 21 99 56q-17 73 -17 145v1182
h97v-1182q0 -114 55 -166q56 -53 172 -53h12v-92zM53 616v5q-14 20 -24 49q-9 27 -9 49q0 37 15 67t41 56q24 24 59 39q32 14 74 14q110 0 110 -111v-43h-59v19q0 59 -63 59q-44 0 -80 -28q-35 -27 -35 -68q0 -26 16 -55q15 -27 43 -52h213v-75h-377v75h76z" />
    <glyph glyph-name="uni06280626" unicode="&#xfe91;&#xfe8a;" horiz-adv-x="1460" 
d="M770 -301l-6 -4q-345 0 -510 137q-166 138 -166 430q0 82 12 162q8 51 29 151h74v-12q-18 -85 -23 -145q-6 -73 -6 -142q0 -228 148 -337t450 -109q114 0 215 16q92 15 166 43q70 27 109 72q36 42 36 94q0 35 -18 62q-21 31 -57 47q-44 20 -105 31q-54 10 -164 20
l-137 10v117l8 8l146 -12q143 -9 207 49q65 59 65 188q0 50 -10 142q-8 71 -31 184l6 8h90q18 -111 25 -176q8 -71 8 -145q0 -230 -135 -303v-4q184 -58 184 -215q0 -85 -43 -152q-43 -68 -123 -117q-79 -49 -192 -73q-119 -25 -252 -25zM1251 -436l88 -88l-88 -86h-14
l-88 86l88 88h14zM51 801v4q-14 20 -24 49q-9 27 -9 49q0 38 15 68q14 28 41 55q24 24 59 39q32 14 74 14q110 0 110 -110v-43h-59v18q0 60 -63 60q-43 0 -80 -29q-35 -27 -35 -68q0 -26 16 -55q14 -25 43 -51h213v-76h-377v76h76z" />
    <glyph glyph-name="uni067E0649" unicode="&#xfb58;&#xfef0;" horiz-adv-x="1460" 
d="M770 -301l-6 -4q-345 0 -510 137q-166 138 -166 430q0 82 12 162q8 51 29 151h74v-12q-18 -85 -23 -145q-6 -73 -6 -142q0 -228 148 -337t450 -109q114 0 215 16q92 15 166 43q70 27 109 72q36 42 36 94q0 35 -18 62q-21 31 -57 47q-44 20 -105 31q-54 10 -164 20
l-137 10v117l8 8l146 -12q143 -9 207 49q65 59 65 188q0 50 -10 142q-8 71 -31 184l6 8h90q18 -111 25 -176q8 -71 8 -145q0 -230 -135 -303v-4q184 -58 184 -215q0 -85 -43 -152q-43 -68 -123 -117q-79 -49 -192 -73q-119 -25 -252 -25zM1139 -573l-86 86l86 84h14l86 -84
l-86 -86h-14zM1337 -573l-88 86l88 84h15l86 -84l-86 -86h-15zM1237 -766l-82 84l82 82h14l84 -82l-84 -84h-14z" />
    <glyph glyph-name="uni067E064A" unicode="&#xfb58;&#xfef2;" horiz-adv-x="1460" 
d="M770 -301l-6 -4q-345 0 -510 137q-166 138 -166 430q0 82 12 162q8 51 29 151h74v-12q-18 -85 -23 -145q-6 -73 -6 -142q0 -228 148 -337t450 -109q114 0 215 16q92 15 166 43q70 27 109 72q36 42 36 94q0 35 -18 62q-21 31 -57 47q-44 20 -105 31q-54 10 -164 20
l-137 10v117l8 8l146 -12q143 -9 207 49q65 59 65 188q0 50 -10 142q-8 71 -31 184l6 8h90q18 -111 25 -176q8 -71 8 -145q0 -230 -135 -303v-4q184 -58 184 -215q0 -85 -43 -152q-43 -68 -123 -117q-79 -49 -192 -73q-119 -25 -252 -25zM1139 -573l-86 86l86 84h14l86 -84
l-86 -86h-14zM1337 -573l-88 86l88 84h15l86 -84l-86 -86h-15zM1237 -766l-82 84l82 82h14l84 -82l-84 -84h-14zM680 -498l88 -88l-88 -86h-14l-88 86l88 88h14zM883 -498l88 -88l-88 -86h-15l-88 86l88 88h15z" />
    <glyph glyph-name="uni067E0626" unicode="&#xfb58;&#xfe8a;" horiz-adv-x="1460" 
d="M770 -301l-6 -4q-345 0 -510 137q-166 138 -166 430q0 82 12 162q8 51 29 151h74v-12q-18 -85 -23 -145q-6 -73 -6 -142q0 -228 148 -337t450 -109q114 0 215 16q92 15 166 43q70 27 109 72q36 42 36 94q0 35 -18 62q-21 31 -57 47q-44 20 -105 31q-54 10 -164 20
l-137 10v117l8 8l146 -12q143 -9 207 49q65 59 65 188q0 50 -10 142q-8 71 -31 184l6 8h90q18 -111 25 -176q8 -71 8 -145q0 -230 -135 -303v-4q184 -58 184 -215q0 -85 -43 -152q-43 -68 -123 -117q-79 -49 -192 -73q-119 -25 -252 -25zM1139 -573l-86 86l86 84h14l86 -84
l-86 -86h-14zM1337 -573l-88 86l88 84h15l86 -84l-86 -86h-15zM1237 -766l-82 84l82 82h14l84 -82l-84 -84h-14zM51 801v4q-14 20 -24 49q-9 27 -9 49q0 38 15 68q14 28 41 55q24 24 59 39q32 14 74 14q110 0 110 -110v-43h-59v18q0 60 -63 60q-43 0 -80 -29
q-35 -27 -35 -68q0 -26 16 -55q14 -25 43 -51h213v-76h-377v76h76z" />
    <glyph glyph-name="uni062A0626" unicode="&#xfe97;&#xfe8a;" horiz-adv-x="1460" 
d="M770 -301l-6 -4q-345 0 -510 137q-166 138 -166 430q0 82 12 162q8 51 29 151h74v-12q-18 -85 -23 -145q-6 -73 -6 -142q0 -228 148 -337t450 -109q114 0 215 16q92 15 166 43q70 27 109 72q36 42 36 94q0 35 -18 62q-21 31 -57 47q-44 20 -105 31q-54 10 -164 20
l-137 10v117l8 8l146 -12q143 -9 207 49q65 59 65 188q0 50 -10 142q-8 71 -31 184l6 8h90q18 -111 25 -176q8 -71 8 -145q0 -230 -135 -303v-4q184 -58 184 -215q0 -85 -43 -152q-43 -68 -123 -117q-79 -49 -192 -73q-119 -25 -252 -25zM1128 1305l89 -88l-89 -87h-14
l-88 87l88 88h14zM1331 1305l88 -88l-88 -87h-14l-88 87l88 88h14zM51 801v4q-14 20 -24 49q-9 27 -9 49q0 38 15 68q14 28 41 55q24 24 59 39q32 14 74 14q110 0 110 -110v-43h-59v18q0 60 -63 60q-43 0 -80 -29q-35 -27 -35 -68q0 -26 16 -55q14 -25 43 -51h213v-76h-377
v76h76z" />
    <glyph glyph-name="uni062B0626" unicode="&#xfe9b;&#xfe8a;" horiz-adv-x="1460" 
d="M770 -301l-6 -4q-345 0 -510 137q-166 138 -166 430q0 82 12 162q8 51 29 151h74v-12q-18 -85 -23 -145q-6 -73 -6 -142q0 -228 148 -337t450 -109q114 0 215 16q92 15 166 43q70 27 109 72q36 42 36 94q0 35 -18 62q-21 31 -57 47q-44 20 -105 31q-54 10 -164 20
l-137 10v117l8 8l146 -12q143 -9 207 49q65 59 65 188q0 50 -10 142q-8 71 -31 184l6 8h90q18 -111 25 -176q8 -71 8 -145q0 -230 -135 -303v-4q184 -58 184 -215q0 -85 -43 -152q-43 -68 -123 -117q-79 -49 -192 -73q-119 -25 -252 -25zM1231 1499l84 -84l-84 -84h-14
l-87 84l87 84h14zM1128 1305l89 -88l-89 -87h-14l-88 87l88 88h14zM1331 1305l88 -88l-88 -87h-14l-88 87l88 88h14zM51 801v4q-14 20 -24 49q-9 27 -9 49q0 38 15 68q14 28 41 55q24 24 59 39q32 14 74 14q110 0 110 -110v-43h-59v18q0 60 -63 60q-43 0 -80 -29
q-35 -27 -35 -68q0 -26 16 -55q14 -25 43 -51h213v-76h-377v76h76z" />
    <glyph glyph-name="uni06460626" unicode="&#xfee7;&#xfe8a;" horiz-adv-x="1460" 
d="M770 -301l-6 -4q-345 0 -510 137q-166 138 -166 430q0 82 12 162q8 51 29 151h74v-12q-18 -85 -23 -145q-6 -73 -6 -142q0 -228 148 -337t450 -109q114 0 215 16q92 15 166 43q70 27 109 72q36 42 36 94q0 35 -18 62q-21 31 -57 47q-44 20 -105 31q-54 10 -164 20
l-137 10v117l8 8l146 -12q143 -9 207 49q65 59 65 188q0 50 -10 142q-8 71 -31 184l6 8h90q18 -111 25 -176q8 -71 8 -145q0 -230 -135 -303v-4q184 -58 184 -215q0 -85 -43 -152q-43 -68 -123 -117q-79 -49 -192 -73q-119 -25 -252 -25zM1229 1305l88 -88l-88 -87h-15
l-88 87l88 88h15zM51 801v4q-14 20 -24 49q-9 27 -9 49q0 38 15 68q14 28 41 55q24 24 59 39q32 14 74 14q110 0 110 -110v-43h-59v18q0 60 -63 60q-43 0 -80 -29q-35 -27 -35 -68q0 -26 16 -55q14 -25 43 -51h213v-76h-377v76h76z" />
    <glyph glyph-name="uni064A0626" unicode="&#xfef3;&#xfe8a;" horiz-adv-x="1460" 
d="M770 -301l-6 -4q-345 0 -510 137q-166 138 -166 430q0 82 12 162q8 51 29 151h74v-12q-18 -85 -23 -145q-6 -73 -6 -142q0 -228 148 -337t450 -109q114 0 215 16q92 15 166 43q70 27 109 72q36 42 36 94q0 35 -18 62q-21 31 -57 47q-44 20 -105 31q-54 10 -164 20
l-137 10v117l8 8l146 -12q143 -9 207 49q65 59 65 188q0 50 -10 142q-8 71 -31 184l6 8h90q18 -111 25 -176q8 -71 8 -145q0 -230 -135 -303v-4q184 -58 184 -215q0 -85 -43 -152q-43 -68 -123 -117q-79 -49 -192 -73q-119 -25 -252 -25zM51 801v4q-14 20 -24 49
q-9 27 -9 49q0 38 15 68q14 28 41 55q24 24 59 39q32 14 74 14q110 0 110 -110v-43h-59v18q0 60 -63 60q-43 0 -80 -29q-35 -27 -35 -68q0 -26 16 -55q14 -25 43 -51h213v-76h-377v76h76zM1151 -432l88 -88l-88 -86h-14l-88 86l88 88h14zM1354 -432l88 -88l-88 -86h-15
l-88 86l88 88h15z" />
    <glyph glyph-name="uni06260626" unicode="&#xfe8b;&#xfe8a;" horiz-adv-x="1460" 
d="M770 -301l-6 -4q-345 0 -510 137q-166 138 -166 430q0 82 12 162q8 51 29 151h74v-12q-18 -85 -23 -145q-6 -73 -6 -142q0 -228 148 -337t450 -109q114 0 215 16q92 15 166 43q70 27 109 72q36 42 36 94q0 35 -18 62q-21 31 -57 47q-44 20 -105 31q-54 10 -164 20
l-137 10v117l8 8l146 -12q143 -9 207 49q65 59 65 188q0 50 -10 142q-8 71 -31 184l6 8h90q18 -111 25 -176q8 -71 8 -145q0 -230 -135 -303v-4q184 -58 184 -215q0 -85 -43 -152q-43 -68 -123 -117q-79 -49 -192 -73q-119 -25 -252 -25zM1110 1133v4q-16 23 -25 49
q-8 24 -8 49q0 38 15 68q14 28 41 55q24 24 59 39q32 14 74 14q110 0 110 -111v-43h-59v19q0 59 -64 59q-43 0 -79 -28q-35 -27 -35 -68q0 -26 16 -55q14 -25 43 -51h213v-76h-377v76h76zM680 -494l88 -88l-88 -86h-14l-88 86l88 88h14zM883 -494l88 -88l-88 -86h-15l-88 86
l88 88h15z" />
    <glyph glyph-name="uni06CC06CC" unicode="&#xfbfe;&#xfbfd;" horiz-adv-x="1460" 
d="M770 -301l-6 -4q-345 0 -510 137q-166 138 -166 430q0 82 12 162q8 51 29 151h74v-12q-18 -85 -23 -145q-6 -73 -6 -142q0 -228 148 -337t450 -109q114 0 215 16q92 15 166 43q70 27 109 72q36 42 36 94q0 35 -18 62q-21 31 -57 47q-44 20 -105 31q-54 10 -164 20
l-137 10v117l8 8l146 -12q143 -9 207 49q65 59 65 188q0 50 -10 142q-8 71 -31 184l6 8h90q18 -111 25 -176q8 -71 8 -145q0 -230 -135 -303v-4q184 -58 184 -215q0 -85 -43 -152q-43 -68 -123 -117q-79 -49 -192 -73q-119 -25 -252 -25zM1151 -436l88 -88l-88 -86h-14
l-88 86l88 88h14zM1354 -436l88 -88l-88 -86h-15l-88 86l88 88h15z" />
    <glyph glyph-name="uni06280626.fina" unicode="&#xfe92;&#xfe8a;" horiz-adv-x="1763" 
d="M1331 -629l88 -88l-88 -86h-14l-88 86l88 88h14zM55 481v4q-14 19 -24 50q-8 24 -8 49q0 39 14 67q15 30 41 56q22 22 59 38q35 15 74 15q111 0 111 -111v-43h-60v19q0 59 -63 59q-43 0 -80 -29q-35 -27 -35 -67q0 -27 16 -56q14 -25 43 -51h213v-75h-376v75h75z
M721 -580v-6q-308 0 -467 129q-160 130 -160 404q0 75 10 157q8 67 25 146h74v-12q-15 -70 -21 -142q-6 -71 -6 -137q0 -212 143 -313t424 -101q117 0 228 19q98 17 180 49q77 30 121 74q43 43 43 96q0 58 -43 92q-45 35 -148 62l-151 43q-162 45 -225 100q-68 59 -68 162
q0 74 43 147t113 131q64 53 157 94q84 37 176 37q94 0 154 -45q62 -47 113 -149l67 -140q19 -40 53 -94q19 -30 54 -61q27 -24 61 -33q31 -8 74 -8h22v-92l-30 -31h-13q-50 0 -94 12q-40 11 -80 43q-27 22 -69 78q-32 43 -68 117l-59 121q-43 88 -92 125q-48 36 -125 36
q-72 0 -136 -20q-65 -20 -118 -55q-52 -34 -86 -80q-33 -44 -33 -92q0 -64 49 -101q43 -32 164 -69l151 -45q66 -19 123 -43q46 -20 80 -50q30 -27 45 -65t15 -90q0 -93 -52 -166q-51 -72 -141 -125t-211 -80q-132 -29 -266 -29z" />
    <glyph glyph-name="uni067E0649.fina" unicode="&#xfb59;&#xfef0;" horiz-adv-x="1763" 
d="M1219 -766l-86 86l86 84h14l86 -84l-86 -86h-14zM1417 -766l-88 86l88 84h15l86 -84l-86 -86h-15zM1317 -958l-82 84l82 81h14l84 -81l-84 -84h-14zM721 -584v-6q-308 0 -467 129q-160 130 -160 404q0 75 10 157q8 67 25 146h74v-13q-15 -71 -21 -141t-6 -137
q0 -212 143 -313t424 -101q117 0 228 19q98 17 180 49q77 30 121 74q43 43 43 96q0 58 -43 92t-148 61l-151 43q-160 45 -225 101q-68 59 -68 162q0 74 43 147t113 131q64 53 157 94q84 37 176 37q94 0 154 -45q62 -47 113 -149l67 -140q19 -40 53 -94q19 -30 54 -61
q27 -24 61 -33q31 -8 74 -8h22v-92l-30 -31h-13q-50 0 -94 12q-40 11 -80 43q-27 22 -69 78q-32 43 -68 117l-59 121q-43 87 -92 124t-125 37q-72 0 -136 -20q-65 -20 -118 -55q-52 -34 -86 -80q-33 -44 -33 -92q0 -64 49 -101q43 -32 164 -69l151 -46q66 -19 123 -43
q48 -21 80 -49q30 -27 45 -65t15 -90q0 -93 -52 -166q-51 -72 -141 -125t-211 -80q-132 -29 -266 -29z" />
    <glyph glyph-name="uni067E064A.fina" unicode="&#xfb59;&#xfef2;" horiz-adv-x="1763" 
d="M1219 -766l-86 86l86 84h14l86 -84l-86 -86h-14zM1417 -766l-88 86l88 84h15l86 -84l-86 -86h-15zM1317 -958l-82 84l82 81h14l84 -81l-84 -84h-14zM627 -776l88 -88l-88 -86h-15l-88 86l88 88h15zM829 -776l89 -88l-89 -86h-14l-88 86l88 88h14zM721 -584v-6
q-308 0 -467 129q-160 130 -160 404q0 75 10 157q8 67 25 146h74v-13q-15 -71 -21 -141t-6 -137q0 -212 143 -313t424 -101q117 0 228 19q98 17 180 49q77 30 121 74q43 43 43 96q0 58 -43 92t-148 61l-151 43q-160 45 -225 101q-68 59 -68 162q0 74 43 147t113 131
q64 53 157 94q84 37 176 37q94 0 154 -45q62 -47 113 -149l67 -140q19 -40 53 -94q19 -30 54 -61q27 -24 61 -33q31 -8 74 -8h22v-92l-30 -31h-13q-50 0 -94 12q-40 11 -80 43q-27 22 -69 78q-32 43 -68 117l-59 121q-43 87 -92 124t-125 37q-72 0 -136 -20
q-65 -20 -118 -55q-52 -34 -86 -80q-33 -44 -33 -92q0 -64 49 -101q43 -32 164 -69l151 -46q66 -19 123 -43q48 -21 80 -49q30 -27 45 -65t15 -90q0 -93 -52 -166q-51 -72 -141 -125t-211 -80q-132 -29 -266 -29z" />
    <glyph glyph-name="uni067E0626.fina" unicode="&#xfb59;&#xfe8a;" horiz-adv-x="1763" 
d="M1219 -766l-86 86l86 84h14l86 -84l-86 -86h-14zM1417 -766l-88 86l88 84h15l86 -84l-86 -86h-15zM1317 -958l-82 84l82 81h14l84 -81l-84 -84h-14zM55 481v4q-14 19 -24 50q-8 24 -8 49q0 39 14 67q15 30 41 56q22 22 59 38q35 15 74 15q111 0 111 -111v-43h-60v19
q0 59 -63 59q-43 0 -80 -29q-35 -27 -35 -67q0 -27 16 -56q14 -25 43 -51h213v-75h-376v75h75zM721 -580v-6q-308 0 -467 129q-160 130 -160 404q0 75 10 157q8 67 25 146h74v-12q-15 -70 -21 -142q-6 -71 -6 -137q0 -212 143 -313t424 -101q117 0 228 19q98 17 180 49
q77 30 121 74q43 43 43 96q0 58 -43 92q-45 35 -148 62l-151 43q-162 45 -225 100q-68 59 -68 162q0 74 43 147t113 131q64 53 157 94q84 37 176 37q94 0 154 -45q62 -47 113 -149l67 -140q19 -40 53 -94q19 -30 54 -61q27 -24 61 -33q31 -8 74 -8h22v-92l-30 -31h-13
q-50 0 -94 12q-40 11 -80 43q-27 22 -69 78q-32 43 -68 117l-59 121q-43 88 -92 125q-48 36 -125 36q-72 0 -136 -20q-65 -20 -118 -55q-52 -34 -86 -80q-33 -44 -33 -92q0 -64 49 -101q43 -32 164 -69l151 -45q66 -19 123 -43q46 -20 80 -50q30 -27 45 -65t15 -90
q0 -93 -52 -166q-51 -72 -141 -125t-211 -80q-132 -29 -266 -29z" />
    <glyph glyph-name="uni062A0626.fina" unicode="&#xfe98;&#xfe8a;" horiz-adv-x="1763" 
d="M1071 1055l88 -88l-88 -86h-14l-88 86l88 88h14zM1274 1055l88 -88l-88 -86h-14l-89 86l89 88h14zM55 481v4q-14 19 -24 50q-8 24 -8 49q0 39 14 67q15 30 41 56q22 22 59 38q35 15 74 15q111 0 111 -111v-43h-60v19q0 59 -63 59q-43 0 -80 -29q-35 -27 -35 -67
q0 -27 16 -56q14 -25 43 -51h213v-75h-376v75h75zM721 -580v-6q-308 0 -467 129q-160 130 -160 404q0 75 10 157q8 67 25 146h74v-12q-15 -70 -21 -142q-6 -71 -6 -137q0 -212 143 -313t424 -101q117 0 228 19q98 17 180 49q77 30 121 74q43 43 43 96q0 58 -43 92
q-45 35 -148 62l-151 43q-162 45 -225 100q-68 59 -68 162q0 74 43 147t113 131q64 53 157 94q84 37 176 37q94 0 154 -45q62 -47 113 -149l67 -140q19 -40 53 -94q19 -30 54 -61q27 -24 61 -33q31 -8 74 -8h22v-92l-30 -31h-13q-50 0 -94 12q-40 11 -80 43q-27 22 -69 78
q-32 43 -68 117l-59 121q-43 88 -92 125q-48 36 -125 36q-72 0 -136 -20q-65 -20 -118 -55q-52 -34 -86 -80q-33 -44 -33 -92q0 -64 49 -101q43 -32 164 -69l151 -45q66 -19 123 -43q46 -20 80 -50q30 -27 45 -65t15 -90q0 -93 -52 -166q-51 -72 -141 -125t-211 -80
q-132 -29 -266 -29z" />
    <glyph glyph-name="uni062B0626.fina" unicode="&#xfe9c;&#xfe8a;" horiz-adv-x="1763" 
d="M1174 1249l83 -84l-83 -84h-15l-86 84l86 84h15zM1071 1055l88 -88l-88 -86h-14l-88 86l88 88h14zM1274 1055l88 -88l-88 -86h-14l-89 86l89 88h14zM55 481v4q-14 19 -24 50q-8 24 -8 49q0 39 14 67q15 30 41 56q22 22 59 38q35 15 74 15q111 0 111 -111v-43h-60v19
q0 59 -63 59q-43 0 -80 -29q-35 -27 -35 -67q0 -27 16 -56q14 -25 43 -51h213v-75h-376v75h75zM721 -580v-6q-308 0 -467 129q-160 130 -160 404q0 75 10 157q8 67 25 146h74v-12q-15 -70 -21 -142q-6 -71 -6 -137q0 -212 143 -313t424 -101q117 0 228 19q98 17 180 49
q77 30 121 74q43 43 43 96q0 58 -43 92q-45 35 -148 62l-151 43q-162 45 -225 100q-68 59 -68 162q0 74 43 147t113 131q64 53 157 94q84 37 176 37q94 0 154 -45q62 -47 113 -149l67 -140q19 -40 53 -94q19 -30 54 -61q27 -24 61 -33q31 -8 74 -8h22v-92l-30 -31h-13
q-50 0 -94 12q-40 11 -80 43q-27 22 -69 78q-32 43 -68 117l-59 121q-43 88 -92 125q-48 36 -125 36q-72 0 -136 -20q-65 -20 -118 -55q-52 -34 -86 -80q-33 -44 -33 -92q0 -64 49 -101q43 -32 164 -69l151 -45q66 -19 123 -43q46 -20 80 -50q30 -27 45 -65t15 -90
q0 -93 -52 -166q-51 -72 -141 -125t-211 -80q-132 -29 -266 -29z" />
    <glyph glyph-name="uni06460626.fina" unicode="&#xfee8;&#xfe8a;" horiz-adv-x="1763" 
d="M55 481v4q-14 19 -24 50q-8 24 -8 49q0 39 14 67q15 30 41 56q22 22 59 38q35 15 74 15q111 0 111 -111v-43h-60v19q0 59 -63 59q-43 0 -80 -29q-35 -27 -35 -67q0 -27 16 -56q14 -25 43 -51h213v-75h-376v75h75zM1171 1059l89 -88l-89 -86h-14l-88 86l88 88h14z
M721 -580v-6q-308 0 -467 129q-160 130 -160 404q0 75 10 157q8 67 25 146h74v-12q-15 -70 -21 -142q-6 -71 -6 -137q0 -212 143 -313t424 -101q117 0 228 19q98 17 180 49q77 30 121 74q43 43 43 96q0 58 -43 92q-45 35 -148 62l-151 43q-162 45 -225 100q-68 59 -68 162
q0 74 43 147t113 131q64 53 157 94q84 37 176 37q94 0 154 -45q62 -47 113 -149l67 -140q19 -40 53 -94q19 -30 54 -61q27 -24 61 -33q31 -8 74 -8h22v-92l-30 -31h-13q-50 0 -94 12q-40 11 -80 43q-27 22 -69 78q-32 43 -68 117l-59 121q-43 88 -92 125q-48 36 -125 36
q-72 0 -136 -20q-65 -20 -118 -55q-52 -34 -86 -80q-33 -44 -33 -92q0 -64 49 -101q43 -32 164 -69l151 -45q66 -19 123 -43q46 -20 80 -50q30 -27 45 -65t15 -90q0 -93 -52 -166q-51 -72 -141 -125t-211 -80q-132 -29 -266 -29z" />
    <glyph glyph-name="uni064A0626.fina" unicode="&#xfef4;&#xfe8a;" horiz-adv-x="1763" 
d="M55 481v4q-14 19 -24 50q-8 24 -8 49q0 39 14 67q15 30 41 56q22 22 59 38q35 15 74 15q111 0 111 -111v-43h-60v19q0 59 -63 59q-43 0 -80 -29q-35 -27 -35 -67q0 -27 16 -56q14 -25 43 -51h213v-75h-376v75h75zM1231 -625l88 -88l-88 -86h-14l-89 86l89 88h14z
M1434 -625l88 -88l-88 -86h-15l-88 86l88 88h15zM721 -580v-6q-308 0 -467 129q-160 130 -160 404q0 75 10 157q8 67 25 146h74v-12q-15 -70 -21 -142q-6 -71 -6 -137q0 -212 143 -313t424 -101q117 0 228 19q98 17 180 49q77 30 121 74q43 43 43 96q0 58 -43 92
q-45 35 -148 62l-151 43q-162 45 -225 100q-68 59 -68 162q0 74 43 147t113 131q64 53 157 94q84 37 176 37q94 0 154 -45q62 -47 113 -149l67 -140q19 -40 53 -94q19 -30 54 -61q27 -24 61 -33q31 -8 74 -8h22v-92l-30 -31h-13q-50 0 -94 12q-40 11 -80 43q-27 22 -69 78
q-32 43 -68 117l-59 121q-43 88 -92 125q-48 36 -125 36q-72 0 -136 -20q-65 -20 -118 -55q-52 -34 -86 -80q-33 -44 -33 -92q0 -64 49 -101q43 -32 164 -69l151 -45q66 -19 123 -43q46 -20 80 -50q30 -27 45 -65t15 -90q0 -93 -52 -166q-51 -72 -141 -125t-211 -80
q-132 -29 -266 -29z" />
    <glyph glyph-name="uni06260626.fina" unicode="&#xfe8c;&#xfe8a;" horiz-adv-x="1763" 
d="M-174 481v4q-16 22 -25 50q-8 24 -8 49q0 39 14 67q15 30 41 56q21 21 60 38q34 15 74 15q110 0 110 -111v-43h-59v19q0 59 -64 59q-43 0 -80 -29q-34 -27 -34 -67q0 -27 16 -56q14 -25 43 -51h213v-75h-377v75h76zM823 887v4q-14 20 -24 49q-8 24 -8 49q0 40 14 68
t41 55q24 24 59 39q32 14 74 14q111 0 111 -110v-43h-60v18q0 60 -63 60q-43 0 -80 -29q-35 -27 -35 -68q0 -26 16 -55q14 -25 43 -51h213v-76h-376v76h75zM721 -575v-7q-308 0 -467 129q-160 130 -160 404q0 76 10 158q8 65 25 145h74v-12q-15 -70 -21 -142q-6 -71 -6 -137
q0 -212 143 -313t424 -101q117 0 228 19q98 17 180 49q77 30 121 74q43 43 43 96q0 58 -43 92q-45 35 -148 62l-151 43q-162 45 -225 100q-68 59 -68 162q0 74 43 147t113 131q64 53 157 94q84 37 176 37q94 0 154 -45q62 -47 113 -149l67 -139q20 -44 53 -95q19 -30 54 -61
q27 -24 61 -33q31 -8 74 -8h22v-92l-30 -31h-13q-50 0 -94 12q-40 11 -80 43q-27 22 -69 78q-32 43 -68 117l-59 121q-43 88 -92 125t-125 37q-69 0 -136 -21q-65 -20 -118 -55q-52 -34 -86 -80q-33 -44 -33 -92q0 -64 49 -101q43 -32 164 -69l151 -45q66 -19 123 -43
q48 -21 80 -49q29 -26 45 -66q15 -38 15 -90q0 -93 -52 -166q-51 -72 -141 -125t-211 -80q-128 -28 -266 -28z" />
    <glyph glyph-name="uni06CC06CC.fina" unicode="&#xfbff;&#xfbfd;" horiz-adv-x="1763" 
d="M1231 -629l88 -88l-88 -86h-14l-89 86l89 88h14zM1434 -629l88 -88l-88 -86h-15l-88 86l88 88h15zM721 -584v-6q-308 0 -467 129q-160 130 -160 404q0 75 10 157q8 67 25 146h74v-13q-15 -71 -21 -141t-6 -137q0 -212 143 -313t424 -101q117 0 228 19q98 17 180 49
q77 30 121 74q43 43 43 96q0 58 -43 92t-148 61l-151 43q-160 45 -225 101q-68 59 -68 162q0 74 43 147t113 131q64 53 157 94q84 37 176 37q94 0 154 -45q62 -47 113 -149l67 -140q19 -40 53 -94q19 -30 54 -61q27 -24 61 -33q31 -8 74 -8h22v-92l-30 -31h-13q-50 0 -94 12
q-40 11 -80 43q-27 22 -69 78q-32 43 -68 117l-59 121q-43 87 -92 124t-125 37q-72 0 -136 -20q-65 -20 -118 -55q-52 -34 -86 -80q-33 -44 -33 -92q0 -64 49 -101q43 -32 164 -69l151 -46q66 -19 123 -43q48 -21 80 -49q30 -27 45 -65t15 -90q0 -93 -52 -166
q-51 -72 -141 -125t-211 -80q-132 -29 -266 -29z" />
    <glyph glyph-name="uni06410626" unicode="&#xfed3;&#xfe8a;" horiz-adv-x="1476" 
d="M1188 127l-12 -4q97 -26 145 -84q47 -56 47 -133q0 -81 -43 -148q-41 -64 -123 -112q-84 -49 -192 -72q-119 -25 -252 -25q-344 0 -510 138t-166 430q0 83 12 162q8 51 29 151h74v-12q-18 -85 -23 -146q-6 -74 -6 -141q0 -230 147 -338t451 -108q114 0 215 16
q92 15 166 43q69 26 108 72q37 43 37 94q0 34 -18 61q-21 31 -57 47q-44 20 -105 31q-64 12 -164 21l-137 10v117l8 8l156 -12q160 -15 227 43q69 60 78 202l-4 2q-116 -67 -270 -67q-151 0 -236 76q-86 77 -86 221q0 81 27 161q28 83 73 142q46 61 107 98t131 37
q77 0 141 -43q65 -43 111 -123q45 -76 69 -192q25 -119 25 -252q0 -157 -43 -244q-44 -89 -137 -123v-4zM1012 489l-2 3q70 0 135 12q56 10 129 41q-6 93 -31 176t-61 139q-37 58 -86 92q-50 35 -105 35q-50 0 -92 -26q-45 -28 -74 -70q-32 -47 -49 -98q-18 -55 -18 -111
q0 -94 67 -143q68 -50 187 -50zM47 655v4q-14 19 -24 50q-9 27 -9 49q0 37 15 67t41 56q24 24 59 39q32 14 74 14q110 0 110 -111v-43h-59v19q0 59 -64 59q-42 0 -79 -29q-35 -27 -35 -67q0 -26 16 -55q15 -27 43 -52h213v-75h-377v75h76zM997 1513l88 -88l-88 -86h-14
l-88 86l88 88h14z" />
    <glyph glyph-name="uni06A40649" unicode="&#xfb6c;&#xfef0;" horiz-adv-x="1476" 
d="M1188 127l-12 -4q97 -26 145 -84q47 -56 47 -133q0 -81 -43 -148q-41 -64 -123 -112q-84 -49 -192 -72q-119 -25 -252 -25q-344 0 -510 138t-166 430q0 83 12 162q8 51 29 151h74v-12q-18 -85 -23 -146q-6 -74 -6 -141q0 -230 147 -338t451 -108q114 0 215 16
q92 15 166 43q69 26 108 72q37 43 37 94q0 34 -18 61q-21 31 -57 47q-44 20 -105 31q-64 12 -164 21l-137 10v117l8 8l156 -12q160 -15 227 43q69 60 78 202l-4 2q-116 -67 -270 -67q-151 0 -236 76q-86 77 -86 221q0 81 27 161q28 83 73 142q46 61 107 98t131 37
q77 0 141 -43q65 -43 111 -123q45 -76 69 -192q25 -119 25 -252q0 -157 -43 -244q-44 -89 -137 -123v-4zM1012 489l-2 3q70 0 135 12q56 10 129 41q-6 93 -31 176t-61 139q-37 58 -86 92q-50 35 -105 35q-50 0 -92 -26q-45 -28 -74 -70q-32 -47 -49 -98q-18 -55 -18 -111
q0 -94 67 -143q68 -50 187 -50zM999 1704l84 -84l-84 -84h-14l-86 84l86 84h14zM897 1509l88 -88l-88 -86h-14l-88 86l88 88h14zM1100 1509l88 -88l-88 -86h-15l-88 86l88 88h15z" />
    <glyph glyph-name="uni06A4064A" unicode="&#xfb6c;&#xfef2;" horiz-adv-x="1476" 
d="M1188 127l-12 -4q97 -26 145 -84q47 -56 47 -133q0 -81 -43 -148q-41 -64 -123 -112q-84 -49 -192 -72q-119 -25 -252 -25q-344 0 -510 138t-166 430q0 83 12 162q8 51 29 151h74v-12q-18 -85 -23 -146q-6 -74 -6 -141q0 -230 147 -338t451 -108q114 0 215 16
q92 15 166 43q69 26 108 72q37 43 37 94q0 34 -18 61q-21 31 -57 47q-44 20 -105 31q-64 12 -164 21l-137 10v117l8 8l156 -12q160 -15 227 43q69 60 78 202l-4 2q-116 -67 -270 -67q-151 0 -236 76q-86 77 -86 221q0 81 27 161q28 83 73 142q46 61 107 98t131 37
q77 0 141 -43q65 -43 111 -123q45 -76 69 -192q25 -119 25 -252q0 -157 -43 -244q-44 -89 -137 -123v-4zM1012 489l-2 3q70 0 135 12q56 10 129 41q-6 93 -31 176t-61 139q-37 58 -86 92q-50 35 -105 35q-50 0 -92 -26q-45 -28 -74 -70q-32 -47 -49 -98q-18 -55 -18 -111
q0 -94 67 -143q68 -50 187 -50zM672 -643l88 -88l-88 -86h-15l-88 86l88 88h15zM874 -643l89 -88l-89 -86h-14l-88 86l88 88h14zM999 1704l84 -84l-84 -84h-14l-86 84l86 84h14zM897 1509l88 -88l-88 -86h-14l-88 86l88 88h14zM1100 1509l88 -88l-88 -86h-15l-88 86l88 88
h15z" />
    <glyph glyph-name="uni06A40626" unicode="&#xfb6c;&#xfe8a;" horiz-adv-x="1476" 
d="M1188 127l-12 -4q97 -26 145 -84q47 -56 47 -133q0 -81 -43 -148q-41 -64 -123 -112q-84 -49 -192 -72q-119 -25 -252 -25q-344 0 -510 138t-166 430q0 83 12 162q8 51 29 151h74v-12q-18 -85 -23 -146q-6 -74 -6 -141q0 -230 147 -338t451 -108q114 0 215 16
q92 15 166 43q69 26 108 72q37 43 37 94q0 34 -18 61q-21 31 -57 47q-44 20 -105 31q-64 12 -164 21l-137 10v117l8 8l156 -12q160 -15 227 43q69 60 78 202l-4 2q-116 -67 -270 -67q-151 0 -236 76q-86 77 -86 221q0 81 27 161q28 83 73 142q46 61 107 98t131 37
q77 0 141 -43q65 -43 111 -123q45 -76 69 -192q25 -119 25 -252q0 -157 -43 -244q-44 -89 -137 -123v-4zM1012 489l-2 3q70 0 135 12q56 10 129 41q-6 93 -31 176t-61 139q-37 58 -86 92q-50 35 -105 35q-50 0 -92 -26q-45 -28 -74 -70q-32 -47 -49 -98q-18 -55 -18 -111
q0 -94 67 -143q68 -50 187 -50zM47 655v4q-14 19 -24 50q-9 27 -9 49q0 37 15 67t41 56q24 24 59 39q32 14 74 14q110 0 110 -111v-43h-59v19q0 59 -64 59q-42 0 -79 -29q-35 -27 -35 -67q0 -26 16 -55q15 -27 43 -52h213v-75h-377v75h76zM999 1708l84 -84l-84 -84h-14
l-86 84l86 84h14zM897 1513l88 -88l-88 -86h-14l-88 86l88 88h14zM1100 1513l88 -88l-88 -86h-15l-88 86l88 88h15z" />
    <glyph glyph-name="uni06420626" unicode="&#xfed7;&#xfe8a;" horiz-adv-x="1476" 
d="M1188 127l-12 -4q97 -26 145 -84q47 -56 47 -133q0 -81 -43 -148q-41 -64 -123 -112q-84 -49 -192 -72q-119 -25 -252 -25q-344 0 -510 138t-166 430q0 83 12 162q8 51 29 151h74v-12q-18 -85 -23 -146q-6 -74 -6 -141q0 -230 147 -338t451 -108q114 0 215 16
q92 15 166 43q69 26 108 72q37 43 37 94q0 34 -18 61q-21 31 -57 47q-44 20 -105 31q-64 12 -164 21l-137 10v117l8 8l156 -12q160 -15 227 43q69 60 78 202l-4 2q-116 -67 -270 -67q-151 0 -236 76q-86 77 -86 221q0 81 27 161q28 83 73 142q46 61 107 98t131 37
q77 0 141 -43q65 -43 111 -123q45 -76 69 -192q25 -119 25 -252q0 -157 -43 -244q-44 -89 -137 -123v-4zM1012 489l-2 3q70 0 135 12q56 10 129 41q-6 93 -31 176t-61 139q-37 58 -86 92q-50 35 -105 35q-50 0 -92 -26q-45 -28 -74 -70q-32 -47 -49 -98q-18 -55 -18 -111
q0 -94 67 -143q68 -50 187 -50zM897 1509l88 -88l-88 -86h-14l-88 86l88 88h14zM1100 1509l88 -88l-88 -86h-15l-88 86l88 88h15zM47 655v4q-14 19 -24 50q-9 27 -9 49q0 37 15 67t41 56q24 24 59 39q32 14 74 14q110 0 110 -111v-43h-59v19q0 59 -64 59q-42 0 -79 -29
q-35 -27 -35 -67q0 -26 16 -55q15 -27 43 -52h213v-75h-377v75h76z" />
    <glyph glyph-name="uni06490631.fina" unicode="&#x649;&#xfeae;" horiz-adv-x="1136" 
d="M68 -522l-11 -2q-73 0 -135 26q-66 28 -123 70v70l13 8q73 -27 116 -37q52 -12 105 -12q78 0 143 39q68 40 117 108q51 70 78 164q28 98 28 209q0 96 -24 219q-23 120 -68 246l6 10h90l33 -121l379 60v122h82v-311q0 -120 55 -172q54 -51 172 -51h13v-92l-31 -31h-2
q-143 0 -215 78t-72 239v93l-358 -56q22 -132 22 -227q0 -149 -32 -260q-35 -122 -89 -205q-56 -87 -131 -135q-76 -49 -161 -49z" />
    <glyph glyph-name="uni06490632.fina" unicode="&#x649;&#xfeb0;" horiz-adv-x="1136" 
d="M68 -522l-11 -2q-73 0 -135 26q-66 28 -123 70v70l13 8q73 -27 116 -37q52 -12 105 -12q78 0 143 39q68 40 117 108q51 70 78 164q28 98 28 209q0 96 -24 219q-23 120 -68 246l6 10h90l33 -121l379 60v122h82v-311q0 -120 55 -172q54 -51 172 -51h13v-92l-31 -31h-2
q-143 0 -215 78t-72 239v93l-358 -56q22 -132 22 -227q0 -149 -32 -260q-35 -122 -89 -205q-56 -87 -131 -135q-76 -49 -161 -49zM315 991l88 -88l-88 -86h-14l-88 86l88 88h14z" />
    <glyph glyph-name="uni067E0631.fina" unicode="&#xfb59;&#xfeae;" horiz-adv-x="1136" 
d="M68 -522l-11 -2q-73 0 -135 26q-66 28 -123 70v70l13 8q73 -27 116 -37q52 -12 105 -12q78 0 143 39q68 40 117 108q51 70 78 164q28 98 28 209q0 96 -24 219q-23 120 -68 246l6 10h90l33 -121l379 60v122h82v-311q0 -120 55 -172q54 -51 172 -51h13v-92l-31 -31h-2
q-143 0 -215 78t-72 239v93l-358 -56q22 -132 22 -227q0 -149 -32 -260q-35 -122 -89 -205q-56 -87 -131 -135q-76 -49 -161 -49zM748 -332l-86 86l86 84h14l86 -84l-86 -86h-14zM946 -332l-88 86l88 84h15l86 -84l-86 -86h-15zM846 -524l-82 84l82 82h14l84 -82l-84 -84
h-14z" />
    <glyph glyph-name="uni067E0632.fina" unicode="&#xfb59;&#xfeb0;" horiz-adv-x="1136" 
d="M68 -522l-11 -2q-73 0 -135 26q-66 28 -123 70v70l13 8q73 -27 116 -37q52 -12 105 -12q78 0 143 39q68 40 117 108q51 70 78 164q28 98 28 209q0 96 -24 219q-23 120 -68 246l6 10h90l33 -121l379 60v122h82v-311q0 -120 55 -172q54 -51 172 -51h13v-92l-31 -31h-2
q-143 0 -215 78t-72 239v93l-358 -56q22 -132 22 -227q0 -149 -32 -260q-35 -122 -89 -205q-56 -87 -131 -135q-76 -49 -161 -49zM748 -332l-86 86l86 84h14l86 -84l-86 -86h-14zM946 -332l-88 86l88 84h15l86 -84l-86 -86h-15zM846 -524l-82 84l82 82h14l84 -82l-84 -84
h-14zM315 991l88 -88l-88 -86h-14l-88 86l88 88h14z" />
    <glyph glyph-name="uni064906BA" unicode="&#x649;&#xfb9f;" horiz-adv-x="1828" 
d="M627 -424l-2 6q-258 0 -396 135q-137 134 -137 369q0 86 12 166q12 77 37 164h74v-13q-43 -157 -43 -286q0 -194 119 -301t334 -107q225 0 336 105q110 104 110 311q0 90 -18 213q-17 113 -49 246l4 10h92l24 -119l383 57v123h82v-311q0 -119 56 -172q54 -51 172 -51h12
v-92l-31 -31h-2q-143 3 -217 80t-74 239v93l-364 -58q18 -120 18 -209q0 -280 -135 -424q-134 -143 -397 -143z" />
    <glyph glyph-name="uni06490646.fina" unicode="&#x649;&#xfee6;" horiz-adv-x="1828" 
d="M627 -424l-2 6q-258 0 -396 135q-137 134 -137 369q0 86 12 166q12 77 37 164h74v-13q-43 -157 -43 -286q0 -194 119 -301t334 -107q225 0 336 105q110 104 110 311q0 90 -18 213q-17 113 -49 246l4 10h92l24 -119l383 57v123h82v-311q0 -119 56 -172q54 -51 172 -51h12
v-92l-31 -31h-2q-143 3 -217 80t-74 239v93l-364 -58q18 -120 18 -209q0 -280 -135 -424q-134 -143 -397 -143zM649 764l88 -88l-88 -86h-14l-88 86l88 88h14z" />
    <glyph glyph-name="uni067E0646.fina" unicode="&#xfb59;&#xfee6;" horiz-adv-x="1828" 
d="M627 -424l-2 6q-258 0 -396 135q-137 134 -137 369q0 86 12 166q12 77 37 164h74v-13q-43 -157 -43 -286q0 -194 119 -301t334 -107q225 0 336 105q110 104 110 311q0 90 -18 213q-17 113 -49 246l4 10h92l24 -119l383 57v123h82v-311q0 -119 56 -172q54 -51 172 -51h12
v-92l-31 -31h-2q-143 3 -217 80t-74 239v93l-364 -58q18 -120 18 -209q0 -280 -135 -424q-134 -143 -397 -143zM649 764l88 -88l-88 -86h-14l-88 86l88 88h14zM1450 -324l-86 86l86 84h14l86 -84l-86 -86h-14zM1649 -324l-88 86l88 84h14l86 -84l-86 -86h-14zM1548 -516
l-82 84l82 82h15l84 -82l-84 -84h-15z" />
    <glyph glyph-name="uni066E.init" unicode="&#x66e;" horiz-adv-x="438" 
d="M0 123l33 -4q113 0 166 59q51 57 51 182q0 76 -8 152q-8 78 -31 195l6 10h90q18 -100 27 -189q8 -76 8 -153q0 -191 -74 -283t-231 -92h-68v92z" />
    <glyph glyph-name="uni066E.medi" unicode="&#x66e;" horiz-adv-x="557" 
d="M0 123v2q143 0 252 80q-16 69 -16 141v250h81v-250q0 -119 56 -172q54 -51 172 -51h12v-92l-31 -31h-2q-87 3 -153 35q-60 29 -95 98q-51 -63 -129 -98t-178 -35v92z" />
    <glyph glyph-name="uni066E.fina" unicode="&#x66e;" horiz-adv-x="1738" 
d="M1438 211l-4 2q59 -47 135 -68q73 -20 164 -20v-90l-31 -33q-101 0 -191 37q-91 37 -168 117q-144 -86 -313 -129q-168 -43 -356 -43q-310 0 -453 96q-141 95 -141 311q0 59 12 127q9 53 35 139h76v-12q-17 -68 -25 -117q-10 -65 -10 -104q0 -162 127 -236
q125 -73 403 -73q254 0 476 80q218 79 382 229h13v-100q-46 -46 -64 -60q-4 -4 -28.5 -24t-38.5 -29z" />
    <glyph glyph-name="uni066F.fina" unicode="&#x66f;" horiz-adv-x="1388" 
d="M709 -479q-142 0 -258 35q-115 35 -193 98q-79 64 -123 160q-43 93 -43 215q0 154 55 331h78v-12q-47 -171 -47 -295q0 -185 139 -291q137 -104 392 -104q238 0 356 80t139 264h-262q-154 0 -242 76t-88 217q0 85 27 164q27 78 74 141q47 62 106 98q61 37 131 37
q79 0 140 -43q60 -42 104 -123t68 -194q25 -119 28 -252h99v-90l-31 -33h-74q-24 -244 -166 -362q-141 -117 -409 -117zM1206 123l-6 -4q-3 112 -24 200q-22 92 -58 154t-86 100q-49 37 -106 37q-50 0 -92 -26q-45 -28 -74 -70q-33 -47 -49 -98q-19 -59 -19 -111
q0 -90 68 -137q65 -45 186 -45h260z" />
    <glyph glyph-name="uni06A1.init" unicode="&#x6a1;" horiz-adv-x="870" 
d="M0 123l385 -4q156 0 229 55t82 201l-6 2q-118 -68 -270 -68q-151 0 -236 76q-86 77 -86 221q0 82 27 162q27 78 74 141q48 64 106 99q59 36 131 36q78 0 142 -43t110 -122q46 -78 70 -193q24 -114 24 -252q0 -229 -92 -332q-92 -102 -301 -102h-420v92zM434 426l-2 2
q143 0 258 53q-6 94 -31 178q-26 85 -61 140q-38 59 -82 92t-102 33q-48 0 -92 -27q-45 -28 -74 -70q-32 -47 -49 -98q-19 -59 -19 -111q0 -93 68 -143q67 -49 186 -49z" />
    <glyph glyph-name="uni06A1.medi" unicode="&#x6a1;" horiz-adv-x="862" 
d="M862 31l-31 -33h-83q-83 0 -168 16q-78 15 -152 43q-75 -29 -154 -43q-88 -16 -176 -16h-127v92l31 31h227q39 0 80 6q-92 63 -149 154q-56 89 -56 186q0 75 29 154q27 72 74 129q47 56 108 90t127 34q68 0 127 -30q58 -30 103 -84q43 -51 67 -123q25 -73 25 -148
q0 -109 -55 -200q-58 -95 -150 -158q36 -8 92 -8h211v-92zM182 489l-6 -2q0 -101 74 -190q73 -88 188 -135q104 40 172 117t68 161q0 62 -21 117q-21 57 -57 98q-40 46 -82 68q-48 25 -98 25q-49 0 -92 -21q-42 -20 -76 -57q-33 -36 -51 -82q-19 -49 -19 -99z" />
    <glyph glyph-name="uni06A1.fina" unicode="&#x6a1;" horiz-adv-x="1820" 
d="M1821 31l-33 -39h-84q-90 0 -172 18q-80 17 -154 49q-221 -84 -553 -84q-190 0 -344 23q-137 20 -229 72q-88 49 -129 127q-39 74 -39 188q0 59 12 127q9 53 35 139h76v-12q-17 -68 -25 -117q-10 -65 -10 -104q0 -83 35 -142t110 -96q78 -38 203 -53q134 -16 307 -16h267
q32 0 90 4q41 3 82 12q-93 64 -150 154q-55 88 -55 186q0 75 29 154q27 75 73 129t109 90q61 34 127 34q69 0 127 -30q56 -29 102 -84q44 -54 68 -123q24 -71 24 -148q0 -222 -207 -358q6 -1 14 -2t18.5 -2t15.5 -2q16 -2 49 -2h211v-92zM1139 483l-9 -2q0 -101 74 -190
q73 -88 189 -135q112 44 176 114q65 71 65 164q0 64 -20 117q-21 55 -58 98q-41 47 -81 68q-47 24 -99 24q-51 0 -92 -20q-42 -20 -76 -57q-33 -36 -51 -82t-18 -99z" />
    <glyph glyph-name="uni06C2.fina" unicode="&#x6c2;" horiz-adv-x="1130" 
d="M1100 0l2 2q-58 0 -101 12q-35 10 -75 41q-33 26 -58 74q-24 47 -45 117l-37 129q-20 71 -49 100q-27 27 -80 27q-77 0 -217 -64q-136 -62 -370 -202h-15v106q240 149 381 213q151 68 244 68q77 0 117 -43t67 -148l39 -131q26 -103 74 -141q46 -37 123 -37h30v-92z
M567 854v4q-14 20 -24 49q-8 24 -8 49q0 40 14 68t41 55q24 24 59 39t74 15q111 0 111 -111v-43h-60v18q0 60 -63 60q-43 0 -80 -29q-35 -27 -35 -67q0 -27 16 -56q14 -25 43 -51h213v-76h-376v76h75z" />
    <glyph glyph-name="uni06C3.fina" unicode="&#x6c3;" horiz-adv-x="1130" 
d="M1100 0l2 2q-58 0 -101 12q-35 10 -75 41q-33 26 -58 74q-24 47 -45 117l-37 129q-20 71 -49 100q-27 27 -80 27q-77 0 -217 -64q-136 -62 -370 -202h-15v106q240 149 381 213q151 68 244 68q77 0 117 -43t67 -148l39 -131q26 -103 74 -141q46 -37 123 -37h30v-92z
M586 1026l88 -88l-88 -86h-15l-88 86l88 88h15zM788 1026l89 -88l-89 -86h-14l-88 86l88 88h14z" />
    <glyph glyph-name="uniFB51" unicode="&#x671;" horiz-adv-x="509" arabic-form="final" 
d="M477 0v-2q-155 3 -229 86t-74 258v918h96v-918q0 -113 56 -166t172 -53h12v-92l-31 -31h-2zM344 1698l-6 -6q65 0 104 -45t39 -111q0 -64 -43 -104q-44 -41 -110 -41q-58 0 -111 18q-52 18 -104 18q-32 0 -62 -10q-29 -10 -47 -31h-14v66q21 24 55 39q32 14 70 14
q18 0 24 -2q45 101 97 150q48 45 108 45zM326 1464v9q45 0 67 16q23 16 23 43q0 34 -25 59t-65 25q-38 0 -74 -31t-62 -94q12 -3 34 -9t34 -9q35 -9 68 -9z" />
    <glyph glyph-name="uniFB57" unicode="&#x67e;" horiz-adv-x="1738" arabic-form="final" 
d="M1438 211l-4 2q59 -47 135 -68q73 -20 164 -20v-90l-31 -33q-101 0 -191 37q-91 37 -168 117q-144 -86 -313 -129q-168 -43 -356 -43q-310 0 -453 96q-141 95 -141 311q0 59 12 127q9 53 35 139h76v-12q-17 -68 -25 -117q-10 -65 -10 -104q0 -162 127 -236
q125 -73 403 -73q254 0 476 80q218 79 382 229h13v-100q-46 -46 -64 -60q-4 -4 -28.5 -24t-38.5 -29zM692 -328l-86 86l86 84h15l86 -84l-86 -86h-15zM891 -328l-88 86l88 84h14l86 -84l-86 -86h-14zM791 -520l-82 84l82 82h14l84 -82l-84 -84h-14z" />
    <glyph glyph-name="uniFB58" unicode="&#x67e;" horiz-adv-x="438" arabic-form="initial" 
d="M0 123l33 -4q113 0 166 59q51 57 51 182q0 76 -8 152q-8 78 -31 195l6 10h90q18 -100 27 -189q8 -76 8 -153q0 -191 -74 -283t-231 -92h-68v92zM61 -334l-86 86l86 84h15l86 -84l-86 -86h-15zM260 -334l-88 86l88 84h14l86 -84l-86 -86h-14zM160 -526l-82 84l82 82h14
l84 -82l-84 -84h-14z" />
    <glyph glyph-name="uniFB59" unicode="&#x67e;" horiz-adv-x="557" arabic-form="medial" 
d="M0 123v2q143 0 252 80q-16 69 -16 141v250h81v-250q0 -119 56 -172q54 -51 172 -51h12v-92l-31 -31h-2q-87 3 -153 35q-60 29 -95 98q-51 -63 -129 -98t-178 -35v92zM164 -328l-86 86l86 84h14l86 -84l-86 -86h-14zM362 -328l-88 86l88 84h15l86 -84l-86 -86h-15z
M262 -520l-82 84l82 82h14l84 -82l-84 -84h-14z" />
    <glyph glyph-name="uniFB67" unicode="&#x679;" horiz-adv-x="1738" arabic-form="final" 
d="M1438 211l-4 2q59 -47 135 -68q73 -20 164 -20v-90l-31 -33q-101 0 -191 37q-91 37 -168 117q-144 -86 -313 -129q-168 -43 -356 -43q-310 0 -453 96q-141 95 -141 311q0 59 12 127q9 53 35 139h76v-12q-17 -68 -25 -117q-10 -65 -10 -104q0 -162 127 -236
q125 -73 403 -73q254 0 476 80q218 79 382 229h13v-100q-46 -46 -64 -60q-4 -4 -28.5 -24t-38.5 -29zM643 741l19 33v361h65v-263q43 52 78 72q41 23 78 23q65 0 104 -45t39 -111q0 -63 -47 -104t-117 -41h-293v75h74zM872 735q46 0 68 19q23 20 23 47q0 34 -25 59t-66 25
q-47 0 -90 -37t-80 -113h170z" />
    <glyph glyph-name="uniFB68" unicode="&#x679;" horiz-adv-x="438" arabic-form="initial" 
d="M0 123l33 -4q113 0 166 59q51 57 51 182q0 76 -8 152q-8 78 -31 195l6 10h90q18 -100 27 -189q8 -76 8 -153q0 -191 -74 -283t-231 -92h-68v92zM80 940l18 33v360h66v-262q43 52 78 72q39 22 77 22q66 0 105 -45t39 -110q0 -64 -47 -105t-117 -41h-293v76h74zM309 934
q47 0 68 18q22 19 22 47q0 36 -24 60t-66 24q-48 0 -90 -36q-43 -37 -80 -113h170z" />
    <glyph glyph-name="uniFB69" unicode="&#x679;" horiz-adv-x="557" arabic-form="medial" 
d="M0 123v2q143 0 252 80q-16 69 -16 141v250h81v-250q0 -119 56 -172q54 -51 172 -51h12v-92l-31 -31h-2q-87 3 -153 35q-60 29 -95 98q-51 -63 -129 -98t-178 -35v92zM123 823l18 33v361h66v-263q43 52 78 72q41 23 77 23q66 0 105 -45t39 -111q0 -64 -47 -105
q-46 -40 -117 -40h-293v75h74zM352 817q46 0 68 19t22 47q0 35 -24 59q-25 25 -66 25q-47 0 -90 -37t-80 -113h170z" />
    <glyph glyph-name="uniFB6B" unicode="&#x6a4;" horiz-adv-x="1820" arabic-form="final" 
d="M1821 31l-33 -39h-84q-90 0 -172 18q-80 17 -154 49q-221 -84 -553 -84q-190 0 -344 23q-137 20 -229 72q-88 49 -129 127q-39 74 -39 188q0 59 12 127q9 53 35 139h76v-12q-17 -68 -25 -117q-10 -65 -10 -104q0 -83 35 -142t110 -96q78 -38 203 -53q134 -16 307 -16h267
q32 0 90 4q41 3 82 12q-93 64 -150 154q-55 88 -55 186q0 75 29 154q27 75 73 129t109 90q61 34 127 34q69 0 127 -30q56 -29 102 -84q44 -54 68 -123q24 -71 24 -148q0 -222 -207 -358q6 -1 14 -2t18.5 -2t15.5 -2q16 -2 49 -2h211v-92zM1139 483l-9 -2q0 -101 74 -190
q73 -88 189 -135q112 44 176 114q65 71 65 164q0 64 -20 117q-21 55 -58 98q-41 47 -81 68q-47 24 -99 24q-51 0 -92 -20q-42 -20 -76 -57q-33 -36 -51 -82t-18 -99zM1399 1458l84 -84l-84 -84h-15l-86 84l86 84h15zM1296 1264l88 -88l-88 -86h-14l-88 86l88 88h14z
M1499 1264l88 -88l-88 -86h-14l-88 86l88 88h14z" />
    <glyph glyph-name="uniFB6C" unicode="&#x6a4;" horiz-adv-x="870" arabic-form="initial" 
d="M0 123l385 -4q156 0 229 55t82 201l-6 2q-118 -68 -270 -68q-151 0 -236 76q-86 77 -86 221q0 82 27 162q27 78 74 141q48 64 106 99q59 36 131 36q78 0 142 -43t110 -122q46 -78 70 -193q24 -114 24 -252q0 -229 -92 -332q-92 -102 -301 -102h-420v92zM434 426l-2 2
q143 0 258 53q-6 94 -31 178q-26 85 -61 140q-38 59 -82 92t-102 33q-48 0 -92 -27q-45 -28 -74 -70q-32 -47 -49 -98q-19 -59 -19 -111q0 -93 68 -143q67 -49 186 -49zM422 1640l84 -84l-84 -83h-14l-86 83l86 84h14zM319 1446l89 -88l-89 -86h-14l-88 86l88 88h14z
M522 1446l88 -88l-88 -86h-14l-88 86l88 88h14z" />
    <glyph glyph-name="uniFB6D" unicode="&#x6a4;" horiz-adv-x="862" arabic-form="medial" 
d="M862 31l-31 -33h-83q-83 0 -168 16q-78 15 -152 43q-75 -29 -154 -43q-88 -16 -176 -16h-127v92l31 31h227q39 0 80 6q-92 63 -149 154q-56 89 -56 186q0 75 29 154q27 72 74 129q47 56 108 90t127 34q68 0 127 -30q58 -30 103 -84q43 -51 67 -123q25 -73 25 -148
q0 -109 -55 -200q-58 -95 -150 -158q36 -8 92 -8h211v-92zM182 489l-6 -2q0 -101 74 -190q73 -88 188 -135q104 40 172 117t68 161q0 62 -21 117q-21 57 -57 98q-40 46 -82 68q-48 25 -98 25q-49 0 -92 -21q-42 -20 -76 -57q-33 -36 -51 -82q-19 -49 -19 -99zM434 1464
l84 -84l-84 -84h-14l-86 84l86 84h14zM332 1270l88 -88l-88 -86h-15l-88 86l88 88h15zM535 1270l88 -88l-88 -86h-15l-88 86l88 88h15z" />
    <glyph glyph-name="uniFB7B" unicode="&#x686;" horiz-adv-x="1320" arabic-form="final" 
d="M1321 31l-33 -37h-55q-152 3 -223 86q-70 82 -70 264v229l-133 -49q-166 -65 -270 -118q-119 -61 -203 -136q-82 -73 -125 -161q-43 -87 -43 -199q0 -105 39 -184q43 -87 112 -142q76 -60 183 -90q112 -31 245 -31q129 0 250 31q110 28 205 78h14v-98q-82 -64 -215 -105
q-127 -39 -276 -39q-154 0 -270 39q-123 41 -203 113q-84 75 -127 176t-43 227q0 130 47 236q45 103 139 190q92 86 228 160q146 80 309 145l153 60v4l-594 57q-66 6 -96 -12t-30 -88v-68h-76v150q0 91 43 121t159 18l547 -59q16 -2 45 -6t41 -5q46 -4 62 -4h53h55h23v-116
l-164 -60v-260q0 -122 55 -174q54 -51 176 -51h66v-92zM526 -47l-88 88l88 86h15l88 -86l-88 -88h-15zM729 -47l-88 88l88 86h14l88 -86l-88 -88h-14zM629 -242l-86 84l86 84h14l84 -84l-84 -84h-14z" />
    <glyph glyph-name="uniFB7C" unicode="&#x686;" horiz-adv-x="1234" arabic-form="initial" 
d="M1061 444l-305 -229q-60 -46 -144 -100q-69 -45 -135 -68q-73 -26 -141 -37q-74 -12 -166 -12h-209v92l31 31h178q93 0 156 8t137 31q70 22 135 55q68 35 147 90l216 152v4l-492 131q-63 18 -86 24q-44 11 -55 13q-25 3 -37 6q-10 2 -27 2q-80 0 -80 -88v-78h-78v139
q0 77 37 111q38 35 105 35q34 0 94 -13l164 -41l393 -108q73 -21 123 -27t117 -6h55v-117h-133zM457 -332l-86 86l86 84h14l86 -84l-86 -86h-14zM655 -332l-88 86l88 84h15l86 -84l-86 -86h-15zM555 -524l-82 84l82 82h14l84 -82l-84 -84h-14z" />
    <glyph glyph-name="uniFB7D" unicode="&#x686;" horiz-adv-x="1300" arabic-form="medial" 
d="M1300 31l-36 -37h-2q-152 3 -222 76q-69 72 -69 229v80l-213 -166q-60 -46 -144 -100q-69 -45 -135 -68q-73 -26 -141 -37q-74 -12 -166 -12h-209v92l31 31h178q93 0 156 8t137 31q70 22 135 55q71 36 148 90l215 152v4l-492 131q-63 18 -86 24q-44 11 -55 13
q-24 3 -37 6q-10 2 -27 2q-80 0 -80 -88v-78h-77v139q0 78 36 111q38 35 105 35q34 0 94 -13q16 -4 39.5 -9.5t61 -15.5t63.5 -16l393 -108q73 -21 123 -27t117 -6h55v-117h-133v-120q0 -113 49 -156t176 -43h12v-92zM461 -336l-86 86l86 84h14l86 -84l-86 -86h-14z
M659 -336l-88 86l88 84h15l86 -84l-86 -86h-15zM559 -528l-82 84l82 82h14l84 -82l-84 -84h-14z" />
    <glyph glyph-name="uniFB89" unicode="&#x688;" horiz-adv-x="1085" arabic-form="final" 
d="M813 348l-6 2q29 -102 90 -166q58 -61 182 -61v-92l-30 -31q-97 0 -158 37q-62 38 -105 110q-61 -78 -163 -122q-101 -43 -240 -43q-89 0 -150 12q-54 11 -100 41q-38 25 -57 74t-19 110v66h78v-43q0 -79 62 -109q64 -31 217 -31q108 0 194 27q88 28 146 80
q-3 9 -9.5 27.5t-9.5 27.5q-3 8 -6 18t-6.5 22.5t-5.5 19.5l-176 600v16h98zM410 1169l18 33v361h66v-263q44 53 77 72q41 23 78 23q66 0 105 -45t39 -111q0 -62 -48 -104q-47 -41 -116 -41h-293v75h74zM639 1163q46 0 68 19t22 47q0 35 -24 59q-25 25 -66 25q-47 0 -90 -37
t-80 -113h170z" />
    <glyph glyph-name="uniFB8B" unicode="&#x698;" horiz-adv-x="733" arabic-form="final" 
d="M68 -522l-15 -6q-73 0 -135 26q-66 28 -123 70v70l12 8q71 -27 117 -37q52 -12 105 -12q80 0 143 38q66 40 117 109q51 70 78 164q28 98 28 209q0 59 -18 170q-16 96 -49 233l6 10h90l45 -231q17 -95 78 -137q56 -39 182 -39v-90l-33 -33q-78 0 -131 18q-51 17 -86 62
l-4 -2q-6 -139 -39 -244q-36 -115 -88 -190q-55 -78 -127 -123q-70 -43 -153 -43zM332 1120l84 -84l-84 -84h-15l-86 84l86 84h15zM229 926l88 -88l-88 -86h-14l-88 86l88 88h14zM432 926l88 -88l-88 -86h-14l-88 86l88 88h14z" />
    <glyph glyph-name="uniFB8D" unicode="&#x691;" horiz-adv-x="733" arabic-form="final" 
d="M68 -522l-15 -6q-73 0 -135 26q-66 28 -123 70v70l12 8q71 -27 117 -37q52 -12 105 -12q80 0 143 38q66 40 117 109q51 70 78 164q28 98 28 209q0 59 -18 170q-16 96 -49 233l6 10h90l45 -231q17 -95 78 -137q56 -39 182 -39v-90l-33 -33q-78 0 -131 18q-51 17 -86 62
l-4 -2q-6 -139 -39 -244q-36 -115 -88 -190q-55 -78 -127 -123q-70 -43 -153 -43zM168 754l18 32v361h66v-262q41 50 78 71q41 23 78 23q65 0 104 -45t39 -111q0 -63 -47 -104t-117 -41h-293v76h74zM397 748q47 0 68 18q22 19 22 47q0 35 -24 59q-25 25 -66 25
q-47 0 -90 -37t-80 -112h170z" />
    <glyph glyph-name="uniFB8F" unicode="&#x6a9;" horiz-adv-x="1859" arabic-form="final" 
d="M672 -18l-4 2q-305 0 -445 96q-137 94 -137 307q0 59 12 127q9 53 35 139h76v-12q-18 -68 -25 -117q-10 -65 -10 -104q0 -162 123 -236q122 -73 397 -73q201 0 381 49q181 49 322 141l-398 596v121l850 516h15v-111l-772 -467l403 -606q47 -70 80 -108q38 -44 74 -70
q38 -28 77 -39q40 -12 93 -12h41v-90l-31 -33q-58 0 -113 10q-44 8 -94 37q-41 24 -88 74q-46 49 -92 112h-4q-144 -121 -346 -186q-195 -63 -420 -63z" />
    <glyph glyph-name="uniFB90" unicode="&#x6a9;" horiz-adv-x="815" arabic-form="initial" 
d="M164 963l194 -209q77 -77 121 -129q51 -60 80 -111q31 -55 45 -100q14 -46 14 -101q0 -144 -92 -227q-91 -82 -258 -82h-303v92l31 31h272q131 0 201 49q72 51 72 139q0 29 -11 66q-9 31 -30 65q-16 27 -60 74q-25 27 -90 92l-287 287v121l850 516h15v-111z" />
    <glyph glyph-name="uniFB91" unicode="&#x6a9;" horiz-adv-x="948" arabic-form="medial" 
d="M0 123l199 -2q255 0 270 192l-389 584v121l850 516h12v-111l-772 -467l405 -606q47 -70 80 -108q38 -44 74 -70q37 -27 78 -39t92 -12h41v-90l-31 -33q-57 0 -112 10q-46 8 -92 37q-42 26 -87 74q-46 49 -92 112l-6 -2q-21 -106 -104 -168q-82 -61 -215 -61h-232v92z" />
    <glyph glyph-name="uniFB93" unicode="&#x6af;" horiz-adv-x="1859" arabic-form="final" 
d="M672 -18l-4 2q-305 0 -445 96q-137 94 -137 307q0 59 12 127q9 53 35 139h76v-12q-18 -68 -25 -117q-10 -65 -10 -104q0 -162 123 -236q122 -73 397 -73q201 0 381 49q181 49 322 141l-398 596v121l850 516h15v-111l-772 -467l403 -606q47 -70 80 -108q38 -44 74 -70
q38 -28 77 -39q40 -12 93 -12h41v-90l-31 -33q-58 0 -113 10q-44 8 -94 37q-41 24 -88 74q-46 49 -92 112h-4q-144 -121 -346 -186q-195 -63 -420 -63zM991 1202l850 516h14v-73l-849 -517h-15v74z" />
    <glyph glyph-name="uniFB94" unicode="&#x6af;" horiz-adv-x="815" arabic-form="initial" 
d="M164 963l194 -209q77 -77 121 -129q51 -60 80 -111q31 -55 45 -100q14 -46 14 -101q0 -144 -92 -227q-91 -82 -258 -82h-303v92l31 31h272q131 0 201 49q72 51 72 139q0 29 -11 66q-9 31 -30 65q-16 27 -60 74q-25 27 -90 92l-287 287v121l850 516h15v-111zM57 1202
l850 516h15v-73l-850 -517h-15v74z" />
    <glyph glyph-name="uniFB95" unicode="&#x6af;" horiz-adv-x="948" arabic-form="medial" 
d="M0 123l199 -2q255 0 270 192l-389 584v121l850 516h12v-111l-772 -467l405 -606q47 -70 80 -108q38 -44 74 -70q37 -27 78 -39t92 -12h41v-90l-31 -33q-57 0 -112 10q-46 8 -92 37q-42 26 -87 74q-46 49 -92 112l-6 -2q-21 -106 -104 -168q-82 -61 -215 -61h-232v92z
M82 1198l850 516h14v-74l-850 -516h-14v74z" />
    <glyph glyph-name="uniFB9F" unicode="&#x6ba;" horiz-adv-x="1413" arabic-form="final" 
d="M631 -479v2q-251 0 -395 129t-144 375q0 83 14 163q13 73 37 168h74v-12q-43 -157 -43 -287q0 -198 123 -303q122 -104 334 -104q232 0 338 106q108 108 108 338q0 66 -14 154q-17 109 -49 244l4 10h92l41 -201q21 -101 82 -141q59 -39 178 -39h2v-90l-31 -33h-2
q-154 0 -221 88l-6 -2q-6 -565 -522 -565z" />
    <glyph glyph-name="uniFBA7" unicode="&#x6c1;" horiz-adv-x="1130" arabic-form="final" 
d="M1100 0l2 2q-58 0 -101 12q-35 10 -75 41q-33 26 -58 74q-24 47 -45 117l-37 129q-20 71 -49 100q-27 27 -80 27q-77 0 -217 -64q-136 -62 -370 -202h-15v106q240 149 381 213q151 68 244 68q77 0 117 -43t67 -148l39 -131q26 -103 74 -141q46 -37 123 -37h30v-92z" />
    <glyph glyph-name="uniFBA8" unicode="&#x6c1;" horiz-adv-x="948" arabic-form="initial" 
d="M827 594l-2 -4q16 -123 17 -129q6 -61 6 -113q0 -196 -74 -282t-231 -86q-201 0 -269 147q-99 -129 -307 -129v92l31 31q156 0 252 78q-9 30 -12 67q-2 25 -2 78v127h81v-127q0 -121 56 -180q55 -58 172 -58q113 0 166 56t53 184q0 46 -6 105t-21 135l6 8h84zM152 -377
l-5 -2q0 44 25 105q26 63 82 151h68v-12q-55 -92 -74 -135q-21 -46 -21 -74q0 -59 97 -59v-99q-6 -2 -19 -2h-22q-71 0 -101 37t-30 90z" />
    <glyph glyph-name="uniFBA9" unicode="&#x6c1;" horiz-adv-x="948" arabic-form="medial" 
d="M948 31l-33 -33h-116q-81 0 -113 -29q-31 -28 -31 -104v-283l-84 -90l-155 148q-203 191 -203 378q0 56 14 99l-4 2q-61 -67 -112 -92q-55 -27 -140 -27v92l31 31q46 0 84 12q35 11 72 37q28 19 71 66q36 39 86 98l56 70l63 -54l-53 -69q-84 -113 -84 -215q0 -84 49 -166
q53 -88 154 -176l75 -72v213q0 146 52 201t180 55h141v-92z" />
    <glyph glyph-name="uniFBAB" unicode="&#x6be;" horiz-adv-x="1103" arabic-form="final" 
d="M680 -479l-4 2q-194 0 -293 129q-98 128 -107 350q-76 4 -116 8q-32 3 -113 17v96h236q15 110 57 211q46 110 100 184q58 80 129 129q70 49 142 49q96 0 151 -67q56 -68 56 -180q0 -106 -48 -191q-46 -82 -127 -129v-6h361v-92l-31 -31h-186l-2 -4q82 -64 82 -184
q0 -58 -23 -115q-21 -52 -61 -92q-42 -42 -92 -62q-55 -22 -111 -22zM483 125l-4 2q160 0 254 82t94 209q0 72 -36 114q-37 43 -101 43q-59 0 -112 -36t-101 -99q-46 -61 -76 -143q-31 -86 -43 -172h125zM672 -352v-4q89 0 147 49q60 51 60 127q0 91 -70 143q-68 51 -197 51
q-78 0 -123 -2t-139 -6q9 -174 92 -266t230 -92z" />
    <glyph glyph-name="uniFBAC" unicode="&#x6be;" horiz-adv-x="1202" arabic-form="initial" 
d="M694 768l-4 -4q119 -60 197 -111q82 -54 129 -104q50 -53 71 -111q23 -64 23 -129q0 -71 -27 -129q-26 -57 -75 -100q-50 -44 -121 -68t-160 -24t-168 18t-151 53q-70 -28 -146 -43q-82 -16 -164 -16h-127v92l31 31h176q37 0 55 2q9 1 28 3t28 3q-85 62 -137 152
q-50 86 -50 184q0 50 17 113q13 50 43 104q25 46 65 86q36 36 84 61v119l11 6zM178 487l-4 -6q0 -96 72 -180q70 -82 188 -135q98 46 154 117q55 70 55 163q0 62 -18 117q-15 47 -50 94q-30 40 -73 64q-44 24 -92 24q-50 0 -91 -20q-45 -22 -73 -57q-33 -42 -49 -82
q-19 -49 -19 -99zM729 102l-6 -6q139 0 215 54q74 53 74 145q0 40 -17 86q-15 40 -53 78q-38 37 -96 78q-37 25 -146 81q19 -65 19 -131q0 -109 -49 -200q-50 -93 -138 -160q46 -12 97 -18q58 -7 100 -7z" />
    <glyph glyph-name="uniFBAD" unicode="&#x6be;" horiz-adv-x="948" arabic-form="medial" 
d="M526 -479l-6 -4q-100 0 -172 34t-123 97q-47 58 -75 151q-28 92 -31 199h-156v92l31 31h131q15 110 57 211t103 184q59 80 129 129t141 49q95 0 150 -67t55 -181q0 -110 -45 -190q-47 -82 -129 -129v-6h360v-92l-31 -31h-184l-2 -4q40 -30 62 -78q22 -49 22 -104
q0 -60 -22 -115q-20 -50 -62 -92t-92 -62q-55 -22 -111 -22zM328 119q73 0 141 22q64 21 111 62q48 42 71 92q25 55 25 117q0 71 -37 114t-100 43q-58 0 -113 -37q-53 -36 -100 -98q-45 -60 -80 -143q-32 -77 -45 -172h127zM520 -360l-2 -5q87 0 146 50t59 127q0 91 -70 143
q-68 51 -196 51q-78 0 -123 -2t-139 -6q9 -174 92 -266t233 -92z" />
    <glyph glyph-name="uniFBAF" unicode="&#x6d2;" horiz-adv-x="1646" arabic-form="final" 
d="M831 -463l-2 -2q-397 0 -583 55q-187 55 -187 172q0 78 39 140q40 63 109 114q70 51 164 78q101 29 209 29h1067v-92l-31 -31h-1036q-110 0 -193 -18q-75 -16 -137 -50q-55 -30 -82 -67t-27 -70q0 -62 176 -100q173 -37 517 -37q62 0 202 4q72 2 207 10q103 6 197 15
q100 9 172 18h10v-98q-70 -15 -162 -27q-114 -15 -196 -22q-107 -9 -215 -15q-111 -6 -218 -6z" />
    <glyph glyph-name="uniFBB1" unicode="&#x6d3;" horiz-adv-x="1646" arabic-form="final" 
d="M831 -463l-2 -2q-397 0 -583 55q-187 55 -187 172q0 78 39 140q40 63 109 114q70 51 164 78q101 29 209 29h1067v-92l-31 -31h-1036q-110 0 -193 -18q-75 -16 -137 -50q-55 -30 -82 -67t-27 -70q0 -62 176 -100q173 -37 517 -37q62 0 202 4q72 2 207 10q103 6 197 15
q100 9 172 18h10v-98q-70 -15 -162 -27q-114 -15 -196 -22q-107 -9 -215 -15q-111 -6 -218 -6zM465 348v4q-16 23 -25 49q-8 24 -8 50q0 39 14 67t41 55q23 23 60 39q35 15 74 15q110 0 110 -111v-43h-59v19q0 59 -64 59q-43 0 -80 -29q-34 -27 -34 -67q0 -27 16 -56
q14 -25 43 -51h213v-76h-377v76h76z" />
    <glyph glyph-name="uniFBFD" unicode="&#x6cc;" horiz-adv-x="1433" arabic-form="final" 
d="M770 -479l-10 -13q-344 0 -510 138t-166 430q0 82 12 162q8 51 29 151h74v-12q-18 -85 -23 -146q-6 -73 -6 -141q0 -230 147 -338t451 -108q114 0 215 16q96 15 166 45q68 29 108 72q37 40 37 90q0 35 -16 61q-16 25 -53 43q-40 19 -103 31q-64 12 -159 27l-148 20v115
l8 8l142 -18q135 -18 229 -25q104 -8 242 -8v-90l-31 -33h-76q51 -34 51 -104q0 -86 -43 -156q-42 -69 -123 -119q-81 -51 -192 -74q-114 -24 -252 -24z" />
    <glyph glyph-name="uniFBFE" unicode="&#x6cc;" horiz-adv-x="438" arabic-form="initial" 
d="M0 123l33 -4q113 0 166 59q51 57 51 182q0 76 -8 152q-8 78 -31 195l6 10h90q18 -100 27 -189q8 -76 8 -153q0 -191 -74 -283t-231 -92h-68v92zM74 -197l88 -88l-88 -86h-15l-88 86l88 88h15zM276 -197l89 -88l-89 -86h-14l-88 86l88 88h14z" />
    <glyph glyph-name="uniFBFF" unicode="&#x6cc;" horiz-adv-x="557" arabic-form="medial" 
d="M0 123v2q143 0 252 80q-16 69 -16 141v250h81v-250q0 -119 56 -172q54 -51 172 -51h12v-92l-31 -31h-2q-87 3 -153 35q-60 29 -95 98q-51 -63 -129 -98t-178 -35v92zM176 -190l88 -89l-88 -86h-14l-88 86l88 89h14zM379 -190l88 -89l-88 -86h-14l-89 86l89 89h14z" />
    <glyph glyph-name="uniFDF4" unicode="&#xfdf4;" horiz-adv-x="1853" arabic-form="isolated" 
d="M391 -16v-2q-178 0 -254 55t-76 188v66h80v-43q0 -41 15 -68q16 -29 49 -43q38 -17 88 -22q55 -6 133 -6q213 0 338 98l-215 729v16h100l213 -725q24 -84 62 -141t110 -86l4 6q-30 27 -30 66q0 91 84 166q82 74 282 153l133 51v7h-569v77q0 79 55 164q56 87 185 160v199
q0 49 12 84q11 32 31 55q19 22 43 31q27 10 47 10q33 0 67 -12q32 -11 105 -50l86 -43q45 -20 61 -43q17 -24 17 -61v-117l-199 -59q-189 -59 -295 -131q-104 -71 -143 -144h798v-127l-274 -92q-234 -75 -344 -139q-105 -61 -105 -125q0 -54 62 -84q67 -33 196 -47l48 -8
l-15 -123l-289 41q-115 15 -186 80t-117 190q-130 -151 -393 -151zM1249 879l-4 -2q92 42 234 79l98 31l-90 47q-68 37 -107 51q-37 13 -55 13q-39 0 -57 -27q-19 -29 -19 -76v-116z" />
    <glyph glyph-name="uniFDFA" unicode="&#xfdfa;" horiz-adv-x="2058" arabic-form="isolated" 
d="M1356 494l-23 -2q-89 0 -116 55q-40 -55 -117 -55h-88v-314q0 -39 16 -61q15 -21 62 -21q53 0 67 17q12 15 12 49v55h64v-53v-31q0 -19 -2 -27q35 -18 80 -18q40 0 49 21q10 23 10 55v55h64v-53v-33q0 -21 -2 -31q27 -12 57 -12q53 0 53 60q0 33 -2 53q-5 50 -6 59l2 6
h66q8 -48 10 -67q4 -46 4 -56q0 -159 -125 -159q-50 0 -84 34q-27 -34 -86 -34q-38 0 -68 12t-51 33q-37 -37 -112 -37q-52 0 -82 12q-29 11 -45 41q-46 -55 -129 -55q-47 0 -74 18q-28 19 -49 62l-11 -82l-116 18q-35 3 -62 12q-25 8 -49 29q-34 -55 -111 -55h-278v100h297
q33 0 57 12q-2 6 -2 23v27q0 35 19 71q18 34 49 62q33 30 69 43q43 16 86 16q22 0 31 -6q10 -7 19 -27l47 -139q14 -45 37 -61q24 -17 69 -17q46 0 92 21q-2 6 -2 22v25v328h-487q-53 0 -86 26q-32 25 -45 74h-4q-18 -35 -51 -49q-39 -17 -68 -17q-57 0 -92 35
q-33 33 -33 80q0 52 37 92q36 39 108 74l97 47v64h78v-248q0 -34 12 -58t65 -24h469v328h76v-328h107q8 0 36 4q20 3 43 16q-2 8 -2 25v31v145h70v-135q0 -48 18 -66t78 -18q47 0 80 20q-2 6 -2 23v24v449h76v-434q0 -41 16 -60q15 -18 68 -18h78q-13 13 -27 41
q-12 24 -12 53q0 38 14 70q15 35 39 59q27 27 55 41t66 14q77 0 119 -36v-99h-9q-23 17 -55 25q-38 10 -67 10q-49 0 -82 -20t-33 -58q0 -30 24 -57q23 -26 66 -39q47 2 98 10q29 4 86 19h4v-90q-53 -21 -143 -33q-91 -12 -244 -12q-89 0 -116 53q-41 -53 -121 -53z
M1307 1165l-15 4q-82 0 -110 48q-26 -33 -58 -43q15 -15 15 -44q0 -72 -56 -110q-55 -37 -194 -37h-821v100h841q107 0 148 15q39 14 39 37q0 21 -21 30t-74 15l-55 6v94l2 4l49 -6q44 -3 66 -6q16 -2 47 -2q29 0 61 14q-2 8 -2 25v26v416h76v-403q0 -40 17 -60
q15 -18 67 -18q9 0 37 4q22 3 43 12q-2 6 -2 31v72h70v-58q0 -12 4 -28q4 -14 18 -23l68 88q66 86 123 125q55 37 118 37q70 0 115 -51q47 -53 47 -129q0 -85 -51 -136t-137 -51h-209q-47 0 -88 13q-38 12 -58 45q-41 -56 -120 -56zM440 1153l-8 -2q-68 0 -98 35
q-33 38 -41 80h-2q-17 -33 -49 -49q-34 -17 -68 -17q-57 0 -92 35q-33 33 -33 80q0 52 37 92q35 38 109 74l96 47v65h78v-256q0 -28 16 -57q15 -27 72 -27q20 0 49 11t41 18q-4 12 -4 18v21v276h75v-262q0 -39 19 -61q20 -23 72 -23q45 0 61 23q16 22 16 49v428h76v-434
q0 -70 -35 -117q-33 -45 -120 -45q-118 0 -148 64q-14 -26 -43 -45q-27 -18 -76 -21zM1737 -127l-6 -8q-39 0 -74 12q-20 7 -70 35v61l6 7q77 -21 136 -21q66 0 108 39q44 41 53 104l-2 2q-54 -28 -116 -28q-71 0 -111 37q-39 36 -39 106q0 86 47 148q45 60 111 63
q33 0 63 -18q33 -20 53 -56q25 -44 35 -92q13 -60 13 -119q0 -52 -17 -108q-14 -45 -43 -86q-25 -35 -65 -57q-37 -21 -82 -21zM1520 1260l34 2h238q47 0 74 18q26 17 26 53q0 44 -32 66q-34 24 -88 24q-65 0 -113 -26q-50 -27 -105 -88l-34 -41v-8zM958 1743h76v-406h-76
v406zM1782 176v-2q42 0 98 16q-8 55 -41 99q-30 41 -76 41q-38 0 -67 -29q-27 -27 -27 -61q0 -64 113 -64zM1276 1450l557 248h8v-39l-557 -250h-8v41zM446 168h-2q0 -28 23 -41q21 -12 68 -18l131 -19v4v4l-41 119q-9 21 -21 27t-33 6q-45 0 -86 -27q-39 -26 -39 -55z
M170 1288l2 -4q25 0 55 10q21 7 49 23v135l-79 -31q-105 -41 -105 -80q0 -28 23 -41q21 -12 55 -12zM172 614v-4q50 0 104 31v133l-79 -29q-46 -14 -76 -34q-27 -18 -27 -45q0 -26 23 -39t55 -13zM1196 852l-4 -2q-33 0 -55 22q-21 21 -21 54q0 37 23 67q23 29 55 29
q34 0 55 -27q23 -30 23 -67q0 -35 -21 -56q-20 -20 -55 -20zM94 244l412 182h8v-39l-412 -184h-8v41zM440 756l346 155h9v-41l-346 -153h-9v39zM1055 279l329 147h9v-39l-330 -149h-8v41zM500 1620v2q-54 0 -54 66v34h31v-28q0 -25 23 -25q30 0 30 47v39h31v-45l12 -4
q4 -2 15 -2q26 0 26 29q0 15 -10 53h31q3 -12 6 -27q2 -10 2 -30q0 -72 -51 -72q-20 0 -37 10q-12 -47 -55 -47zM672 647v2q-54 0 -54 66v35h31v-29q0 -25 23 -25q30 0 30 47v39h31v-45l12 -4q4 -2 15 -2q26 0 26 29q0 15 -10 53h31q3 -12 6 -27q2 -10 2 -30q0 -72 -51 -72
q-20 0 -37 10q-12 -47 -55 -47zM1313 1524v2q-53 0 -53 65v33h30v-27q0 -26 23 -26q30 0 30 47v41h31v-45q12 -6 27 -6q26 0 26 28q0 16 -10 54h31q3 -12 6 -27q2 -10 2 -31q0 -73 -51 -73q-22 0 -37 12q-12 -47 -55 -47zM1526 901l301 135h6v-41l-301 -135h-6v41zM1192 901
h-2q51 0 51 35q0 20 -14 31q-15 12 -37 12q-23 0 -35 -12t-12 -31q0 -35 49 -35zM770 279v6l47 49l47 -49v-6l-47 -50zM770 387v6l47 49l47 -49v-6l-47 -47z" />
    <glyph glyph-name="uniFDFB" unicode="&#xfdfb;" horiz-adv-x="5246" arabic-form="isolated" 
d="M1542 -14l-29 -19q-77 0 -151 6q-75 6 -145 21v96h296h64q23 0 59 4l-266 1131v12h103l262 -1126q151 35 245 139q-2 14 -2 43v43v1171h97v-1161q0 -129 55 -184q56 -56 188 -56h86q86 0 156 9q69 9 137 30q65 20 135 56q71 36 148 90l215 151v4l-492 132q-63 18 -86 24
q-35 9 -55 12q-7 1 -37 7q-10 2 -26 2q-80 0 -80 -88v-78h-78v139q0 77 37 111t104 34q38 0 94 -12q16 -4 39.5 -9.5t61 -15.5t63.5 -16l393 -108q82 -20 123 -25q50 -6 117 -6h55v-117h-133l-295 -227l-61 -45q-21 -16 -55 -39q-2 -12 -2 -37v-35q0 -195 112 -301t320 -106
q233 0 336 118q104 119 104 375v1378h96v-1161q0 -128 56 -184q55 -55 188 -55h86q93 0 156 8t137 31q70 22 135 55q68 35 147 90l213 152v4l-489 131q-63 18 -86 24q-44 11 -55 13q-25 3 -37 6q-10 2 -27 2q-80 0 -80 -88v-78h-75v139q0 78 36 111q38 35 105 35q20 0 41 -3
q45 -7 53 -8q11 -2 35.5 -8t34.5 -8q8 -2 94 -25l393 -108q12 -3 34.5 -9t31.5 -8q17 -4 55 -8q9 -1 27.5 -3t27.5 -3q18 -2 62 -2h53v-117h-133l-295 -227q-65 -50 -143 -100q-68 -44 -136 -68q-73 -26 -141 -37q-74 -12 -166 -12h-117q-163 3 -227 110l-2 -2
q-18 -585 -518 -585q-123 0 -221 37t-162 104q-63 66 -98 166q-34 98 -31 221v37q-84 -46 -174 -64q-88 -18 -209 -18h-117q-232 0 -291 197q-81 -112 -196 -162q-113 -49 -283 -49zM850 -20l-4 2q-123 0 -187 61q-63 60 -81 174h-5q-56 -68 -129 -98q-76 -31 -151 -31
q-67 0 -119 21q-50 20 -88 55q-37 34 -55 80q-19 49 -19 98q0 107 80 190q83 86 236 173l247 143v151h87v-669q0 -116 47 -172t151 -56q95 0 154 50t59 155v1202h96v-1202q0 -168 -86 -248q-85 -79 -233 -79zM299 209h-2q159 0 272 94v16v424l-213 -114q-77 -42 -125 -74
q-53 -35 -81 -63q-30 -30 -46 -62q-14 -28 -14 -65q0 -76 62 -117q59 -39 147 -39zM2298 942l1233 549h14v-76l-1233 -551h-14v78zM55 930l260 104v4q-127 18 -127 107q0 30 13 67q14 39 32 60q23 26 50 41q29 16 55 16q60 0 102 -51q43 -52 43 -129q0 -71 -49 -117
q-48 -45 -160 -92l-204 -88h-15v78zM4059 936l852 381h14v-78l-854 -381h-12v78zM3437 952l-5 2q-54 0 -88 27q-27 -123 -139 -123q-53 0 -84 31t-31 90q0 4 1 10.5t2 16t2 16.5q3 28 12 49h53v-12q-1 -5 -3 -15.5t-3 -15.5q-2 -10 -2 -29q0 -63 61 -63q44 0 64 33t20 104
v82h60v-76v-28q29 -19 67 -19q70 0 70 68q0 40 -23 117v12h62q13 -48 16 -68q6 -34 6 -65q0 -64 -26 -103q-27 -41 -92 -41zM391 1085l-4 -2q25 25 25 66q0 43 -25 74q-24 30 -59 30q-31 0 -58 -30q-26 -29 -26 -68q0 -61 147 -70zM2419 -213l88 88h14l88 -88l-88 -86h-14z
M4180 -213l88 88h14l88 -88l-88 -86h-14z" />
    <glyph glyph-name="uniFE82" unicode="&#x622;" horiz-adv-x="509" arabic-form="final" 
d="M477 0v-2q-155 3 -229 86t-74 258v918h96v-918q0 -113 56 -166t172 -53h12v-92l-31 -31h-2zM-6 1452l-2 -2q21 24 55 39q32 14 70 14q29 0 59 -6q10 -2 31 -6t31 -6q9 -2 27.5 -6t27.5 -6q31 -7 55 -7q58 0 96 23h13v-66q-20 -14 -49 -24q-24 -8 -62 -8q-35 0 -65 6
q-7 1 -19.5 3.5l-22.5 4.5t-18 4q-45 10 -53 12q-24 6 -51 6q-32 0 -62 -10q-29 -10 -47 -31h-14v66z" />
    <glyph glyph-name="uniFE84" unicode="&#x623;" horiz-adv-x="509" arabic-form="final" 
d="M477 0v-2q-155 3 -229 86t-74 258v918h96v-918q0 -113 56 -166t172 -53h12v-92l-31 -31h-2zM113 1487v4q-16 23 -25 49q-8 24 -8 49q0 40 14 68t41 55q23 23 60 39q32 14 73 14q111 0 111 -110v-43h-60v18q0 60 -63 60q-43 0 -80 -29q-35 -27 -35 -68q0 -24 17 -55
q14 -25 43 -51h213v-76h-377v76h76z" />
    <glyph glyph-name="uniFE86" unicode="&#x624;" horiz-adv-x="858" arabic-form="final" 
d="M293 -522q-81 0 -154 24q-66 22 -162 72v70l13 8q87 -26 151 -39q61 -12 119 -12q76 0 146 28q67 27 120 80q51 51 90 127q38 75 50 162h-258q-154 0 -242 76t-88 217q0 87 26 164q27 78 74 141q46 61 107 98t131 37q78 0 139 -43q60 -42 104 -123t68 -194
q26 -125 29 -252h102v-90l-31 -33h-79q-12 -116 -52 -209q-44 -102 -100 -164q-59 -65 -137 -106q-74 -39 -166 -39zM672 123l-6 -4q-3 107 -25 200q-22 95 -57 154q-36 62 -86 100q-49 37 -107 37q-50 0 -92 -26q-45 -28 -74 -70q-32 -47 -49 -98q-18 -56 -18 -111
q0 -91 67 -137q65 -45 187 -45h260zM274 961v4q-14 20 -24 49q-8 24 -8 49q0 39 14 67q15 30 41 56q24 24 59 39q32 14 74 14q111 0 111 -111v-43h-60v19q0 59 -63 59q-44 0 -80 -28q-35 -27 -35 -68q0 -26 16 -55q14 -25 43 -51h213v-76h-376v76h75z" />
    <glyph glyph-name="uniFE88" unicode="&#x625;" horiz-adv-x="509" arabic-form="final" 
d="M477 0v-2q-155 3 -229 86t-74 258v1182h96v-1182q0 -113 56 -166t172 -53h12v-92l-31 -31h-2zM113 -408v5q-16 23 -25 49q-8 24 -8 49q0 39 14 67q15 30 41 56q23 23 60 39q32 14 73 14q111 0 111 -111v-43h-60v19q0 59 -63 59q-44 0 -80 -28q-35 -27 -35 -68
q0 -24 17 -55q15 -27 43 -52h213v-75h-377v75h76z" />
    <glyph glyph-name="uniFE8A" unicode="&#x626;" horiz-adv-x="1433" arabic-form="final" 
d="M770 -479l-10 -13q-344 0 -510 138t-166 430q0 82 12 162q8 51 29 151h74v-12q-18 -85 -23 -146q-6 -73 -6 -141q0 -230 147 -338t451 -108q114 0 215 16q96 15 166 45q68 29 108 72q37 40 37 90q0 35 -16 61q-16 25 -53 43q-40 19 -103 31q-64 12 -159 27l-148 20v115
l8 8l142 -18q135 -18 229 -25q104 -8 242 -8v-90l-31 -33h-76q51 -34 51 -104q0 -86 -43 -156q-42 -69 -123 -119q-81 -51 -192 -74q-114 -24 -252 -24zM47 614v4q-14 19 -24 50q-9 27 -9 49q0 37 15 67t41 56q24 24 59 39q32 14 74 14q110 0 110 -111v-43h-59v19
q0 59 -64 59q-42 0 -79 -29q-35 -27 -35 -67q0 -26 16 -55q15 -27 43 -52h213v-75h-377v75h76z" />
    <glyph glyph-name="uniFE8B" unicode="&#x626;" horiz-adv-x="438" arabic-form="initial" 
d="M0 123l33 -4q113 0 166 59q51 57 51 182q0 76 -8 152q-8 78 -31 195l6 10h90q18 -100 27 -189q8 -76 8 -153q0 -191 -74 -283t-231 -92h-68v92zM121 940v4q-16 23 -25 49q-8 24 -8 49q0 40 14 68t41 55q23 23 60 39q35 15 73 15q111 0 111 -111v-43h-59v18q0 60 -64 60
q-43 0 -80 -29q-34 -27 -34 -67q0 -27 16 -56q14 -25 43 -51h213v-76h-377v76h76z" />
    <glyph glyph-name="uniFE8C" unicode="&#x626;" horiz-adv-x="557" arabic-form="medial" 
d="M0 123v2q143 0 252 80q-16 69 -16 141v250h81v-250q0 -119 56 -172q54 -51 172 -51h12v-92l-31 -31h-2q-87 3 -153 35q-60 29 -95 98q-51 -63 -129 -98t-178 -35v92zM166 823v4q-16 22 -25 50q-8 24 -8 49q0 39 14 67q15 30 41 56q21 21 60 38q35 15 74 15
q110 0 110 -111v-43h-59v19q0 59 -64 59q-43 0 -80 -29q-34 -27 -34 -67q0 -27 16 -56q14 -25 43 -51h213v-75h-377v75h76z" />
    <glyph glyph-name="uniFE8E" unicode="&#x627;" horiz-adv-x="509" arabic-form="final" 
d="M477 0v-2q-155 3 -229 86t-74 258v1182h96v-1182q0 -113 56 -166t172 -53h12v-92l-31 -31h-2z" />
    <glyph glyph-name="uniFE90" unicode="&#x628;" horiz-adv-x="1738" arabic-form="final" 
d="M1438 211l-4 2q59 -47 135 -68q73 -20 164 -20v-90l-31 -33q-101 0 -191 37q-91 37 -168 117q-144 -86 -313 -129q-168 -43 -356 -43q-310 0 -453 96q-141 95 -141 311q0 59 12 127q9 53 35 139h76v-12q-17 -68 -25 -117q-10 -65 -10 -104q0 -162 127 -236
q125 -73 403 -73q254 0 476 80q218 79 382 229h13v-100q-46 -46 -64 -60q-4 -4 -28.5 -24t-38.5 -29zM805 -190l88 -89l-88 -86h-14l-89 86l89 89h14z" />
    <glyph glyph-name="uniFE91" unicode="&#x628;" horiz-adv-x="438" arabic-form="initial" 
d="M0 123l33 -4q113 0 166 59q51 57 51 182q0 76 -8 152q-8 78 -31 195l6 10h90q18 -100 27 -189q8 -76 8 -153q0 -191 -74 -283t-231 -92h-68v92zM172 -197l88 -88l-88 -86h-14l-88 86l88 88h14z" />
    <glyph glyph-name="uniFE92" unicode="&#x628;" horiz-adv-x="557" arabic-form="medial" 
d="M0 123v2q143 0 252 80q-16 69 -16 141v250h81v-250q0 -119 56 -172q54 -51 172 -51h12v-92l-31 -31h-2q-87 3 -153 35q-60 29 -95 98q-51 -63 -129 -98t-178 -35v92zM276 -190l89 -89l-89 -86h-14l-88 86l88 89h14z" />
    <glyph glyph-name="uniFE94" unicode="&#x629;" horiz-adv-x="954" arabic-form="final" 
d="M924 0h-9q-134 3 -198 61q-65 59 -80 172h-6q-53 -68 -127 -98q-76 -31 -154 -31q-66 0 -119 21q-50 20 -88 55q-37 34 -55 80t-18 98q0 108 80 191q82 85 235 172l248 143v152h86v-670q0 -117 53 -170t182 -53v-92zM354 225h-2q82 0 152 25q72 26 121 69v441l-213 -115
q-77 -42 -125 -74q-55 -36 -82 -63q-28 -28 -45 -62q-15 -30 -15 -65q0 -76 62 -117q59 -39 147 -39zM379 1313l88 -88l-88 -86h-14l-89 86l89 88h14zM582 1313l88 -88l-88 -86h-15l-88 86l88 88h15z" />
    <glyph glyph-name="uniFE96" unicode="&#x62a;" horiz-adv-x="1738" arabic-form="final" 
d="M1438 211l-4 2q59 -47 135 -68q73 -20 164 -20v-90l-31 -33q-101 0 -191 37q-91 37 -168 117q-144 -86 -313 -129q-168 -43 -356 -43q-310 0 -453 96q-141 95 -141 311q0 59 12 127q9 53 35 139h76v-12q-17 -68 -25 -117q-10 -65 -10 -104q0 -162 127 -236
q125 -73 403 -73q254 0 476 80q218 79 382 229h13v-100q-46 -46 -64 -60q-4 -4 -28.5 -24t-38.5 -29zM705 913l88 -88l-88 -86h-15l-88 86l88 88h15zM907 913l88 -88l-88 -86h-14l-88 86l88 88h14z" />
    <glyph glyph-name="uniFE97" unicode="&#x62a;" horiz-adv-x="438" arabic-form="initial" 
d="M0 123l33 -4q113 0 166 59q51 57 51 182q0 76 -8 152q-8 78 -31 195l6 10h90q18 -100 27 -189q8 -76 8 -153q0 -191 -74 -283t-231 -92h-68v92zM139 1112l88 -88l-88 -86h-14l-88 86l88 88h14zM342 1112l88 -88l-88 -86h-14l-88 86l88 88h14z" />
    <glyph glyph-name="uniFE98" unicode="&#x62a;" horiz-adv-x="557" arabic-form="medial" 
d="M0 123v2q143 0 252 80q-16 69 -16 141v250h81v-250q0 -119 56 -172q54 -51 172 -51h12v-92l-31 -31h-2q-87 3 -153 35q-60 29 -95 98q-51 -63 -129 -98t-178 -35v92zM184 995l88 -88l-88 -86h-14l-88 86l88 88h14zM387 995l88 -88l-88 -86h-14l-88 86l88 88h14z" />
    <glyph glyph-name="uniFE9A" unicode="&#x62b;" horiz-adv-x="1738" arabic-form="final" 
d="M1438 211l-4 2q59 -47 135 -68q73 -20 164 -20v-90l-31 -33q-101 0 -191 37q-91 37 -168 117q-144 -86 -313 -129q-168 -43 -356 -43q-310 0 -453 96q-141 95 -141 311q0 59 12 127q9 53 35 139h76v-12q-17 -68 -25 -117q-10 -65 -10 -104q0 -162 127 -236
q125 -73 403 -73q254 0 476 80q218 79 382 229h13v-100q-46 -46 -64 -60q-4 -4 -28.5 -24t-38.5 -29zM807 1108l84 -84l-84 -84h-14l-86 84l86 84h14zM705 913l88 -88l-88 -86h-15l-88 86l88 88h15zM907 913l88 -88l-88 -86h-14l-88 86l88 88h14z" />
    <glyph glyph-name="uniFE9B" unicode="&#x62b;" horiz-adv-x="438" arabic-form="initial" 
d="M0 123l33 -4q113 0 166 59q51 57 51 182q0 76 -8 152q-8 78 -31 195l6 10h90q18 -100 27 -189q8 -76 8 -153q0 -191 -74 -283t-231 -92h-68v92zM242 1307l84 -84l-84 -84h-15l-86 84l86 84h15zM139 1112l88 -88l-88 -86h-14l-88 86l88 88h14zM342 1112l88 -88l-88 -86
h-14l-88 86l88 88h14z" />
    <glyph glyph-name="uniFE9C" unicode="&#x62b;" horiz-adv-x="557" arabic-form="medial" 
d="M0 123v2q143 0 252 80q-16 69 -16 141v250h81v-250q0 -119 56 -172q54 -51 172 -51h12v-92l-31 -31h-2q-87 3 -153 35q-60 29 -95 98q-51 -63 -129 -98t-178 -35v92zM287 1190l84 -84l-84 -84h-15l-86 84l86 84h15zM184 995l88 -88l-88 -86h-14l-88 86l88 88h14zM387 995
l88 -88l-88 -86h-14l-88 86l88 88h14z" />
    <glyph glyph-name="uniFE9E" unicode="&#x62c;" horiz-adv-x="1320" arabic-form="final" 
d="M1321 31l-33 -37h-55q-152 3 -223 86q-70 82 -70 264v229l-133 -49q-166 -65 -270 -118q-119 -61 -203 -136q-82 -73 -125 -161q-43 -87 -43 -199q0 -105 39 -184q43 -87 112 -142q76 -60 183 -90q112 -31 245 -31q129 0 250 31q110 28 205 78h14v-98q-82 -64 -215 -105
q-127 -39 -276 -39q-154 0 -270 39q-123 41 -203 113q-84 75 -127 176t-43 227q0 130 47 236q45 103 139 190q92 86 228 160q146 80 309 145l153 60v4l-594 57q-66 6 -96 -12t-30 -88v-68h-76v150q0 91 43 121t159 18l547 -59q16 -2 45 -6t41 -5q46 -4 62 -4h53h55h23v-116
l-164 -60v-260q0 -122 55 -174q54 -51 176 -51h66v-92zM641 49l88 -88l-88 -86h-14l-88 86l88 88h14z" />
    <glyph glyph-name="uniFE9F" unicode="&#x62c;" horiz-adv-x="1234" arabic-form="initial" 
d="M1061 444l-305 -229q-60 -46 -144 -100q-69 -45 -135 -68q-73 -26 -141 -37q-74 -12 -166 -12h-209v92l31 31h178q93 0 156 8t137 31q70 22 135 55q68 35 147 90l216 152v4l-492 131q-63 18 -86 24q-44 11 -55 13q-25 3 -37 6q-10 2 -27 2q-80 0 -80 -88v-78h-78v139
q0 77 37 111q38 35 105 35q34 0 94 -13l164 -41l393 -108q73 -21 123 -27t117 -6h55v-117h-133zM569 -195l88 -88l-88 -86h-14l-88 86l88 88h14z" />
    <glyph glyph-name="uniFEA0" unicode="&#x62c;" horiz-adv-x="1300" arabic-form="medial" 
d="M1300 31l-36 -37h-2q-152 3 -222 76q-69 72 -69 229v80l-213 -166q-60 -46 -144 -100q-69 -45 -135 -68q-73 -26 -141 -37q-74 -12 -166 -12h-209v92l31 31h178q93 0 156 8t137 31q70 22 135 55q71 36 148 90l215 152v4l-492 131q-63 18 -86 24q-44 11 -55 13
q-24 3 -37 6q-10 2 -27 2q-80 0 -80 -88v-78h-77v139q0 78 36 111q38 35 105 35q34 0 94 -13q16 -4 39.5 -9.5t61 -15.5t63.5 -16l393 -108q73 -21 123 -27t117 -6h55v-117h-133v-120q0 -113 49 -156t176 -43h12v-92zM573 -199l89 -88l-89 -86h-14l-88 86l88 88h14z" />
    <glyph glyph-name="uniFEA2" unicode="&#x62d;" horiz-adv-x="1320" arabic-form="final" 
d="M1321 31l-33 -37h-55q-152 3 -223 86q-70 82 -70 264v229l-133 -49q-166 -65 -270 -118q-119 -61 -203 -136q-82 -73 -125 -161q-43 -87 -43 -199q0 -105 39 -184q43 -87 112 -142q76 -60 183 -90q112 -31 245 -31q129 0 250 31q110 28 205 78h14v-98q-82 -64 -215 -105
q-127 -39 -276 -39q-154 0 -270 39q-123 41 -203 113q-84 75 -127 176t-43 227q0 130 47 236q45 103 139 190q92 86 228 160q146 80 309 145l153 60v4l-594 57q-66 6 -96 -12t-30 -88v-68h-76v150q0 91 43 121t159 18l547 -59q16 -2 45 -6t41 -5q46 -4 62 -4h53h55h23v-116
l-164 -60v-260q0 -122 55 -174q54 -51 176 -51h66v-92z" />
    <glyph glyph-name="uniFEA3" unicode="&#x62d;" horiz-adv-x="1234" arabic-form="initial" 
d="M1061 444l-305 -229q-60 -46 -144 -100q-69 -45 -135 -68q-73 -26 -141 -37q-74 -12 -166 -12h-209v92l31 31h178q93 0 156 8t137 31q70 22 135 55q68 35 147 90l216 152v4l-492 131q-63 18 -86 24q-44 11 -55 13q-25 3 -37 6q-10 2 -27 2q-80 0 -80 -88v-78h-78v139
q0 77 37 111q38 35 105 35q34 0 94 -13l164 -41l393 -108q73 -21 123 -27t117 -6h55v-117h-133z" />
    <glyph glyph-name="uniFEA4" unicode="&#x62d;" horiz-adv-x="1300" arabic-form="medial" 
d="M1300 31l-36 -37h-2q-152 3 -222 76q-69 72 -69 229v80l-213 -166q-60 -46 -144 -100q-69 -45 -135 -68q-73 -26 -141 -37q-74 -12 -166 -12h-209v92l31 31h178q93 0 156 8t137 31q70 22 135 55q71 36 148 90l215 152v4l-492 131q-63 18 -86 24q-44 11 -55 13
q-24 3 -37 6q-10 2 -27 2q-80 0 -80 -88v-78h-77v139q0 78 36 111q38 35 105 35q34 0 94 -13q16 -4 39.5 -9.5t61 -15.5t63.5 -16l393 -108q73 -21 123 -27t117 -6h55v-117h-133v-120q0 -113 49 -156t176 -43h12v-92z" />
    <glyph glyph-name="uniFEA6" unicode="&#x62e;" horiz-adv-x="1320" arabic-form="final" 
d="M1321 31l-33 -37h-55q-152 3 -223 86q-70 82 -70 264v229l-133 -49q-166 -65 -270 -118q-119 -61 -203 -136q-82 -73 -125 -161q-43 -87 -43 -199q0 -105 39 -184q43 -87 112 -142q76 -60 183 -90q112 -31 245 -31q129 0 250 31q110 28 205 78h14v-98q-82 -64 -215 -105
q-127 -39 -276 -39q-154 0 -270 39q-123 41 -203 113q-84 75 -127 176t-43 227q0 130 47 236q45 103 139 190q92 86 228 160q146 80 309 145l153 60v4l-594 57q-66 6 -96 -12t-30 -88v-68h-76v150q0 91 43 121t159 18l547 -59q16 -2 45 -6t41 -5q46 -4 62 -4h53h55h23v-116
l-164 -60v-260q0 -122 55 -174q54 -51 176 -51h66v-92zM625 1255l88 -88l-88 -86h-15l-88 86l88 88h15z" />
    <glyph glyph-name="uniFEA7" unicode="&#x62e;" horiz-adv-x="1234" arabic-form="initial" 
d="M1061 444l-305 -229q-60 -46 -144 -100q-69 -45 -135 -68q-73 -26 -141 -37q-74 -12 -166 -12h-209v92l31 31h178q93 0 156 8t137 31q70 22 135 55q68 35 147 90l216 152v4l-492 131q-63 18 -86 24q-44 11 -55 13q-25 3 -37 6q-10 2 -27 2q-80 0 -80 -88v-78h-78v139
q0 77 37 111q38 35 105 35q34 0 94 -13l164 -41l393 -108q73 -21 123 -27t117 -6h55v-117h-133zM537 1153l88 -88l-88 -86h-15l-88 86l88 88h15z" />
    <glyph glyph-name="uniFEA8" unicode="&#x62e;" horiz-adv-x="1300" arabic-form="medial" 
d="M1300 31l-36 -37h-2q-152 3 -222 76q-69 72 -69 229v80l-213 -166q-60 -46 -144 -100q-69 -45 -135 -68q-73 -26 -141 -37q-74 -12 -166 -12h-209v92l31 31h178q93 0 156 8t137 31q70 22 135 55q71 36 148 90l215 152v4l-492 131q-63 18 -86 24q-44 11 -55 13
q-24 3 -37 6q-10 2 -27 2q-80 0 -80 -88v-78h-77v139q0 78 36 111q38 35 105 35q34 0 94 -13q16 -4 39.5 -9.5t61 -15.5t63.5 -16l393 -108q73 -21 123 -27t117 -6h55v-117h-133v-120q0 -113 49 -156t176 -43h12v-92zM541 1149l88 -88l-88 -86h-15l-88 86l88 88h15z" />
    <glyph glyph-name="uniFEAA" unicode="&#x62f;" horiz-adv-x="1085" arabic-form="final" 
d="M813 348l-6 2q29 -102 90 -166q58 -61 182 -61v-92l-30 -31q-97 0 -158 37q-62 38 -105 110q-61 -78 -163 -122q-101 -43 -240 -43q-89 0 -150 12q-54 11 -100 41q-38 25 -57 74t-19 110v66h78v-43q0 -79 62 -109q64 -31 217 -31q108 0 194 27q88 28 146 80
q-3 9 -9.5 27.5t-9.5 27.5q-3 8 -6 18t-6.5 22.5t-5.5 19.5l-176 600v16h98z" />
    <glyph glyph-name="uniFEAC" unicode="&#x630;" horiz-adv-x="1085" arabic-form="final" 
d="M813 348l-6 2q29 -102 90 -166q58 -61 182 -61v-92l-30 -31q-97 0 -158 37q-62 38 -105 110q-61 -78 -163 -122q-101 -43 -240 -43q-89 0 -150 12q-54 11 -100 41q-38 25 -57 74t-19 110v66h78v-43q0 -79 62 -109q64 -31 217 -31q108 0 194 27q88 28 146 80
q-3 9 -9.5 27.5t-9.5 27.5q-3 8 -6 18t-6.5 22.5t-5.5 19.5l-176 600v16h98zM571 1341l88 -88l-88 -86h-14l-88 86l88 88h14z" />
    <glyph glyph-name="uniFEAE" unicode="&#x631;" horiz-adv-x="733" arabic-form="final" 
d="M68 -522l-15 -6q-73 0 -135 26q-66 28 -123 70v70l12 8q71 -27 117 -37q52 -12 105 -12q80 0 143 38q66 40 117 109q51 70 78 164q28 98 28 209q0 59 -18 170q-16 96 -49 233l6 10h90l45 -231q17 -95 78 -137q56 -39 182 -39v-90l-33 -33q-78 0 -131 18q-51 17 -86 62
l-4 -2q-6 -139 -39 -244q-36 -115 -88 -190q-55 -78 -127 -123q-70 -43 -153 -43z" />
    <glyph glyph-name="uniFEB0" unicode="&#x632;" horiz-adv-x="733" arabic-form="final" 
d="M68 -522l-15 -6q-73 0 -135 26q-66 28 -123 70v70l12 8q71 -27 117 -37q52 -12 105 -12q80 0 143 38q66 40 117 109q51 70 78 164q28 98 28 209q0 59 -18 170q-16 96 -49 233l6 10h90l45 -231q17 -95 78 -137q56 -39 182 -39v-90l-33 -33q-78 0 -131 18q-51 17 -86 62
l-4 -2q-6 -139 -39 -244q-36 -115 -88 -190q-55 -78 -127 -123q-70 -43 -153 -43zM330 926l88 -88l-88 -86h-15l-88 86l88 88h15z" />
    <glyph glyph-name="uniFEB2" unicode="&#x633;" horiz-adv-x="2312" arabic-form="final" 
d="M631 -479l-4 -6q-252 0 -396 129q-143 128 -143 374q0 84 14 164q13 73 37 168h74v-12q-43 -157 -43 -287q0 -198 123 -303q122 -104 334 -104q222 0 334 112t112 332q0 61 -12 152q-9 66 -41 217l4 10h92l31 -170q21 -103 80 -150q57 -45 172 -45q99 0 141 48
q41 47 41 165v152h82v-141q0 -55 -2 -80q-3 -35 -12 -70q28 -35 73 -53q49 -19 101 -19q87 0 123 48q32 43 32 170v213h82v-203q0 -82 -12 -144q51 -33 115 -47q72 -16 145 -16v-90l-31 -33q-71 0 -145 23q-68 21 -117 61q-46 -102 -188 -102q-145 0 -215 98
q-27 -47 -80 -74q-51 -26 -133 -26q-83 0 -144 22q-57 20 -98 74l-4 -2q-3 -273 -141 -414t-381 -141z" />
    <glyph glyph-name="uniFEB3" unicode="&#x633;" horiz-adv-x="1308" arabic-form="initial" 
d="M563 -18l-6 -9q-87 0 -166 29q-71 26 -125 86q-39 -54 -100 -74q-68 -22 -160 -22h-43v90l31 33h16q133 0 185 43q51 42 51 155v152h82v-141q0 -69 -17 -142q43 -35 111 -57q64 -21 135 -21q103 0 143 46q39 45 39 167v152h82v-141q0 -94 -14 -154q27 -34 72 -53
q46 -19 92 -19q151 0 151 183q0 61 -6 129q-5 51 -29 170l7 10h86q18 -116 22 -166q6 -68 6 -141q0 -147 -61 -226t-174 -79q-126 0 -201 96q-59 -96 -209 -96z" />
    <glyph glyph-name="uniFEB4" unicode="&#x633;" horiz-adv-x="1460" arabic-form="medial" 
d="M557 -18l2 -7q-85 0 -164 29q-73 27 -123 86q-39 -54 -100 -74q-68 -22 -160 -22h-43v90l31 33h16q133 0 185 43q51 42 51 155v152h82v-141q0 -69 -17 -142q43 -35 111 -57q65 -21 145 -21q97 0 136 48q36 45 36 165v152h82v-141q0 -94 -14 -154q57 -72 166 -72
q86 0 117 48q30 46 30 170v213h82v-203q0 -51 -2 -76q-3 -40 -6 -68q51 -33 115 -47q72 -16 145 -16v-90l-30 -33q-72 0 -146 23q-67 21 -119 61q-49 -102 -186 -102q-133 0 -205 96q-31 -51 -82 -74q-52 -24 -135 -24z" />
    <glyph glyph-name="uniFEB6" unicode="&#x634;" horiz-adv-x="2312" arabic-form="final" 
d="M631 -479l-4 -6q-252 0 -396 129q-143 128 -143 374q0 84 14 164q13 73 37 168h74v-12q-43 -157 -43 -287q0 -198 123 -303q122 -104 334 -104q222 0 334 112t112 332q0 61 -12 152q-9 66 -41 217l4 10h92l31 -170q21 -103 80 -150q57 -45 172 -45q99 0 141 48
q41 47 41 165v152h82v-141q0 -55 -2 -80q-3 -35 -12 -70q28 -35 73 -53q49 -19 101 -19q87 0 123 48q32 43 32 170v213h82v-203q0 -82 -12 -144q51 -33 115 -47q72 -16 145 -16v-90l-31 -33q-71 0 -145 23q-68 21 -117 61q-46 -102 -188 -102q-145 0 -215 98
q-27 -47 -80 -74q-51 -26 -133 -26q-83 0 -144 22q-57 20 -98 74l-4 -2q-3 -273 -141 -414t-381 -141zM1626 1059l84 -84l-84 -84h-14l-86 84l86 84h14zM1524 864l88 -88l-88 -86h-15l-88 86l88 88h15zM1726 864l89 -88l-89 -86h-14l-88 86l88 88h14z" />
    <glyph glyph-name="uniFEB7" unicode="&#x634;" horiz-adv-x="1308" arabic-form="initial" 
d="M563 -18l-6 -9q-87 0 -166 29q-71 26 -125 86q-39 -54 -100 -74q-68 -22 -160 -22h-43v90l31 33h16q133 0 185 43q51 42 51 155v152h82v-141q0 -69 -17 -142q43 -35 111 -57q64 -21 135 -21q103 0 143 46q39 45 39 167v152h82v-141q0 -94 -14 -154q27 -34 72 -53
q46 -19 92 -19q151 0 151 183q0 61 -6 129q-5 51 -29 170l7 10h86q18 -116 22 -166q6 -68 6 -141q0 -147 -61 -226t-174 -79q-126 0 -201 96q-59 -96 -209 -96zM788 1057l84 -84l-84 -84h-14l-86 84l86 84h14zM686 862l88 -88l-88 -86h-14l-88 86l88 88h14zM889 862l88 -88
l-88 -86h-15l-88 86l88 88h15z" />
    <glyph glyph-name="uniFEB8" unicode="&#x634;" horiz-adv-x="1460" arabic-form="medial" 
d="M557 -18l2 -7q-85 0 -164 29q-73 27 -123 86q-39 -54 -100 -74q-68 -22 -160 -22h-43v90l31 33h16q133 0 185 43q51 42 51 155v152h82v-141q0 -69 -17 -142q43 -35 111 -57q65 -21 145 -21q97 0 136 48q36 45 36 165v152h82v-141q0 -94 -14 -154q57 -72 166 -72
q86 0 117 48q30 46 30 170v213h82v-203q0 -51 -2 -76q-3 -40 -6 -68q51 -33 115 -47q72 -16 145 -16v-90l-30 -33q-72 0 -146 23q-67 21 -119 61q-49 -102 -186 -102q-133 0 -205 96q-31 -51 -82 -74q-52 -24 -135 -24zM797 1059l84 -84l-84 -84h-15l-86 84l86 84h15z
M694 864l88 -88l-88 -86h-14l-88 86l88 88h14zM897 864l88 -88l-88 -86h-14l-88 86l88 88h14z" />
    <glyph glyph-name="uniFEBA" unicode="&#x635;" horiz-adv-x="2543" arabic-form="final" 
d="M631 -479l-4 -4q-252 0 -396 129q-143 128 -143 374q0 84 14 164q13 73 37 168h74v-12q-43 -157 -43 -287q0 -198 123 -303q122 -104 334 -104q222 0 334 112t112 332q0 61 -12 152q-9 66 -41 217l4 10h92l31 -170q18 -91 70 -131l167 213q68 90 146 172q68 71 133 115
q66 44 129 65q64 21 139 21q85 0 158 -31q70 -30 123 -86t80 -129q28 -76 28 -156q0 -89 -39 -157q71 -47 134 -62q57 -14 129 -14v-96l-27 -27q-73 0 -147 24q-69 22 -150 91q-58 -52 -141 -82q-85 -31 -191 -31h-510q-150 0 -221 86h-4q-3 -274 -141 -418
q-139 -145 -381 -145zM1911 119v2q169 0 246 51q79 52 79 154q0 68 -24 123t-68 96q-43 40 -102 61q-64 23 -129 23q-61 0 -123 -19t-117 -57q-62 -43 -121 -102q-49 -49 -131 -152l-125 -160l2 -6q41 -14 109 -14h504z" />
    <glyph glyph-name="uniFEBB" unicode="&#x635;" horiz-adv-x="1548" arabic-form="initial" 
d="M0 123l2 -2q143 0 252 80q-9 36 -12 69q-4 50 -4 80v121h81v-121q0 -120 54 -174l162 207q71 95 145 172q68 71 133 115q66 44 129 65q64 21 135 21q85 0 158 -31q70 -30 123 -86t80 -129q28 -76 28 -156t-30 -147q-29 -65 -86 -113q-56 -47 -136 -71q-83 -25 -178 -25
h-501q-198 3 -259 135q-106 -133 -307 -133v92zM1063 121v2q172 0 246 51q77 53 77 154q0 68 -24 123t-68 96t-100 61q-64 23 -129 23q-61 0 -123 -19t-117 -57q-52 -36 -118 -102q-54 -54 -132 -152l-124 -160l2 -6q26 -7 47 -10q32 -4 57 -4h506z" />
    <glyph glyph-name="uniFEBC" unicode="&#x635;" horiz-adv-x="1689" arabic-form="medial" 
d="M0 123l6 -4q143 0 252 80q-9 36 -12 69q-4 50 -4 80v121h82v-121q0 -121 53 -174l162 207q71 95 145 172q68 71 133 115q66 44 129 65q64 21 135 21q85 0 158 -31q70 -30 123 -86t80 -129q28 -76 28 -156q0 -91 -38 -157q71 -47 133 -62q57 -14 127 -14v-96l-25 -27
q-75 0 -149 24q-69 22 -150 91q-58 -52 -141 -82q-85 -31 -191 -31h-501q-198 3 -259 135q-106 -133 -307 -133v92zM1067 119v2q172 0 246 51q78 54 78 154q0 65 -25 123q-24 55 -68 96t-100 61q-64 23 -129 23q-61 0 -123 -19t-117 -57q-52 -36 -118 -102
q-49 -49 -131 -152l-125 -160l2 -6q26 -7 47 -10q32 -4 57 -4h506z" />
    <glyph glyph-name="uniFEBE" unicode="&#x636;" horiz-adv-x="2543" arabic-form="final" 
d="M631 -479l-4 -4q-252 0 -396 129q-143 128 -143 374q0 84 14 164q13 73 37 168h74v-12q-43 -157 -43 -287q0 -198 123 -303q122 -104 334 -104q222 0 334 112t112 332q0 61 -12 152q-9 66 -41 217l4 10h92l31 -170q18 -91 70 -131l167 213q68 90 146 172q68 71 133 115
q66 44 129 65q64 21 139 21q85 0 158 -31q70 -30 123 -86t80 -129q28 -76 28 -156q0 -89 -39 -157q71 -47 134 -62q57 -14 129 -14v-96l-27 -27q-73 0 -147 24q-69 22 -150 91q-58 -52 -141 -82q-85 -31 -191 -31h-510q-150 0 -221 86h-4q-3 -274 -141 -418
q-139 -145 -381 -145zM1911 119v2q169 0 246 51q79 52 79 154q0 68 -24 123t-68 96q-43 40 -102 61q-64 23 -129 23q-61 0 -123 -19t-117 -57q-62 -43 -121 -102q-49 -49 -131 -152l-125 -160l2 -6q41 -14 109 -14h504zM1853 1153l89 -88l-89 -86h-14l-88 86l88 88h14z" />
    <glyph glyph-name="uniFEBF" unicode="&#x636;" horiz-adv-x="1548" arabic-form="initial" 
d="M0 123l2 -2q143 0 252 80q-9 36 -12 69q-4 50 -4 80v121h81v-121q0 -120 54 -174l162 207q71 95 145 172q68 71 133 115q66 44 129 65q64 21 135 21q85 0 158 -31q70 -30 123 -86t80 -129q28 -76 28 -156t-30 -147q-29 -65 -86 -113q-56 -47 -136 -71q-83 -25 -178 -25
h-501q-198 3 -259 135q-106 -133 -307 -133v92zM1063 121v2q172 0 246 51q77 53 77 154q0 68 -24 123t-68 96t-100 61q-64 23 -129 23q-61 0 -123 -19t-117 -57q-52 -36 -118 -102q-54 -54 -132 -152l-124 -160l2 -6q26 -7 47 -10q32 -4 57 -4h506zM1006 1155l88 -88
l-88 -86h-15l-88 86l88 88h15z" />
    <glyph glyph-name="uniFEC0" unicode="&#x636;" horiz-adv-x="1689" arabic-form="medial" 
d="M0 123l6 -4q143 0 252 80q-9 36 -12 69q-4 50 -4 80v121h82v-121q0 -121 53 -174l162 207q71 95 145 172q68 71 133 115q66 44 129 65q64 21 135 21q85 0 158 -31q70 -30 123 -86t80 -129q28 -76 28 -156q0 -91 -38 -157q71 -47 133 -62q57 -14 127 -14v-96l-25 -27
q-75 0 -149 24q-69 22 -150 91q-58 -52 -141 -82q-85 -31 -191 -31h-501q-198 3 -259 135q-106 -133 -307 -133v92zM1067 119v2q172 0 246 51q78 54 78 154q0 65 -25 123q-24 55 -68 96t-100 61q-64 23 -129 23q-61 0 -123 -19t-117 -57q-52 -36 -118 -102
q-49 -49 -131 -152l-125 -160l2 -6q26 -7 47 -10q32 -4 57 -4h506zM1010 1153l88 -88l-88 -86h-15l-88 86l88 88h15z" />
    <glyph glyph-name="uniFEC2" unicode="&#x637;" horiz-adv-x="1576" arabic-form="final" 
d="M221 123l72 92v1311h96v-1192l35 49q71 95 145 172q68 71 133 115q66 44 129 65q65 21 140 21q80 0 153 -31q70 -30 123 -86t80 -129q29 -79 29 -156q0 -89 -39 -157q71 -47 133 -62q57 -14 129 -14v-96l-27 -27q-70 0 -147 25q-71 23 -150 90q-58 -52 -141 -82
q-85 -31 -190 -31h-893v123h190zM952 123l-2 6q169 0 246 51q80 53 80 154q0 65 -25 123q-24 56 -67 96t-101 61q-64 23 -129 23q-61 0 -123 -19q-61 -19 -116 -57q-64 -44 -121 -104q-51 -53 -131 -154l-131 -172l2 -8h618z" />
    <glyph glyph-name="uniFEC3" unicode="&#x637;" horiz-adv-x="1378" arabic-form="initial" 
d="M909 756l-2 2q85 0 158 -31q70 -30 123 -86t80 -129q28 -76 28 -156t-30 -147q-29 -65 -86 -113q-56 -47 -136 -71q-83 -25 -178 -25h-897v92l31 31h164l69 92v1311h97v-1192l35 49q78 105 143 172q65 68 133 117q66 47 129 65q68 19 139 19zM889 125v6q172 0 246 51
q77 53 77 154q0 68 -24 123t-68 96t-100 61q-64 23 -129 23t-123 -18q-60 -18 -117 -58q-64 -44 -121 -104q-51 -53 -131 -154l-131 -172l4 -8h617z" />
    <glyph glyph-name="uniFEC4" unicode="&#x637;" horiz-adv-x="1519" arabic-form="medial" 
d="M1257 199h3q71 -47 133 -62q57 -14 127 -14v-96l-25 -27q-72 0 -149 25q-71 23 -150 90q-58 -52 -141 -82q-85 -31 -191 -31h-897v92l31 31h164l69 92v1311h97v-1192l34 49q75 100 144 172q65 68 133 117q66 47 129 65q68 19 139 19q85 0 158 -31q70 -30 123 -86t80 -129
q28 -76 28 -156q0 -89 -39 -157zM893 123v6q172 0 246 51q78 54 78 154q0 65 -25 123q-24 55 -68 96t-100 61q-64 23 -129 23q-61 0 -123 -19t-117 -57q-61 -42 -120 -104q-57 -59 -132 -154l-131 -172l4 -8h617z" />
    <glyph glyph-name="uniFEC6" unicode="&#x638;" horiz-adv-x="1576" arabic-form="final" 
d="M221 123l72 92v1311h96v-1192l35 49q71 95 145 172q68 71 133 115q66 44 129 65q65 21 140 21q80 0 153 -31q70 -30 123 -86t80 -129q29 -79 29 -156q0 -89 -39 -157q71 -47 133 -62q57 -14 129 -14v-96l-27 -27q-70 0 -147 25q-71 23 -150 90q-58 -52 -141 -82
q-85 -31 -190 -31h-893v123h190zM952 123l-2 6q169 0 246 51q80 53 80 154q0 65 -25 123q-24 56 -67 96t-101 61q-64 23 -129 23q-61 0 -123 -19q-61 -19 -116 -57q-64 -44 -121 -104q-51 -53 -131 -154l-131 -172l2 -8h618zM893 1161l88 -88l-88 -86h-14l-88 86l88 88h14z
" />
    <glyph glyph-name="uniFEC7" unicode="&#x638;" horiz-adv-x="1378" arabic-form="initial" 
d="M909 756l-2 2q85 0 158 -31q70 -30 123 -86t80 -129q28 -76 28 -156t-30 -147q-29 -65 -86 -113q-56 -47 -136 -71q-83 -25 -178 -25h-897v92l31 31h164l69 92v1311h97v-1192l35 49q78 105 143 172q65 68 133 117q66 47 129 65q68 19 139 19zM889 125v6q172 0 246 51
q77 53 77 154q0 68 -24 123t-68 96t-100 61q-64 23 -129 23t-123 -18q-60 -18 -117 -58q-64 -44 -121 -104q-51 -53 -131 -154l-131 -172l4 -8h617zM831 1163l89 -88l-89 -86h-14l-88 86l88 88h14z" />
    <glyph glyph-name="uniFEC8" unicode="&#x638;" horiz-adv-x="1519" arabic-form="medial" 
d="M1257 199h3q71 -47 133 -62q57 -14 127 -14v-96l-25 -27q-72 0 -149 25q-71 23 -150 90q-58 -52 -141 -82q-85 -31 -191 -31h-897v92l31 31h164l69 92v1311h97v-1192l34 49q75 100 144 172q65 68 133 117q66 47 129 65q68 19 139 19q85 0 158 -31q70 -30 123 -86t80 -129
q28 -76 28 -156q0 -89 -39 -157zM893 123v6q172 0 246 51q78 54 78 154q0 65 -25 123q-24 55 -68 96t-100 61q-64 23 -129 23q-61 0 -123 -19t-117 -57q-61 -42 -120 -104q-57 -59 -132 -154l-131 -172l4 -8h617zM836 1161l88 -88l-88 -86h-15l-88 86l88 88h15z" />
    <glyph glyph-name="uniFECA" unicode="&#x639;" horiz-adv-x="1146" arabic-form="final" 
d="M629 -666l-11 -14q-268 0 -409 102t-141 289q0 125 92 252q92 126 309 273l66 45q-3 4 -14.5 21t-18.5 26q-15 20 -37 53l-229 319l-70 -22h-12v108q122 52 245 76q128 25 228 25q370 0 370 -230q0 -82 -51 -153q-53 -74 -166 -162l-96 -74q41 -44 86 -75q53 -36 88 -50
q47 -18 98 -24q52 -6 117 -6h68v-93l-31 -30h-37q-71 0 -139 10q-55 8 -117 35q-57 25 -108 67q-49 40 -111 109l-78 -51q-117 -76 -184 -131q-68 -56 -111 -109q-40 -49 -55 -92q-14 -41 -14 -88q0 -130 120 -203q121 -74 351 -74q65 0 129 9q67 9 127 24q51 13 116 37
q46 17 99 43h14v-98q-85 -64 -215 -105q-124 -39 -268 -39zM754 418l-2 -2q85 58 122 110t37 92q0 142 -290 142q-58 0 -136 -10q-56 -7 -145 -29l-2 -6l205 -287q35 -45 41 -53q23 -31 37 -47z" />
    <glyph glyph-name="uniFECB" unicode="&#x639;" horiz-adv-x="940" arabic-form="initial" 
d="M838 109h-9q-124 -58 -282 -82q-163 -25 -365 -25h-221v94l31 29h256l2 6q-70 64 -111 145q-39 77 -39 166q0 80 31 156q30 73 86 129t129 86q76 31 158 31q60 0 131 -23q62 -20 106 -61v-115h-14q-52 43 -111 60q-62 18 -127 18q-67 0 -122 -18q-54 -18 -97 -54
q-40 -34 -61 -80q-21 -47 -21 -102q0 -46 19 -98q17 -46 53 -92q33 -41 84 -80q52 -39 107 -62q101 8 196 31q94 22 178 55h13v-114z" />
    <glyph glyph-name="uniFECC" unicode="&#x639;" horiz-adv-x="991" arabic-form="medial" 
d="M0 123l219 6q106 0 178 35q-40 39 -80 98l-215 301l-67 -24h-15v108q121 52 246 76q128 25 232 25q362 0 362 -224q0 -42 -12 -82q-10 -34 -43 -82q-27 -39 -80 -92q-43 -43 -123 -110q56 -33 152 -33h235v-92l-31 -31h-213q-71 0 -137 16q-59 14 -116 56
q-57 -38 -117 -56q-61 -18 -148 -18h-258v92zM508 193l-4 -3q82 64 135 111q63 56 84 80q33 37 43 61q12 27 12 52q0 135 -282 135q-54 0 -144 -11q-64 -8 -143 -28l-4 -6l201 -281q24 -30 51 -61q27 -30 51 -49z" />
    <glyph glyph-name="uniFECE" unicode="&#x63a;" horiz-adv-x="1146" arabic-form="final" 
d="M629 -666l-11 -14q-268 0 -409 102t-141 289q0 125 92 252q92 126 309 273l66 45q-3 4 -14.5 21t-18.5 26q-15 20 -37 53l-229 319l-70 -22h-12v108q122 52 245 76q128 25 228 25q370 0 370 -230q0 -82 -51 -153q-53 -74 -166 -162l-96 -74q41 -44 86 -75q53 -36 88 -50
q47 -18 98 -24q52 -6 117 -6h68v-93l-31 -30h-37q-71 0 -139 10q-55 8 -117 35q-57 25 -108 67q-49 40 -111 109l-78 -51q-117 -76 -184 -131q-68 -56 -111 -109q-40 -49 -55 -92q-14 -41 -14 -88q0 -130 120 -203q121 -74 351 -74q65 0 129 9q67 9 127 24q51 13 116 37
q46 17 99 43h14v-98q-85 -64 -215 -105q-124 -39 -268 -39zM754 418l-2 -2q85 58 122 110t37 92q0 142 -290 142q-58 0 -136 -10q-56 -7 -145 -29l-2 -6l205 -287q35 -45 41 -53q23 -31 37 -47zM614 1278l88 -88l-88 -86h-14l-88 86l88 88h14z" />
    <glyph glyph-name="uniFECF" unicode="&#x63a;" horiz-adv-x="940" arabic-form="initial" 
d="M838 109h-9q-124 -58 -282 -82q-163 -25 -365 -25h-221v94l31 29h256l2 6q-70 64 -111 145q-39 77 -39 166q0 80 31 156q30 73 86 129t129 86q76 31 158 31q60 0 131 -23q62 -20 106 -61v-115h-14q-52 43 -111 60q-62 18 -127 18q-67 0 -122 -18q-54 -18 -97 -54
q-40 -34 -61 -80q-21 -47 -21 -102q0 -46 19 -98q17 -46 53 -92q33 -41 84 -80q52 -39 107 -62q101 8 196 31q94 22 178 55h13v-114zM485 1243l88 -88l-88 -86h-14l-88 86l88 88h14z" />
    <glyph glyph-name="uniFED0" unicode="&#x63a;" horiz-adv-x="991" arabic-form="medial" 
d="M0 123l219 6q106 0 178 35q-40 39 -80 98l-215 301l-67 -24h-15v108q121 52 246 76q128 25 232 25q362 0 362 -224q0 -42 -12 -82q-10 -34 -43 -82q-27 -39 -80 -92q-43 -43 -123 -110q56 -33 152 -33h235v-92l-31 -31h-213q-71 0 -137 16q-59 14 -116 56
q-57 -38 -117 -56q-61 -18 -148 -18h-258v92zM508 193l-4 -3q82 64 135 111q63 56 84 80q33 37 43 61q12 27 12 52q0 135 -282 135q-54 0 -144 -11q-64 -8 -143 -28l-4 -6l201 -281q24 -30 51 -61q27 -30 51 -49zM485 1143l88 -88l-88 -86h-14l-88 86l88 88h14z" />
    <glyph glyph-name="uniFED2" unicode="&#x641;" horiz-adv-x="1820" arabic-form="final" 
d="M1821 31l-33 -39h-84q-90 0 -172 18q-80 17 -154 49q-221 -84 -553 -84q-190 0 -344 23q-137 20 -229 72q-88 49 -129 127q-39 74 -39 188q0 59 12 127q9 53 35 139h76v-12q-17 -68 -25 -117q-10 -65 -10 -104q0 -83 35 -142t110 -96q78 -38 203 -53q134 -16 307 -16h267
q32 0 90 4q41 3 82 12q-93 64 -150 154q-55 88 -55 186q0 75 29 154q27 75 73 129t109 90q61 34 127 34q69 0 127 -30q56 -29 102 -84q44 -54 68 -123q24 -71 24 -148q0 -222 -207 -358q6 -1 14 -2t18.5 -2t15.5 -2q16 -2 49 -2h211v-92zM1139 483l-9 -2q0 -101 74 -190
q73 -88 189 -135q112 44 176 114q65 71 65 164q0 64 -20 117q-21 55 -58 98q-41 47 -81 68q-47 24 -99 24q-51 0 -92 -20q-42 -20 -76 -57q-33 -36 -51 -82t-18 -99zM1397 1264l88 -88l-88 -86h-15l-88 86l88 88h15z" />
    <glyph glyph-name="uniFED3" unicode="&#x641;" horiz-adv-x="870" arabic-form="initial" 
d="M0 123l385 -4q156 0 229 55t82 201l-6 2q-118 -68 -270 -68q-151 0 -236 76q-86 77 -86 221q0 82 27 162q27 78 74 141q48 64 106 99q59 36 131 36q78 0 142 -43t110 -122q46 -78 70 -193q24 -114 24 -252q0 -229 -92 -332q-92 -102 -301 -102h-420v92zM434 426l-2 2
q143 0 258 53q-6 94 -31 178q-26 85 -61 140q-38 59 -82 92t-102 33q-48 0 -92 -27q-45 -28 -74 -70q-32 -47 -49 -98q-19 -59 -19 -111q0 -93 68 -143q67 -49 186 -49zM420 1446l88 -88l-88 -86h-14l-89 86l89 88h14z" />
    <glyph glyph-name="uniFED4" unicode="&#x641;" horiz-adv-x="862" arabic-form="medial" 
d="M862 31l-31 -33h-83q-83 0 -168 16q-78 15 -152 43q-75 -29 -154 -43q-88 -16 -176 -16h-127v92l31 31h227q39 0 80 6q-92 63 -149 154q-56 89 -56 186q0 75 29 154q27 72 74 129q47 56 108 90t127 34q68 0 127 -30q58 -30 103 -84q43 -51 67 -123q25 -73 25 -148
q0 -109 -55 -200q-58 -95 -150 -158q36 -8 92 -8h211v-92zM182 489l-6 -2q0 -101 74 -190q73 -88 188 -135q104 40 172 117t68 161q0 62 -21 117q-21 57 -57 98q-40 46 -82 68q-48 25 -98 25q-49 0 -92 -21q-42 -20 -76 -57q-33 -36 -51 -82q-19 -49 -19 -99zM432 1270
l88 -88l-88 -86h-14l-88 86l88 88h14z" />
    <glyph glyph-name="uniFED6" unicode="&#x642;" horiz-adv-x="1388" arabic-form="final" 
d="M709 -479q-142 0 -258 35q-115 35 -193 98q-79 64 -123 160q-43 93 -43 215q0 154 55 331h78v-12q-47 -171 -47 -295q0 -185 139 -291q137 -104 392 -104q238 0 356 80t139 264h-262q-154 0 -242 76t-88 217q0 85 27 164q27 78 74 141q47 62 106 98q61 37 131 37
q79 0 140 -43q60 -42 104 -123t68 -194q25 -119 28 -252h99v-90l-31 -33h-74q-24 -244 -166 -362q-141 -117 -409 -117zM1206 123l-6 -4q-3 112 -24 200q-22 92 -58 154t-86 100q-49 37 -106 37q-50 0 -92 -26q-45 -28 -74 -70q-33 -47 -49 -98q-19 -59 -19 -111
q0 -90 68 -137q65 -45 186 -45h260zM848 1133l88 -89l-88 -86h-14l-89 86l89 89h14zM1051 1133l88 -89l-88 -86h-15l-88 86l88 89h15z" />
    </font>
</defs>
</svg>
