<svg xmlns="http://www.w3.org/2000/svg" xmlns:xlink="http://www.w3.org/1999/xlink" width="168.859" height="84.974" viewBox="0 0 168.859 84.974"><defs><clipPath id="a"><rect width="168.859" height="84.974" fill="#fff"/></clipPath></defs><g clip-path="url(#a)"><path d="M168.86,22.777c-2.531.823-5.124,1.425-7.691,2.114q-19.055,5.114-38.12,10.188Q104.276,40.094,85.506,45.12a4.212,4.212,0,0,1-2.267,0Q61.481,39.293,39.716,33.489,20.331,28.309.951,23.112C.6,23.019-.01,23.1,0,22.619c.008-.386.6-.346.939-.437q14.7-3.943,29.4-7.861,20.9-5.585,41.794-11.175c3.747-1,7.5-1.992,11.24-3.009a3.646,3.646,0,0,1,1.974,0Q105.772,5.611,126.2,11.064l42.156,11.265c.168.045.333.1.5.15Zm-145.307.534c.361.088.5.134.645.156q8.844,1.355,17.689,2.705Q57.7,28.584,73.51,30.995q16.252,2.488,32.5,4.994a5.562,5.562,0,0,0,2.356-.065q11.522-3.109,23.056-6.172c1.277-.341,2.55-.693,3.825-1.04-3.568-.292-7.115-.494-10.664-.671-3.525-.177-7.052-.319-10.577-.494q-8.527-.423-17.053-.869-7.223-.368-14.446-.733c-2.433-.122-4.867-.226-7.3-.352-4.319-.225-8.636-.469-12.955-.688-3.525-.179-7.052-.322-10.577-.5q-8.191-.411-16.382-.847c-2.73-.141-5.46-.3-8.191-.416a10.177,10.177,0,0,0-3.55.169m134.179-.688c-.466-.143-.79-.255-1.121-.343q-16.213-4.335-32.428-8.666Q106.349,8.847,88.516,4.073c-4.172-1.122-4.155-1.116-8.332.008Q61.6,9.08,43,14.03q-15.457,4.131-30.915,8.26c-.324.087-.642.2-.963.3,1.335.408,2.54,1.066,4.03.661C25.785,20.363,36.431,17.54,47.072,14.7Q65.088,9.882,83.1,5.06a4.767,4.767,0,0,1,2.563.01q18.55,4.982,37.108,9.931c9.945,2.657,19.9,5.265,29.825,8a7.531,7.531,0,0,0,5.136-.379M84.247,7.1c-.837.216-1.772.466-2.711.7-.54.133-.55.367-.233.775q5.745,7.388,11.469,14.793c.361.467.6.44.983.015q4.638-5.156,9.308-10.282c.778-.857.788-.851-.307-1.144q-7.639-2.04-15.28-4.072A24.717,24.717,0,0,0,84.247,7.1m5.049,16.8c.013-.228-.177-.376-.308-.544-3.268-4.224-6.526-8.456-9.819-12.66-1.8-2.3-.926-1.924-3.9-1.224a.838.838,0,0,0-.724.951q.018,6.035,0,12.069c0,.55.195.823.776.84,1.241.035,2.482.1,3.722.167,2.43.129,4.859.282,7.291.393.98.045,1.964.007,2.956.007M99.771,38.2l-.016-.145-10.377-1.59Q82.42,35.395,75.462,34.33c-.767-.117-.9.008-.9.822-.006,1.217.025,2.434-.012,3.649a.985.985,0,0,0,.887,1.134c2.67.685,5.332,1.406,7.989,2.141a3.458,3.458,0,0,0,1.9,0c3.139-.856,6.286-1.684,9.429-2.524q2.512-.672,5.023-1.353M97.037,24.32a2.162,2.162,0,0,0,.318.084c4.341.24,8.683.471,13.023.72.644.037.817-.263.815-.843q-.019-4.621,0-9.241a.929.929,0,0,0-.827-1.04c-.774-.179-1.55-.37-2.3-.62a1.44,1.44,0,0,0-1.706.5c-2.4,2.687-4.841,5.336-7.239,8.024a21.6,21.6,0,0,0-2.083,2.416M72.282,36.492c0-.571-.033-1.146.008-1.714.053-.736-.3-.986-.986-1.087-4.082-.6-8.158-1.235-12.236-1.861q-5.9-.905-11.791-1.814c-.267-.041-.553-.109-.726.2a1.635,1.635,0,0,0,.924,2.234q5.619,1.507,11.239,3.012c4.275,1.143,8.553,2.278,12.825,3.433.535.145.752,0,.743-.542-.01-.621,0-1.243,0-1.864m0-19.724c0-1.862,0-3.725,0-5.587,0-.3.058-.806-.4-.717-1.017.2-2.122.2-2.795,1.277C67,15.095,64.861,18.415,62.75,21.751c-.559.883-.513.94.523.99,2.7.13,5.407.26,8.108.423.638.039.916-.142.908-.809-.022-1.862-.008-3.724-.008-5.587m52.679,8.986c.023-.269-.182-.409-.31-.577-1.752-2.29-3.642-4.488-5.229-6.886a7.134,7.134,0,0,0-5.129-3.258c-.669-.111-.841.022-.837.661.017,2.883.023,5.766,0,8.648-.007.717.268.931.962.958,3.229.126,6.455.306,9.683.453.283.013.575.177.864,0M65.044,12.272a1.333,1.333,0,0,0-.267.019c-3.959,1.059-7.915,2.13-11.878,3.176-.635.168-.49.38-.148.716,1.825,1.793,3.64,3.6,5.464,5.391.621.611.728.6,1.218-.175q2.737-4.307,5.459-8.623c.087-.138.239-.264.152-.5m57.5,5.122a1.264,1.264,0,0,0,.1.257q2.906,3.787,5.813,7.573c.383.5.679.319,1.024-.033,1.377-1.4,2.767-2.789,4.145-4.189.541-.55.515-.641-.219-.838q-5.007-1.347-10.018-2.678a1.209,1.209,0,0,0-.85-.091m19.011,7.049c0-.422-.024-.846.006-1.266a.886.886,0,0,0-.784-1.06c-.848-.193-1.688-.421-2.522-.667a1.05,1.05,0,0,0-1.146.3c-1.293,1.308-2.6,2.606-3.89,3.913-.117.118-.33.227-.267.411.075.219.334.19.518.2.993.051,1.987.074,2.98.122,1.439.069,2.879.14,4.317.232.583.038.823-.194.793-.772-.025-.471-.005-.944,0-1.416M54.43,22.259C52.913,20.688,51.4,19.213,50,17.634a2.228,2.228,0,0,0-2.777-.671c-.493.188-.744.421-.736.956q.024,1.6,0,3.206c-.008.486.167.737.68.762,1.539.074,3.076.173,4.615.254.884.047,1.769.08,2.65.118m-22.451-1.2a23.588,23.588,0,0,0,3.915.264c2.529.171,5.065.255,7.6.389.576.031.826-.2.812-.773-.018-.745,0-1.492,0-2.237-.009-.823-.112-.9-.942-.683-1.372.358-2.741.725-4.11,1.091-2.374.635-4.747,1.273-7.267,1.949M27.43,26.992l-.066.035a.444.444,0,0,0,.117.079q3.849,1.035,7.7,2.064L43.53,31.4c.288.077.582.211.735-.212a1.209,1.209,0,0,0-1.015-1.778Q35.337,28.2,27.43,26.992m122.565-2.223c0-.061,0-.123.005-.184-1.886-.492-3.769-.994-5.659-1.469-.4-.1-.516.189-.515.537q0,1.043,0,2.087c0,.527.275.635.734.5.477-.138.96-.257,1.44-.387l3.994-1.085" transform="translate(0 0)" fill="#fff"/><path d="M168.251,520.565a5.471,5.471,0,0,1-1.76-.946,1.535,1.535,0,0,0-1.986-.177.446.446,0,0,1-.661-.054.42.42,0,0,1,.066-.656c.612-.515.375-.771-.188-1.157a2.977,2.977,0,0,1-.949-3.668,3.128,3.128,0,0,1,3.379-1.758,2.908,2.908,0,0,1,2.584,2.585,2.955,2.955,0,0,1-1.979,3.294c-.233.083-.475.14-.815.238a5.8,5.8,0,0,1,1.794.808c.5.286,1.007.47,1.467-.092a.338.338,0,0,1,.461-.115.447.447,0,0,1,.194.519c-.139.721-.707.97-1.309,1.181Zm-.912-5.4c0-1.213-.626-1.908-1.707-1.9a1.659,1.659,0,0,0-1.682,1.858,1.746,1.746,0,0,0,1.76,1.965,1.7,1.7,0,0,0,1.628-1.924" transform="translate(-138.224 -435.591)" fill="#fff"/><path d="M723.049,398.542H702.382c-1.186,0-1.184,0-1.187-1.2a6.078,6.078,0,0,1,.629-3.535,3.167,3.167,0,0,1,2.536-1.606,4.656,4.656,0,0,0,2.688-.737c.472-.364.467.1.47.385.014,1.068.04,2.138,0,3.2-.029.694.178,1.013.92.956a18.647,18.647,0,0,1,1.939-.007c.488.013.78-.161.729-.685-.125-1.3.8-1.9,1.671-2.521.423-.3.526.01.536.349.02.67.035,1.342.008,2.012-.024.589.169.865.806.85,1.317-.031,2.636-.024,3.954,0,.536.009.814-.175.739-.732-.175-1.309.7-1.921,1.64-2.494.359-.219.507-.06.511.306.008.72.027,1.442,0,2.161-.019.534.168.762.727.759,3.283-.015,6.565-.006,9.848-.009.321,0,.683.032.722-.438.034-.41.02-.8-.422-1.022a2.025,2.025,0,0,0-.949-.138c-2.487,0-4.974,0-7.461,0-.452,0-1,.139-1.131-.539a1.178,1.178,0,0,1,.731-1.449c2.208-1.029,4.407-2.077,6.61-3.119.854-.4,1.7-.816,2.562-1.212.167-.077.385-.25.538-.036s0,.442-.168.587a3.675,3.675,0,0,1-.624.4c-1.324.739-2.652,1.47-3.975,2.211-.247.139-.629.235-.5.625.109.327.455.349.76.35,1.318,0,2.636,0,3.954.007a1.968,1.968,0,0,1,2.244,2.237c.018,1.7-.235,1.533,1.565,1.542.821,0,1.641-.012,2.462,0a.75.75,0,0,0,.847-.629c.623-2.022,1.543-2.715,3.651-2.856a3.465,3.465,0,0,0,1.95-.658c.38-.293.647-.3.648.263,0,1.639.038,3.281-.04,4.918-.058,1.227-.421,1.5-1.652,1.5q-10.408.005-20.815,0M704.314,396c1.035,0,1.061-.023,1.063-.816,0-.4.05-.821-.576-.777s-1.458.729-1.388,1.227c.088.626.637.241.9.366m37.894-.015c.659.049,1.22.067,1.136-.786-.036-.361.068-.785-.517-.792s-1.423.686-1.4,1.237c.027.655.584.2.781.341" transform="translate(-596.423 -329.973)" fill="#fff"/><path d="M148.29,385.331q-8.059,0-16.119,0c-1.048,0-1.081-.042-1.093-1.093a6.58,6.58,0,0,1,.752-3.742,3.014,3.014,0,0,1,2.22-1.472,5.923,5.923,0,0,0,3.05-.817c.371-.283.374.222.378.454.016,1.044.006,2.088.01,3.131,0,.974.024,1,1.01,1,1.219,0,2.438-.02,3.656.009.593.014.846-.166.841-.8a2.535,2.535,0,0,1,1.7-2.467c.384-.151.438.063.441.347.008.721.028,1.442,0,2.162-.021.536.163.772.724.758,1.044-.026,2.09-.02,3.134,0,.485.009.721-.151.759-.672.037-.5,1.293-1.593,1.785-1.64.3-.029.32.178.326.38.013.422.027.846.007,1.267-.023.481.184.691.66.661a3,3,0,0,1,.522,0c.654.073.867-.217.86-.86-.027-2.336,0-4.672-.015-7.008-.013-1.594.561-1.814,1.682-2.43.508-.28.538.157.543.474.02,1.118.012,2.237.014,3.355,0,.919,0,1.839,0,2.759,0,.453.046.775.616.42a2.635,2.635,0,0,1,1.439-.316c2.164.006,4.328,0,6.492,0,1.132,0,1.632.5,1.649,1.634q.022,1.491,0,2.982a1.363,1.363,0,0,1-1.4,1.505c-.37.033-.746.019-1.119.019H148.29m11.823-2.543q1.641,0,3.282,0c.313,0,.613-.028.644-.443.03-.395,0-.766-.46-.9a2.419,2.419,0,0,0-.658-.1c-2.014-.008-4.028.006-6.042-.014-.544-.005-.754.19-.752.738s.256.735.778.725c1.069-.019,2.138-.006,3.207-.007m-26.009-.016c.694.058,1.241.054,1.16-.785-.035-.36.063-.782-.517-.787-.559,0-1.373.651-1.367,1.166.008.618.526.338.725.407" transform="translate(-111.492 -316.763)" fill="#fff"/><path d="M502.74,385.532c-3.63,0-7.261.015-10.891-.012-.721-.005-1.077.128-1.086.966a2.2,2.2,0,0,1-2.025,2.131,2.689,2.689,0,0,1-2.833-1.2c-.359-.729-.2-1,.593-1.026h.075c1.778-.029,1.778-.029,1.778-1.839,0-.3.006-.6,0-.894-.043-1.962.342-1.837,1.895-2.7.342-.19.512-.041.541.32.008.1.011.2.011.3-.005,1.515-.12,1.415,1.492,1.409,1.827-.007,1.633.191,1.64-1.632.007-2.062.027-4.124-.008-6.186a2.284,2.284,0,0,1,1.386-2.327c.679-.326.765-.313.768.427.008,1.987,0,3.975,0,5.962,0,.825,0,.824.728.448a2.754,2.754,0,0,1,1.3-.292c2.238,0,4.476-.006,6.713,0,1.027,0,1.492.464,1.541,1.5a10.036,10.036,0,0,1,0,1.266c-.047.6.152.856.792.842,1.541-.033,3.083-.014,4.624-.009.43,0,.792-.017.78-.615-.011-.577-.382-.542-.764-.542-.273,0-.547,0-.82,0a2.05,2.05,0,0,1-2.117-2.2A2.15,2.15,0,0,1,511,377.446c.522-.009,1.045-.022,1.566,0a2.845,2.845,0,0,0,1.843-.461c.369-.258.6-.224.6.287,0,2.36.019,4.72-.024,7.08-.017.915-.37,1.174-1.355,1.176q-5.445.009-10.891,0m-2.763-2.543c1.143,0,2.287,0,3.43,0,.309,0,.619-.017.655-.432.034-.39.017-.768-.445-.906a2.372,2.372,0,0,0-.657-.1c-2.063-.008-4.127,0-6.19-.014-.509,0-.708.166-.7.689s.12.792.7.777c1.068-.028,2.138-.008,3.207-.009" transform="translate(-413.149 -316.963)" fill="#fff"/><path d="M386.251,378.759c0,1.764,0,3.527,0,5.29,0,1.061-.372,1.445-1.427,1.461-1.193.018-2.388.045-3.579-.008-.752-.034-1.066.212-.962.971.322,2.341-2.425,3.628-4.4,2.561a2.429,2.429,0,0,1-1.209-1.36c-.216-.627-.089-.824.569-.843.621-.018,1.243.006,1.864-.009.464-.011,1.038.178,1.019-.665s-.611-.614-1.06-.634c-.62-.027-1.243-.007-1.864-.012-.353,0-.66-.079-.656-.523a10.025,10.025,0,0,1,.279-3.469,3.464,3.464,0,0,1,3.018-2.426,4.574,4.574,0,0,0,1.774-.506c.482-.275.674-.146.668.4-.011,1.068.021,2.137-.01,3.2-.017.571.171.82.766.793a20.7,20.7,0,0,1,2.162,0c.67.039.919-.186.908-.886-.036-2.359-.016-4.719-.012-7.078a2.361,2.361,0,0,1,1.694-2.355c.458-.158.449.154.451.43.01,1.068.006,2.136.007,3.2q0,1.23,0,2.459" transform="translate(-318.569 -316.949)" fill="#fff"/><path d="M462.57,379.121c0,1.885-.037,3.772.015,5.656.026.929-.548.822-1.125.831s-1.068.034-1.058-.822c.038-3.25.01-6.5.019-9.75a2.577,2.577,0,0,1,1.737-2.283c.533-.134.4.316.4.563.015,1.786.009,3.572.009,5.359q0,.223,0,.447" transform="translate(-391.611 -317.038)" fill="#fff"/><path d="M769.3,515.684c0-.7.015-1.391-.005-2.085-.016-.543.229-.768.757-.758a9.3,9.3,0,0,1,2.152.124,1.419,1.419,0,0,1,1.009,2.075.737.737,0,0,0,.115.908,1.632,1.632,0,0,1-1.074,2.667,17.209,17.209,0,0,1-2.454.053c-.446,0-.5-.328-.5-.675q0-1.154,0-2.308m1.392,1.143c-.009.467-.068.92.6.875.527-.036,1.038-.131,1.062-.772.022-.594-.4-.761-.941-.786s-.8.165-.719.683" transform="translate(-654.354 -436.213)" fill="#fff"/><path d="M528.777,518.077a3.074,3.074,0,0,1-3.222-3.012,3.154,3.154,0,0,1,6.307-.047,3.046,3.046,0,0,1-3.086,3.06m-.073-4.947a1.716,1.716,0,0,0-1.723,1.912,1.742,1.742,0,1,0,3.465-.029,1.713,1.713,0,0,0-1.742-1.883" transform="translate(-447.029 -435.452)" fill="#fff"/><path d="M326.232,512.8a5.375,5.375,0,0,1,1.422.129,1.62,1.62,0,0,1,1.293,1.292,1.748,1.748,0,0,1-.489,1.707c-.216.224-.688.3-.384.792.287.461.485,1.014,1.184.955a2.3,2.3,0,0,0,.294-.042c.227-.049.469-.1.551.2a.544.544,0,0,1-.263.573,1.861,1.861,0,0,1-2.156-.094,3.539,3.539,0,0,1-.694-.957c-.192-.319-.234-.953-.676-.85-.516.121-.167.726-.26,1.107a.565.565,0,0,0,0,.148c.014.477,0,.888-.676.892-.648,0-.72-.356-.716-.86.011-1.364.029-2.73-.007-4.093-.019-.692.265-.954.924-.9.2.017.4,0,.654,0m-.175,1.785c.031.362-.134.864.521.829.515-.028,1.039-.1,1.043-.785,0-.576-.389-.729-.9-.759-.533-.032-.73.2-.667.715" transform="translate(-276.145 -436.172)" fill="#fff"/><path d="M895.683,512.82a5.643,5.643,0,0,1,1.506.129,1.625,1.625,0,0,1,1.291,1.294,1.745,1.745,0,0,1-.493,1.705c-.216.223-.686.3-.38.792.288.46.485,1.013,1.184.955.074-.006.149-.014.222-.027.24-.043.528-.165.62.182.082.31-.139.505-.387.652a1.855,1.855,0,0,1-2.379-.566c-.239-.344-.406-.738-.611-1.105-.095-.169-.172-.391-.425-.345s-.235.286-.241.478c-.011.322-.018.645,0,.967.02.483-.151.735-.682.735-.514,0-.713-.214-.709-.713.011-1.439.021-2.878-.005-4.316-.011-.623.262-.857.85-.819.2.013.4,0,.645,0m.491,1.073c-.5-.079-.623.246-.59.717.026.377-.112.866.539.823.516-.034,1.037-.11,1.03-.8-.006-.582-.41-.736-.978-.742" transform="translate(-760.583 -436.191)" fill="#fff"/><path d="M391.488,516.125c0-.844.005-1.635,0-2.425,0-.444.078-.784.636-.792.574-.008.622.345.619.786-.009,1.414,0,2.827-.007,4.241,0,.283.087.636-.3.759a.831.831,0,0,1-.971-.357c-.7-.9-1.415-1.79-2.127-2.681a2.713,2.713,0,0,0-.329-.266c0,.905,0,1.688,0,2.471,0,.424.057.87-.6.881-.633.011-.647-.394-.646-.843,0-1.389,0-2.778,0-4.166,0-.286-.064-.634.306-.763a.781.781,0,0,1,.923.3q1,1.251,2,2.5a.656.656,0,0,0,.493.359" transform="translate(-329.826 -436.272)" fill="#fff"/><path d="M577.828,515.545c0,.835-.007,1.669,0,2.5.005.43-.1.717-.613.722s-.64-.263-.639-.7c0-1.465,0-2.929,0-4.394,0-.267-.025-.576.315-.683a.8.8,0,0,1,.921.315c.651.815,1.3,1.631,1.956,2.441.117.145.182.36.528.394,0-.82.006-1.627,0-2.433,0-.456.1-.783.656-.767.516.015.592.337.59.754-.006,1.44,0,2.88,0,4.32,0,.264.055.586-.281.7a.794.794,0,0,1-.927-.3q-1.023-1.28-2.05-2.557c-.1-.125-.151-.322-.457-.316" transform="translate(-490.43 -436.301)" fill="#fff"/><path d="M809.076,515.677c0-.744.007-1.489,0-2.233-.005-.39.147-.62.555-.626a9.155,9.155,0,0,1,2.374.115,1.631,1.631,0,0,1,1.278,1.223,1.754,1.754,0,0,1-.474,1.78c-.18.179-.679.2-.446.628.251.466.419,1.042,1.087,1.112.073.008.149,0,.223,0,.285.006.717-.3.787.212.06.44-.353.615-.718.727a1.794,1.794,0,0,1-2.092-.731c-.127-.182-.213-.395-.344-.573-.219-.3-.227-.94-.71-.8-.444.127-.155.7-.218,1.065a2.031,2.031,0,0,0-.006.446c.023.442-.187.621-.624.627-.471.006-.682-.185-.673-.662.015-.769,0-1.538,0-2.308m1.883-1.8c-.411-.09-.638.136-.589.661.037.386-.163.917.547.886.519-.023,1.03-.07,1.035-.772,0-.583-.368-.76-.993-.775" transform="translate(-688.185 -436.178)" fill="#fff"/><path d="M284.185,518.731a.722.722,0,0,1-.866-.638c-.2-.833-.838-.689-1.423-.7-.559-.011-1.108-.053-1.285.685-.074.306-.217.628-.621.65-.245.013-.522.089-.716-.093-.238-.223-.023-.463.067-.677.623-1.486,1.259-2.967,1.881-4.454.145-.347.329-.593.754-.592a.779.779,0,0,1,.759.589q.953,2.262,1.923,4.517c.214.5.12.775-.473.714" transform="translate(-237.454 -436.275)" fill="#fff"/><path d="M433.3,518.779c-.525.089-.769-.253-.882-.687-.219-.838-.877-.626-1.445-.655-.542-.028-1.061-.03-1.232.65a1.405,1.405,0,0,1-.181.406.83.83,0,0,1-1.07.24c-.45-.155-.13-.51-.034-.743.616-1.487,1.261-2.962,1.885-4.446a.776.776,0,0,1,.764-.581c.42,0,.607.259.752.6.635,1.506,1.271,3.012,1.924,4.51.222.51.133.763-.482.7" transform="translate(-364.27 -436.319)" fill="#fff"/><path d="M620,513c.464-.017.632.275.775.613.62,1.464,1.255,2.922,1.862,4.392.1.235.416.59-.02.752a.881.881,0,0,1-1.089-.209.352.352,0,0,1-.074-.129c-.186-.925-.84-.985-1.624-.973-.624.01-1.055.139-1.238.787-.073.257-.189.535-.525.56-.268.02-.577.117-.787-.09s-.007-.471.083-.685c.625-1.489,1.267-2.971,1.9-4.458.149-.352.354-.6.742-.559" transform="translate(-524.964 -436.346)" fill="#fff"/><path d="M213.224,518.737a.707.707,0,0,1-.844-.63c-.17-.7-.672-.748-1.26-.716-.606.033-1.289-.141-1.479.728a.984.984,0,0,1-.16.334.821.821,0,0,1-1.073.224c-.415-.174-.11-.512-.007-.757.612-1.464,1.243-2.921,1.861-4.383.142-.335.292-.622.73-.622a.779.779,0,0,1,.777.565q.952,2.263,1.923,4.518c.2.468.176.785-.467.739" transform="translate(-177.089 -436.277)" fill="#fff"/><path d="M853.584,518.728a.689.689,0,0,1-.817-.6c-.222-.9-.927-.707-1.555-.738-.572-.029-1.044.052-1.187.718a1.026,1.026,0,0,1-.159.334.822.822,0,0,1-1.069.239c-.441-.17-.118-.51-.019-.748.606-1.466,1.234-2.924,1.848-4.387.141-.335.292-.619.726-.633.455-.015.661.241.818.615q.936,2.228,1.893,4.448c.225.521.162.827-.478.756" transform="translate(-721.782 -436.272)" fill="#fff"/><path d="M467.466,512.9c.646,0,1.293,0,1.939,0,.38,0,.611.159.614.575s-.22.551-.6.591c-1.293.138-1.292.146-1.293,1.458,0,.844-.009,1.689,0,2.533,0,.462-.183.674-.665.68-.5.007-.73-.184-.723-.7.014-.968,0-1.937,0-2.906,0-1.037,0-1.036-1.011-1.066q-.186-.006-.372-.016c-.37-.02-.524-.225-.52-.584a.5.5,0,0,1,.544-.562c.7-.007,1.392,0,2.088,0V512.9" transform="translate(-395.382 -436.264)" fill="#fff"/><path d="M248.14,512.876c.62,0,1.24,0,1.86,0,.381,0,.69.087.7.567s-.268.593-.665.6c-.2,0-.4.017-.595.007-.482-.024-.657.208-.65.675.016,1.065-.008,2.131.007,3.2.007.5-.106.8-.695.8s-.7-.323-.692-.806c.01-.991-.03-1.983.012-2.972.029-.681-.222-.945-.9-.906-.339.02-.8.124-.918-.39-.093-.413.006-.757.53-.762.669-.007,1.339,0,2.008,0v-.006" transform="translate(-208.879 -436.244)" fill="#fff"/><path d="M929.938,512.659a.989.989,0,0,1,1.086.484c.249.428.542.831.787,1.262.26.457.473.611.773.024a13.757,13.757,0,0,1,.748-1.2,1.4,1.4,0,0,1,.319-.406.987.987,0,0,1,1.122-.087c.393.285-.067.556-.2.8a7.386,7.386,0,0,1-.732,1.119,3.818,3.818,0,0,0-.958,3.013c.064.47-.069.814-.673.815-.585,0-.778-.3-.688-.791.271-1.47-.649-2.473-1.346-3.567-.16-.251-.329-.5-.487-.748-.1-.165-.276-.338-.183-.537.112-.242.383-.174.431-.183" transform="translate(-790.604 -436.009)" fill="#fff"/><path d="M716.947,515.317c0,.521.031,1.045-.008,1.563-.046.6.221.8.787.755.395-.029.794,0,1.191,0a.482.482,0,0,1,.542.553c0,.378-.2.536-.559.536-.919,0-1.838,0-2.756,0-.416,0-.576-.227-.576-.608q0-2.308,0-4.615c0-.444.247-.612.664-.607s.726.121.712.632c-.016.6,0,1.191,0,1.787Z" transform="translate(-608.651 -436.264)" fill="#fff"/><path d="M662.3,515.766c0-.719.013-1.439,0-2.157-.012-.471.114-.755.657-.76.564,0,.733.278.727.787-.012.992.036,1.986-.014,2.975-.037.73.179,1.083.957.982a7.023,7.023,0,0,1,.893,0c.381,0,.609.14.6.569-.008.39-.219.523-.567.523-.894,0-1.787,0-2.681,0-.414,0-.568-.225-.565-.612.005-.769,0-1.538,0-2.307Z" transform="translate(-563.336 -436.222)" fill="#fff"/><path d="M508.825,515.818c0,.744-.01,1.487,0,2.231.01.52-.243.69-.736.681s-.657-.225-.654-.685c.01-1.487.014-2.975,0-4.462-.005-.526.253-.7.734-.693s.661.245.656.7c-.008.743,0,1.487,0,2.231" transform="translate(-431.619 -436.257)" fill="#fff"/><path d="M749.792,515.847c0,.743-.009,1.487,0,2.23.008.482-.222.652-.684.654s-.7-.153-.7-.639q.009-2.267,0-4.534c0-.472.226-.67.685-.666.443,0,.706.161.7.651-.012.768,0,1.536,0,2.3" transform="translate(-636.588 -436.258)" fill="#fff"/><path d="M669.63,370.878a1.2,1.2,0,0,1,1.206,1.171,1.29,1.29,0,0,1-1.253,1.234,1.214,1.214,0,0,1-1.149-1.231,1.2,1.2,0,0,1,1.2-1.175" transform="translate(-568.56 -315.464)" fill="#fff"/><path d="M253.857,399.906a1.2,1.2,0,1,1,.084-2.389,1.2,1.2,0,0,1-.084,2.389" transform="translate(-214.939 -338.121)" fill="#fff"/><path d="M188.161,469.234a1.2,1.2,0,0,1-2.393.109,1.208,1.208,0,0,1,1.171-1.281,1.26,1.26,0,0,1,1.222,1.172" transform="translate(-158.01 -398.127)" fill="#fff"/><path d="M208.267,469.289a1.208,1.208,0,0,1-2.416-.063,1.253,1.253,0,0,1,1.235-1.16,1.287,1.287,0,0,1,1.18,1.222" transform="translate(-175.093 -398.13)" fill="#fff"/><path d="M704.519,379.729a1.167,1.167,0,0,1-1.213-1.137,1.2,1.2,0,0,1,1.139-1.226,1.257,1.257,0,0,1,1.267,1.194,1.189,1.189,0,0,1-1.193,1.169" transform="translate(-598.222 -320.98)" fill="#fff"/><path d="M725.769,378.518a1.2,1.2,0,0,1-2.4-.026,1.225,1.225,0,0,1,1.241-1.2,1.277,1.277,0,0,1,1.158,1.23" transform="translate(-615.288 -320.915)" fill="#fff"/><path d="M816.43,392.5a1.2,1.2,0,1,1-.066-2.39,1.269,1.269,0,0,1,1.217,1.171,1.207,1.207,0,0,1-1.151,1.218" transform="translate(-693.389 -331.819)" fill="#fff"/><path d="M134.875,377.352a1.186,1.186,0,0,1,1.2,1.153,1.148,1.148,0,0,1-1.2,1.215,1.116,1.116,0,0,1-1.159-1.171,1.171,1.171,0,0,1,1.156-1.2" transform="translate(-113.739 -320.97)" fill="#fff"/><path d="M796.285,390.111a1.2,1.2,0,1,1,.032,2.392,1.2,1.2,0,0,1-.032-2.392" transform="translate(-676.341 -331.823)" fill="#fff"/><path d="M156.165,378.574a1.183,1.183,0,1,1-1.173-1.207,1.211,1.211,0,0,1,1.173,1.207" transform="translate(-130.82 -320.982)" fill="#fff"/><path d="M759,468.9a1.2,1.2,0,0,1,.061,2.389A1.2,1.2,0,1,1,759,468.9" transform="translate(-644.58 -398.837)" fill="#fff"/><path d="M650.65,372.074a1.184,1.184,0,0,1-1.14,1.21,1.208,1.208,0,0,1-1.183-1.254,1.173,1.173,0,0,1,1.2-1.152,1.108,1.108,0,0,1,1.128,1.2" transform="translate(-551.457 -315.463)" fill="#fff"/></g></svg>